<?xml version="1.0" encoding="UTF-8"?>
<svg id="Layer_1" data-name="Layer 1" xmlns="http://www.w3.org/2000/svg" viewBox="0 0 200 200">
  <defs>
    <style>
      .cls-1 {
        fill: #a7a9ac;
        stroke-width: 0px;
      }
    </style>
  </defs>
  <path class="cls-1" d="M171.43,84.12l-12.37-43.28c-2.26-7.91-9.49-13.36-17.71-13.36H58.64c-8.22,0-15.45,5.45-17.71,13.36l-12.37,43.28c-6.71,2.75-11.44,9.33-11.44,17.03v43.74c0,1.27,1.03,2.3,2.3,2.3h2.3v16.11c0,5.09,4.12,9.21,9.21,9.21h9.21c5.09,0,9.21-4.12,9.21-9.21v-13.81c0-1.27,1.03-2.3,2.3-2.3h96.69c1.27,0,2.3,1.03,2.3,2.3v13.81c0,5.09,4.12,9.21,9.21,9.21h9.21c5.09,0,9.21-4.12,9.21-9.21v-16.11h2.3c1.27,0,2.3-1.03,2.3-2.3v-43.74c0-7.7-4.73-14.28-11.44-17.03ZM57.08,51c.86-4.3,4.64-7.4,9.03-7.4h67.78c4.39,0,8.17,3.1,9.03,7.4l5.8,28.98c.28,1.42-.8,2.75-2.26,2.75H53.54c-1.45,0-2.54-1.33-2.26-2.75l5.8-28.98ZM49.35,128.78c-7.63,0-13.81-6.18-13.81-13.81s6.18-13.81,13.81-13.81,13.81,6.18,13.81,13.81-6.18,13.81-13.81,13.81ZM113.81,121.87h-27.62c-3.81,0-6.91-3.09-6.91-6.91s3.09-6.91,6.91-6.91h27.62c3.81,0,6.91,3.09,6.91,6.91s-3.09,6.91-6.91,6.91ZM150.65,128.78c-7.63,0-13.81-6.18-13.81-13.81s6.18-13.81,13.81-13.81,13.81,6.18,13.81,13.81-6.18,13.81-13.81,13.81Z"/>
  <path class="cls-1" d="M106.91,53.96h-13.81c-3.81,0-6.91,3.09-6.91,6.91s3.09,6.91,6.91,6.91h13.81c3.81,0,6.91-3.09,6.91-6.91s-3.09-6.91-6.91-6.91Z"/>
</svg>