<?xml version="1.0" encoding="UTF-8"?>
<svg id="Layer_1" data-name="Layer 1" xmlns="http://www.w3.org/2000/svg" viewBox="0 0 200 200">
  <defs>
    <style>
      .cls-1 {
        fill: #a7a9ac;
        stroke-width: 0px;
      }
    </style>
  </defs>
  <path class="cls-1" d="M100,13.88c-19.06,0-34.51,15.45-34.51,34.51s15.45,34.51,34.51,34.51,34.51-15.45,34.51-34.51-15.45-34.51-34.51-34.51ZM91.39,50.48c-4.76,0-8.61-3.86-8.61-8.61s3.86-8.61,8.61-8.61,8.61,3.86,8.61,8.61-3.86,8.61-8.61,8.61Z"/>
  <path class="cls-1" d="M160.8,160.93l-9.66-9.66c-2.42-2.42-5.71-3.78-9.13-3.78h-22.33l-1.93-13.53c-.3-2.12-2.12-3.7-4.26-3.7h-2.72v-37.95c-3.46.85-7.05,1.35-10.76,1.35s-7.31-.5-10.76-1.35v37.95h-2.72c-2.14,0-3.96,1.58-4.26,3.7l-1.93,13.53h-22.33c-3.43,0-6.71,1.36-9.13,3.78l-9.66,9.66c-2.42,2.42-3.78,5.71-3.78,9.13v7.44c0,4.76,3.86,8.61,8.61,8.61h111.95c4.76,0,8.61-3.86,8.61-8.61v-7.44c0-3.43-1.36-6.71-3.78-9.13Z"/>
</svg>