<?xml version="1.0" encoding="UTF-8"?>
<svg id="Layer_1" data-name="Layer 1" xmlns="http://www.w3.org/2000/svg" viewBox="0 0 200 200">
  <defs>
    <style>
      .cls-1 {
        fill: #fff;
        stroke-width: 0px;
      }
    </style>
  </defs>
  <path class="cls-1" d="M30.14,141.02v-29.03l-8.87-5.1v33.87c-4.05,1.65-6.92,5.62-6.92,10.26,0,6.13,4.97,11.09,11.09,11.09s11.09-4.97,11.09-11.09c0-4.44-2.63-8.24-6.39-10.01Z"/>
  <path class="cls-1" d="M100,149.08c-3.46,0-6.88-.91-9.88-2.64l-49-28.15v22.11c.23.14.43.31.67.44l49.38,28.37c5.47,3.14,12.21,3.14,17.68,0l49.38-28.37c5.51-3.16,8.91-9.03,8.91-15.39v-11.9l-57.24,32.89c-3,1.72-6.42,2.64-9.88,2.64ZM185.7,74.94L108.84,30.78c-2.74-1.57-5.79-2.36-8.84-2.36s-6.1.79-8.84,2.36L14.3,74.94c-5.85,3.36-5.85,11.8,0,15.16l81.35,46.73c1.35.77,2.85,1.16,4.35,1.16s3.01-.39,4.35-1.16l81.35-46.73c5.85-3.36,5.85-11.8,0-15.16Z"/>
</svg>