<?xml version="1.0" encoding="UTF-8"?>
<svg id="Layer_1" data-name="Layer 1" xmlns="http://www.w3.org/2000/svg" viewBox="0 0 200 200">
  <defs>
    <style>
      .cls-1 {
        fill: #fff;
        stroke-width: 0px;
      }
    </style>
  </defs>
  <path class="cls-1" d="M163.17,139.47H36.83c-2.33,0-4.21,1.89-4.21,4.21v16.85c0,9.3,7.54,16.85,16.85,16.85h101.07c9.3,0,16.85-7.54,16.85-16.85v-16.85c0-2.33-1.89-4.21-4.21-4.21ZM104.21,22.62h-8.42c-34.89,0-63.17,28.28-63.17,63.17v4.77c0,2.02,1.63,3.65,3.65,3.65h127.47c2.02,0,3.65-1.63,3.65-3.65v-4.77c0-34.89-28.28-63.17-63.17-63.17ZM69.68,61.56c-3.49,0-6.32-2.18-6.32-4.86s2.83-4.86,6.32-4.86,6.32,2.18,6.32,4.86-2.83,4.86-6.32,4.86ZM84.84,46.01c-3.49,0-6.32-2.18-6.32-4.86s2.83-4.86,6.32-4.86,6.32,2.18,6.32,4.86-2.83,4.86-6.32,4.86ZM100,61.56c-3.49,0-6.32-2.18-6.32-4.86s2.83-4.86,6.32-4.86,6.32,2.18,6.32,4.86-2.83,4.86-6.32,4.86ZM115.16,46.01c-3.49,0-6.32-2.18-6.32-4.86s2.83-4.86,6.32-4.86,6.32,2.18,6.32,4.86-2.83,4.86-6.32,4.86ZM130.32,61.56c-3.49,0-6.32-2.18-6.32-4.86s2.83-4.86,6.32-4.86,6.32,2.18,6.32,4.86-2.83,4.86-6.32,4.86Z"/>
  <path class="cls-1" d="M163.17,105.78c-7.85,0-12.24,3.5-15.14,5.82-2.3,1.84-3.25,2.6-5.93,2.6s-3.64-.76-5.93-2.6c-2.9-2.32-7.29-5.82-15.14-5.82s-12.23,3.51-15.13,5.83c-2.3,1.83-3.25,2.6-5.93,2.6s-3.62-.76-5.91-2.6c-2.9-2.32-7.28-5.83-15.13-5.83s-12.23,3.51-15.13,5.83c-2.29,1.83-3.24,2.6-5.92,2.6s-3.62-.76-5.91-2.6c-2.9-2.32-7.28-5.83-15.13-5.83-4.07,0-7.37,3.3-7.37,7.37s3.3,7.37,7.37,7.37c2.68,0,3.63.76,5.92,2.6,2.9,2.32,7.28,5.83,15.13,5.83s12.23-3.51,15.13-5.83c2.29-1.83,3.24-2.6,5.92-2.6s3.62.76,5.91,2.6c2.9,2.32,7.28,5.83,15.13,5.83s12.23-3.51,15.13-5.83c2.3-1.83,3.25-2.6,5.93-2.6s3.64.76,5.93,2.6c2.9,2.32,7.29,5.82,15.14,5.82s12.24-3.5,15.14-5.82c2.3-1.84,3.25-2.6,5.93-2.6,4.07,0,7.37-3.3,7.37-7.37s-3.3-7.37-7.37-7.37Z"/>
</svg>