<?xml version="1.0" encoding="UTF-8"?>
<svg id="Layer_1" data-name="Layer 1" xmlns="http://www.w3.org/2000/svg" viewBox="0 0 200 200">
  <defs>
    <style>
      .cls-1 {
        fill: #fff;
        stroke-width: 0px;
      }
    </style>
  </defs>
  <path class="cls-1" d="M98.28,16.06c-.12-2.46-2.15-4.39-4.62-4.39s-4.62,2.07-4.62,4.62v35.55c0,3.05-2.48,5.53-5.53,5.53s-5.53-2.48-5.53-5.53V17.31c0-3.12-2.53-5.65-5.65-5.65s-5.65,2.53-5.65,5.65v34.53c0,3.05-2.48,5.53-5.53,5.53s-5.53-2.48-5.53-5.53V16.29c0-2.55-2.07-4.62-4.62-4.62s-4.5,1.93-4.62,4.39l-2.11,42.69c-.44,8.88,3.28,17.46,10.06,23.21l.14.12c7.34,6.22,11.08,15.72,9.88,25.27-3.58,28.48-6.08,65.48-6.08,70.18,0,7.76,6.29,14.06,14.06,14.06s14.06-6.29,14.06-14.06c0-4.7-2.51-41.74-6.09-70.23-1.21-9.59,2.56-19.11,9.95-25.34,6.83-5.75,10.58-14.35,10.14-23.27l-2.11-42.63Z"/>
  <path class="cls-1" d="M150.12,8.48v-.06c-.08,0-.18.03-.26.03-.11,0-.22-.03-.33-.03-.39,0-.74.15-1.12.22-.02,0-.03,0-.04,0-.65.13-1.24.32-1.8.63-7.93,3.72-21.4,22.83-26.61,62.81-1.7,13.01-1.17,24.01-.23,31.72.89,7.33,5.07,13.84,11.24,17.89,3,1.97,4.7,5.39,4.46,8.97l-2.98,48.48c-.49,7.38,5.97,13.52,13.61,12.28,5.71-.92,9.72-6.2,9.72-11.99V14.65c0-3.24-2.48-5.88-5.65-6.18Z"/>
</svg>