<?xml version="1.0" encoding="UTF-8"?>
<svg id="Layer_1" data-name="Layer 1" xmlns="http://www.w3.org/2000/svg" viewBox="0 0 200 200">
  <defs>
    <style>
      .cls-1 {
        fill: #fff;
        stroke-width: 0px;
      }
    </style>
  </defs>
  <path class="cls-1" d="M170.82,157.12h-9.14v-72.03c-.43.02-.86.07-1.3.07h-1.06c-7.82,0-14.81-3.59-19.42-9.2-4.61,5.61-11.6,9.2-19.42,9.2h-1.06c-7.82,0-14.81-3.59-19.42-9.2-4.61,5.61-11.6,9.2-19.42,9.2h-1.06c-7.82,0-14.81-3.59-19.42-9.2-4.61,5.61-11.6,9.2-19.42,9.2h-1.06c-.44,0-.87-.04-1.3-.07v72.03h-9.14c-2.52,0-4.57,2.05-4.57,4.57v15.99c0,1.26,1.02,2.28,2.28,2.28h146.21c1.26,0,2.28-1.02,2.28-2.28v-15.99c0-2.52-2.05-4.57-4.57-4.57ZM97.72,150.26c0,1.26-1.02,2.28-2.28,2.28h-41.12c-1.26,0-2.28-1.02-2.28-2.28v-45.69c0-1.26,1.02-2.28,2.28-2.28h41.12c1.26,0,2.28,1.02,2.28,2.28v45.69ZM147.98,163.97c0,1.26-1.02,2.28-2.28,2.28h-27.42c-1.26,0-2.28-1.02-2.28-2.28v-59.4c0-1.26,1.02-2.28,2.28-2.28h27.42c1.26,0,2.28,1.02,2.28,2.28v59.4Z"/>
  <path class="cls-1" d="M134.27,130.84h-4.57c-3.15,0-5.71,2.56-5.71,5.71s2.56,5.71,5.71,5.71h4.57c3.15,0,5.71-2.56,5.71-5.71s-2.56-5.71-5.71-5.71ZM174.09,53.17v-9.47c0-1.59-.41-3.14-1.2-4.52l-8.27-14.51c-1.63-2.85-4.66-4.62-7.94-4.62H43.31c-3.28,0-6.32,1.76-7.94,4.62l-8.27,14.51c-.79,1.38-1.2,2.94-1.2,4.52v13.2h0v3.13c0,7.56,6.15,13.71,13.71,13.71h1.06c7.56,0,13.71-6.15,13.71-13.71v-8c0-3.15,2.56-5.71,5.71-5.71s5.71,2.56,5.71,5.71v8c0,7.56,6.15,13.71,13.71,13.71h1.06c7.56,0,13.71-6.15,13.71-13.71v-6.85h-.11v-1.14c0-3.15,2.56-5.71,5.71-5.71s5.71,2.56,5.71,5.71v4.87h.11v3.13c0,7.56,6.15,13.71,13.71,13.71h1.06c7.56,0,13.71-6.15,13.71-13.71v-8c0-3.15,2.56-5.71,5.71-5.71s5.71,2.56,5.71,5.71v8c0,7.56,6.15,13.71,13.71,13.71h1.06c7.56,0,13.71-6.15,13.71-13.71v-6.85h0Z"/>
</svg>