<?xml version="1.0" encoding="UTF-8"?>
<svg id="Layer_1" data-name="Layer 1" xmlns="http://www.w3.org/2000/svg" viewBox="0 0 200 200">
  <defs>
    <style>
      .cls-1 {
        stroke-width: 0px;
      }
    </style>
  </defs>
  <path class="cls-1" d="M173.85,45.96c-28.83-3.57-56.59-25.15-68.18-35.23-3.25-2.83-8.09-2.83-11.34,0-11.59,10.08-39.35,31.66-68.18,35.23-4.58.57-8.01,4.45-7.82,9.06,3.55,87.66,61.19,126.13,77.44,135.26,2.65,1.49,5.82,1.49,8.47,0,16.25-9.14,73.88-47.61,77.44-135.26.19-4.62-3.24-8.49-7.82-9.06ZM100,143.48c-24.01,0-43.48-19.47-43.48-43.48s19.47-43.48,43.48-43.48,43.48,19.47,43.48,43.48-19.47,43.48-43.48,43.48Z"/>
  <path class="cls-1" d="M107.9,97.85l-10.55-5.43c-2.37-1.22-2.15-3.52-2.02-4.2.15-.82.77-2.75,3.32-3.02,3.01-.25,5.84,1.41,7.05,4.18,1.26,2.89,4.61,4.21,7.51,2.96,2.89-1.26,4.22-4.62,2.96-7.51-1.86-4.28-5.22-7.53-9.31-9.37v-2.87c0-3.15-2.56-5.71-5.71-5.71s-5.71,2.56-5.71,5.71v1.61c-5.83,1.34-10.2,5.83-11.33,11.92-1.26,6.72,1.97,13.33,8.02,16.45l10.55,5.43c2.33,1.2,2.15,3.49,2.05,4.17-.13.78-.66,2.62-2.86,2.98l-.52.06c-3.05.25-5.84-1.41-7.05-4.19-1.26-2.89-4.63-4.22-7.51-2.96-2.89,1.26-4.22,4.63-2.96,7.52,2.22,5.09,6.52,8.78,11.62,10.31v1.53c0,3.15,2.56,5.71,5.71,5.71s5.71-2.56,5.71-5.71v-1.92c4.8-1.91,8.27-6.14,9.13-11.52,1.08-6.71-2.1-13.04-8.09-16.12Z"/>
</svg>