<?xml version="1.0" encoding="UTF-8"?>
<svg id="Layer_1" data-name="Layer 1" xmlns="http://www.w3.org/2000/svg" viewBox="0 0 200 200">
  <defs>
    <style>
      .cls-1 {
        fill: #a7a9ac;
        stroke-width: 0px;
      }
    </style>
  </defs>
  <path class="cls-1" d="M28.45,73.42v36.8c0,2.26,1.83,4.09,4.09,4.09h44.98v-49.07h-40.89c-4.52,0-8.18,3.66-8.18,8.18ZM36.62,128.62v32.71c0,4.52,3.66,8.18,8.18,8.18h32.71v-44.98h-36.8c-2.26,0-4.09,1.83-4.09,4.09ZM159.29,124.53h-36.8v44.98h32.71c4.52,0,8.18-3.66,8.18-8.18v-32.71c0-2.26-1.83-4.09-4.09-4.09ZM163.38,65.25h-40.89v49.07h44.98c2.26,0,4.09-1.83,4.09-4.09v-36.8c0-4.52-3.66-8.18-8.18-8.18Z"/>
  <path class="cls-1" d="M87.73,169.51h24.53v-104.26h-24.53v104.26ZM94.89,47.11c0-9.18-7.44-16.62-16.62-16.62h-23.42c-1.82,0-2.73,2.2-1.45,3.49l7.33,7.33c.8.8.8,2.09,0,2.89l-7.33,7.33c-1.29,1.29-.38,3.49,1.45,3.49h40.04v-7.91ZM139.27,44.2c-.8-.8-.8-2.09,0-2.89l7.33-7.33c1.29-1.29.38-3.49-1.45-3.49h-23.42c-9.18,0-16.62,7.44-16.62,16.62v7.91h40.04c1.82,0,2.73-2.2,1.45-3.49l-7.33-7.33Z"/>
</svg>