<?xml version="1.0" encoding="UTF-8"?>
<svg id="Layer_1" data-name="Layer 1" xmlns="http://www.w3.org/2000/svg" viewBox="0 0 200 200">
  <defs>
    <style>
      .cls-1 {
        fill: #a7a9ac;
        stroke-width: 0px;
      }
    </style>
  </defs>
  <path class="cls-1" d="M139.68,90.45h26v-23.29c0-4.53-3.68-8.21-8.21-8.21H56.9c-3.4,0-6.16-2.76-6.16-6.16s2.76-6.16,6.16-6.16h96.46v-8.21c0-4.53-3.68-8.21-8.21-8.21H46.64c-9.07,0-16.42,7.35-16.42,16.42v106.72c0,9.07,7.35,16.42,16.42,16.42h110.82c4.53,0,8.21-3.68,8.21-8.21v-20.49h-26c-13.96,0-25.31-11.35-25.31-25.31s11.35-25.31,25.31-25.31Z"/>
  <path class="cls-1" d="M167.73,100.71h-28.05c-8.31,0-15.05,6.74-15.05,15.05s6.74,15.05,15.05,15.05h28.05c1.13,0,2.05-.92,2.05-2.05v-26c0-1.13-.92-2.05-2.05-2.05ZM143.1,121.92c-3.4,0-6.16-2.76-6.16-6.16s2.76-6.16,6.16-6.16,6.16,2.76,6.16,6.16-2.76,6.16-6.16,6.16Z"/>
</svg>