<?xml version="1.0" encoding="UTF-8"?>
<svg id="Layer_1" data-name="Layer 1" xmlns="http://www.w3.org/2000/svg" viewBox="0 0 200 200">
  <defs>
    <style>
      .cls-1 {
        fill: #a7a9ac;
        stroke-width: 0px;
      }
    </style>
  </defs>
  <path class="cls-1" d="M74.47,100.21h14.51c18.24-.87,44.54-7.98,61.79-18.19v-42.52c-19.81-11.27-53.41-18.85-85.35-19.12-22.47-.19-41.81,17.64-41.96,40.11-.05,7.28,1.83,14.11,5.14,20.02,6.42,11.45,9.14,24.61,9.14,37.73v22.16c0,5.38,2.14,7.5,4.78,7.5h3.15v25.78c0,3.28,2.66,5.95,5.95,5.95s5.95-2.66,5.95-5.95v-25.78h32.65c3.08,0,4.99-3.36,3.4-6.01l-7.73-12.88c-.37-.62-.57-1.32-.57-2.04v-16.85h-10.86c-2.74,0-4.96-2.22-4.96-4.96s2.22-4.96,4.96-4.96ZM59.55,68.58c-7.67,0-13.88-6.21-13.88-13.88s6.21-13.88,13.88-13.88,13.88,6.22,13.88,13.88-6.21,13.88-13.88,13.88Z"/>
  <path class="cls-1" d="M170.59,40.82h-9.91v39.66h9.91c3.29,0,5.95-2.66,5.95-5.95v-27.76c0-3.29-2.66-5.95-5.95-5.95Z"/>
</svg>