<?xml version="1.0" encoding="UTF-8"?>
<svg id="Layer_1" data-name="Layer 1" xmlns="http://www.w3.org/2000/svg" viewBox="0 0 200 200">
  <defs>
    <style>
      .cls-1 {
        fill: #fff;
        stroke-width: 0px;
      }
    </style>
  </defs>
  <path class="cls-1" d="M124.75,27.01h-49.51c-7.7,0-13.95,6.24-13.95,13.95v8.25c0,1.14.92,2.06,2.06,2.06h9.82c1.14,0,2.06-.92,2.06-2.06v-8.25h49.51v8.25c0,1.14.92,2.06,2.06,2.06h9.82c1.14,0,2.06-.92,2.06-2.06v-8.25c0-7.7-6.24-13.95-13.95-13.95Z"/>
  <path class="cls-1" d="M161.89,61.59H38.11c-9.11,0-16.5,7.39-16.5,16.5v78.39c0,9.11,7.39,16.5,16.5,16.5h123.77c9.11,0,16.5-7.39,16.5-16.5v-78.39c0-9.11-7.39-16.5-16.5-16.5ZM87.59,102.88l-26.75,26.75c-1.48,1.48-3.87,1.48-5.35,0l-13.9-13.9c-1.48-1.48-1.48-3.87,0-5.34l26.75-26.75c1.48-1.48,3.87-1.48,5.35,0l13.9,13.9c1.48,1.48,1.48,3.87,0,5.35ZM128.88,152.36c-9.11,0-16.5-7.39-16.5-16.5s7.39-16.5,16.5-16.5,16.5,7.39,16.5,16.5-7.39,16.5-16.5,16.5Z"/>
</svg>