<?xml version="1.0" encoding="UTF-8"?>
<svg id="Layer_1" data-name="Layer 1" xmlns="http://www.w3.org/2000/svg" viewBox="0 0 200 200">
  <defs>
    <style>
      .cls-1 {
        fill: #fff;
        stroke-width: 0px;
      }
    </style>
  </defs>
  <path class="cls-1" d="M124.87,170.54h-41.49c-4.58,0-8.3,3.72-8.3,8.3s3.72,8.3,8.3,8.3h41.49c4.58,0,8.3-3.72,8.3-8.3s-3.72-8.3-8.3-8.3Z"/>
  <path class="cls-1" d="M97.74,17.35c-30.8,3.27-54.02,32.91-51.34,63.77,3.52,40.43,40.7,70.58,53.44,79.79,2.52,1.82,5.91,1.76,8.37-.15,13.23-10.33,53.85-45.35,53.85-85.78,0-34.1-29.45-61.33-64.31-57.62ZM104.09,97.97c-12.7,0-23-10.3-23-23s10.3-23,23-23,23,10.3,23,23-10.3,23-23,23Z"/>
</svg>