<?xml version="1.0" encoding="UTF-8"?>
<svg id="Layer_1" data-name="Layer 1" xmlns="http://www.w3.org/2000/svg" viewBox="0 0 200 200">
  <defs>
    <style>
      .cls-1 {
        fill: #a7a9ac;
        stroke-width: 0px;
      }
    </style>
  </defs>
  <path class="cls-1" d="M48.34,27.38c-.8-.8-2.09-.8-2.88,0l-20.76,20.76c-.8.8-.8,2.09,0,2.88l12.26,12.26c.8.8,2.09.8,2.88,0l20.76-20.76c.8-.8.8-2.09,0-2.88l-12.26-12.26ZM175.83,151.05c-1.08-14.67-13.98-22.92-21.7-37.02-.73-1.34-2.04-2.01-3.36-2.01s-2.63.67-3.36,2.01c-7.72,14.1-20.62,22.35-21.7,37.02-1.08,14.69,11.03,26.61,25.06,26.61s26.13-11.93,25.06-26.61ZM145.31,160.11c-4.24,0-7.68-3.44-7.68-7.68s3.44-7.68,7.68-7.68,7.68,3.44,7.68,7.68-3.44,7.68-7.68,7.68Z"/>
  <path class="cls-1" d="M135.8,22.33h-31.48c-4.67,0-9.16,1.84-12.48,5.13l-51.25,50.7c-3.37,3.33-5.27,7.88-5.27,12.62v5c-3.08.32-5.49,2.89-5.49,6.05s2.41,5.73,5.49,6.05v.07h7.52c3.38,0,6.12,2.74,6.12,6.12s-2.72,6.09-6.08,6.11h-6.93s-.03,0-.04,0h-.59v.06c-3.08.32-5.49,2.89-5.49,6.05s2.41,5.73,5.49,6.05v.07h7.52c3.38,0,6.12,2.74,6.12,6.12s-2.72,6.09-6.08,6.11h-6.93s-.03,0-.04,0h-.59v.06c-3.08.32-5.49,2.89-5.49,6.05s2.48,5.81,5.63,6.07c.72,9.14,8.28,16.36,17.61,16.36h69.04c-4.84-6.62-7.16-14.59-6.56-22.87.91-12.44,7.95-21.17,14.15-28.87,3.28-4.07,6.37-7.91,8.77-12.3,2.47-4.51,7.18-7.3,12.3-7.3.95,0,1.87.13,2.78.31v-62.06c0-9.8-7.95-17.75-17.75-17.75ZM137.24,54.95c0,2.25-1.83,4.08-4.08,4.08h-44c-1.82,0-2.73-2.2-1.44-3.48l15.71-15.71c.76-.76,1.8-1.19,2.88-1.19h26.85c2.25,0,4.08,1.83,4.08,4.08v12.23Z"/>
</svg>