<?xml version="1.0" encoding="UTF-8"?>
<svg id="Layer_1" data-name="Layer 1" xmlns="http://www.w3.org/2000/svg" viewBox="0 0 200 200">
  <defs>
    <style>
      .cls-1 {
        fill: #a7a9ac;
        stroke-width: 0px;
      }
    </style>
  </defs>
  <path class="cls-1" d="M147.38,94.62c2.97,0,5.38-2.41,5.38-5.38s-2.41-5.38-5.38-5.38h-17.13c.88,3.49,1.46,7.08,1.76,10.77h15.37ZM134.46,44.01c-8.96,0-17.41,2.16-24.92,5.91,7.23,6.36,13.05,14.26,17.01,23.17h8.99v-7.54c0-2.97,2.41-5.38,5.38-5.38s5.38,2.41,5.38,5.38v7.54h1.08c8.9,0,16.15,7.25,16.15,16.15,0,4.15-1.62,7.9-4.2,10.77,2.58,2.86,4.2,6.62,4.2,10.77,0,8.9-7.25,16.15-16.15,16.15h-1.08v7.54c0,2.97-2.41,5.38-5.38,5.38s-5.38-2.41-5.38-5.38v-7.54h-8.99c-3.96,8.9-9.78,16.81-17.01,23.17,7.51,3.75,15.96,5.91,24.92,5.91,30.92,0,55.99-25.07,55.99-55.99s-25.07-55.99-55.99-55.99ZM147.38,116.15c2.97,0,5.38-2.41,5.38-5.38s-2.41-5.38-5.38-5.38h-15.37c-.3,3.68-.88,7.28-1.76,10.77h17.13Z"/>
  <path class="cls-1" d="M65.54,44.01c-30.92,0-55.99,25.07-55.99,55.99s25.07,55.99,55.99,55.99,55.99-25.07,55.99-55.99-25.07-55.99-55.99-55.99ZM61.08,91.91l13.9,7.15c7.06,3.63,10.8,11.1,9.53,19.01-1.09,6.82-5.73,12.1-12.07,14.04v4.01c0,2.97-2.41,5.38-5.38,5.38s-5.38-2.41-5.38-5.38v-3.73c-6.79-1.51-12.61-6.11-15.49-12.73-1.19-2.73.06-5.9,2.79-7.08,2.73-1.19,5.9.07,7.08,2.79,1.96,4.5,6.57,7.22,11.44,6.8.22-.02.49-.05.75-.1,4.49-.71,5.44-4.55,5.63-5.71.41-2.57-.38-5.95-3.83-7.73l-13.9-7.15c-7.13-3.67-10.93-11.46-9.45-19.39,1.45-7.73,7.3-13.27,14.98-14.32v-3.9c0-2.97,2.41-5.38,5.38-5.38s5.38,2.41,5.38,5.38v5.19c5.5,2.08,10.03,6.23,12.45,11.8,1.19,2.73-.06,5.9-2.79,7.08-2.73,1.18-5.89-.07-7.08-2.79-1.96-4.51-6.57-7.27-11.44-6.8-4.96.52-6.06,4.51-6.29,5.72-.49,2.6.25,6.02,3.79,7.84Z"/>
</svg>