<?xml version="1.0" encoding="UTF-8"?>
<svg id="Layer_1" data-name="Layer 1" xmlns="http://www.w3.org/2000/svg" viewBox="0 0 200 200">
  <defs>
    <style>
      .cls-1 {
        fill: #a7a9ac;
        stroke-width: 0px;
      }
    </style>
  </defs>
  <path class="cls-1" d="M100,13.33c-23.16,0-41.99,18.84-41.99,41.99v13.56h17.78v-13.56c0-13.35,10.86-24.21,24.21-24.21s24.21,10.86,24.21,24.21v13.56h17.78v-13.56c0-23.16-18.84-41.99-41.99-41.99Z"/>
  <path class="cls-1" d="M148.89,80H51.11c-4.91,0-8.89,3.98-8.89,8.89v88.89c0,4.91,3.98,8.89,8.89,8.89h97.78c4.91,0,8.89-3.98,8.89-8.89v-88.89c0-4.91-3.98-8.89-8.89-8.89ZM111.56,160h-23.11c-3.25,0-5.4-3.37-4.03-6.32l7.26-15.64c.88-1.89.25-4.04-1.34-5.4-3.15-2.7-5.15-6.68-5.15-11.16,0-11.09,12.19-19.34,23.91-12.06,1.21.75,2.26,1.81,3.01,3.03,4.82,7.88,2.72,15.77-2.46,20.2-1.58,1.35-2.2,3.5-1.32,5.39l7.26,15.65c1.37,2.95-.78,6.32-4.03,6.32Z"/>
</svg>