<?xml version="1.0" encoding="UTF-8"?>
<svg id="Layer_1" data-name="Layer 1" xmlns="http://www.w3.org/2000/svg" viewBox="0 0 200 200">
  <defs>
    <style>
      .cls-1 {
        fill: #a7a9ac;
        stroke-width: 0px;
      }
    </style>
  </defs>
  <path class="cls-1" d="M131.94,42.68v-19.83c0-2.43-1.97-4.41-4.41-4.41H54.84c-2.43,0-4.41,1.97-4.41,4.41v19.83c0,1.22.99,2.2,2.2,2.2h77.1c1.22,0,2.2-.99,2.2-2.2ZM137.45,139.61c-12.17,0-22.03,9.86-22.03,22.03,0,4.08,1.18,7.85,3.12,11.13l30.04-30.04c-3.28-1.93-7.05-3.12-11.12-3.12ZM156.36,150.51l-30.04,30.04c3.28,1.93,7.05,3.12,11.12,3.12,12.17,0,22.03-9.86,22.03-22.03,0-4.08-1.18-7.85-3.12-11.13Z"/>
  <path class="cls-1" d="M124.74,77.98h-23.24c-3.04,0-5.51-2.47-5.51-5.51s2.47-5.51,5.51-5.51h22.73v-8.86c0-1.22-.99-2.2-2.2-2.2h-61.68c-1.22,0-2.2.99-2.2,2.2v19.83c-9.73,0-17.62,7.89-17.62,17.62v70.49c0,9.73,7.89,17.62,17.62,17.62h54.74c-5.26-5.85-8.48-13.56-8.48-22.03,0-18.22,14.82-33.04,33.04-33.04,1.5,0,2.96.13,4.41.33v-33.37c0-9.56-7.62-17.29-17.11-17.57ZM65.85,155.03c0,3.04-2.47,5.51-5.51,5.51s-5.51-2.47-5.51-5.51v-19.83c0-3.04,2.47-5.51,5.51-5.51s5.51,2.47,5.51,5.51v19.83ZM65.85,113.18c0,3.04-2.47,5.51-5.51,5.51s-5.51-2.47-5.51-5.51v-6.61c0-3.04,2.47-5.51,5.51-5.51s5.51,2.47,5.51,5.51v6.61Z"/>
</svg>