<?xml version="1.0" encoding="UTF-8"?>
<svg id="Layer_1" data-name="Layer 1" xmlns="http://www.w3.org/2000/svg" viewBox="0 0 200 200">
  <defs>
    <style>
      .cls-1 {
        fill: #a7a9ac;
        stroke-width: 0px;
      }
    </style>
  </defs>
  <path class="cls-1" d="M174.72,94.97c-.25-1.68-1.74-2.9-3.44-2.9h-7.11c-2.27-.65-4.08-2.43-4.84-4.79-1.34-4.18-3.11-8.17-5.25-11.92-.78-1.35-.59-3.03.51-4.13l5.69-5.69c1.21-1.21,1.4-3.16.37-4.53-4.36-5.86-9.56-11.06-15.4-15.44-1.37-1.03-3.33-.84-4.54.37l-5.7,5.7c-1.1,1.1-2.78,1.28-4.13.51-5.25-3-10.95-5.27-17.02-6.64,0,0,0,0,0,0v-10.73c0-1.7-1.23-3.19-2.91-3.44-3.57-.53-7.22-.84-10.94-.84s-7.37.3-10.94.84c-1.68.25-2.91,1.74-2.91,3.44v10.73s0,0,0,0c-6.06,1.38-11.77,3.64-17.02,6.64-1.35.78-3.03.59-4.13-.51l-5.7-5.7c-1.21-1.21-3.17-1.4-4.54-.37-5.85,4.38-11.04,9.58-15.4,15.44-1.02,1.37-.84,3.32.37,4.53l5.69,5.69c1.1,1.1,1.28,2.78.51,4.13-2.15,3.75-3.91,7.74-5.25,11.92-.75,2.36-2.57,4.13-4.84,4.79h-7.11c-1.7,0-3.19,1.22-3.44,2.9-.55,3.62-.86,7.33-.86,11.1s.31,7.48.86,11.1c.25,1.68,1.74,2.9,3.44,2.9h7.11c2.27.65,4.08,2.43,4.84,4.79,1.34,4.18,3.11,8.17,5.25,11.92.78,1.35.59,3.03-.51,4.13l-5.69,5.69c-1.21,1.21-1.4,3.16-.37,4.53,4.36,5.86,9.56,11.06,15.4,15.44,1.37,1.03,3.33.84,4.54-.37l5.7-5.7c1.1-1.1,2.78-1.28,4.13-.51,5.25,3,10.95,5.27,17.02,6.64,0,0,0,0,0,0v10.73c0,1.7,1.23,3.19,2.91,3.44,3.57.53,7.22.84,10.94.84s7.37-.3,10.94-.84c1.68-.25,2.91-1.74,2.91-3.44v-10.73s0,0,0,0c6.06-1.37,11.77-3.64,17.02-6.64,1.35-.78,3.03-.59,4.13.51l5.7,5.7c1.21,1.21,3.17,1.4,4.54.37,5.85-4.38,11.04-9.58,15.4-15.44,1.02-1.37.84-3.32-.37-4.53l-5.69-5.69c-1.1-1.1-1.28-2.78-.51-4.13,2.15-3.75,3.91-7.74,5.25-11.92.75-2.36,2.57-4.13,4.84-4.79h7.11c1.7,0,3.19-1.22,3.44-2.9.55-3.62.86-7.33.86-11.1s-.31-7.48-.86-11.1ZM140.42,112.55c-2.64,17.23-16.72,31.31-33.95,33.95-27.65,4.23-51.12-19.24-46.88-46.89,2.64-17.23,16.72-31.31,33.95-33.95,27.65-4.23,51.12,19.24,46.88,46.89Z"/>
</svg>