<?xml version="1.0" encoding="UTF-8"?>
<svg id="Layer_1" data-name="Layer 1" xmlns="http://www.w3.org/2000/svg" viewBox="0 0 200 200">
  <defs>
    <style>
      .cls-1 {
        fill: #a7a9ac;
        stroke-width: 0px;
      }
    </style>
  </defs>
  <path class="cls-1" d="M101.63,100.24c-2.48,0-4.92-.65-7.06-1.88l-24.23-13.92v15.09l24.72,14.2c2.77,1.59,6.17,1.59,8.94,0l25.93-14.9c2.79-1.6,4.5-4.57,4.5-7.78v-7.48l-25.73,14.79c-2.15,1.23-4.59,1.88-7.06,1.88ZM145.62,58.18l-39.9-22.92c-1.27-.73-2.68-1.09-4.09-1.09s-2.82.36-4.09,1.09l-39.9,22.92c-3,1.72-3,6.06,0,7.78l41.75,23.99c.69.4,1.46.6,2.23.6s1.54-.2,2.24-.6l41.75-23.99c3-1.72,3-6.06,0-7.78Z"/>
  <path class="cls-1" d="M173.21,37.08h-44.87l22.1,12.7c1.31.75,2.45,1.72,3.44,2.82h11.57v69.81H33.6V52.59h15.78c.99-1.1,2.13-2.06,3.44-2.82l22.1-12.7H25.84c-4.28,0-7.76,3.47-7.76,7.76v96.96c0,4.28,3.47,7.76,7.76,7.76h57.85l-2.91,17.45h-14.22c-3.21,0-5.82,2.6-5.82,5.82s2.61,5.82,5.82,5.82h65.93c3.21,0,5.82-2.6,5.82-5.82s-2.61-5.82-5.82-5.82h-14.22l-2.91-17.45h57.85c4.28,0,7.76-3.47,7.76-7.76V44.84c0-4.28-3.47-7.76-7.76-7.76ZM99.53,143.73c-3.21,0-5.82-2.6-5.82-5.82s2.6-5.82,5.82-5.82,5.82,2.6,5.82,5.82-2.6,5.82-5.82,5.82ZM52.99,75.11v20.51l-3.21,4.18c-.88,1.14-.88,2.73,0,3.87l4.2,5.47c1.27,1.66,3.78,1.66,5.05,0l4.2-5.47c.88-1.14.88-2.73,0-3.87l-2.48-3.23v-17.01l-7.76-4.46Z"/>
</svg>