<?xml version="1.0" encoding="UTF-8"?>
<svg id="Layer_1" data-name="Layer 1" xmlns="http://www.w3.org/2000/svg" viewBox="0 0 200 200">
  <defs>
    <style>
      .cls-1 {
        fill: #a7a9ac;
        stroke-width: 0px;
      }
    </style>
  </defs>
  <path class="cls-1" d="M139.76,58.88c-6.14-6.14-14.29-9.52-22.97-9.52s-16.84,3.38-22.98,9.52c-2.26,2.26-2.26,5.92,0,8.17,2.26,2.26,5.92,2.26,8.17,0,3.95-3.95,9.21-6.13,14.8-6.13s10.85,2.18,14.8,6.13c1.13,1.13,2.61,1.69,4.09,1.69s2.96-.56,4.09-1.69c2.26-2.26,2.26-5.92,0-8.17Z"/>
  <path class="cls-1" d="M156.8,38.31c-11.29-11.29-26.08-16.93-40.87-16.93s-29.59,5.64-40.87,16.93c-19.77,19.77-22.22,50.31-7.35,72.75l-10.63,10.63-1.64-1.64c-.9-.9-2.37-.9-3.27,0l-37.6,37.6c-1.81,1.81-1.81,4.73,0,6.54l13.08,13.08c1.81,1.81,4.73,1.81,6.54,0l37.6-37.6c.9-.9.9-2.37,0-3.27l-1.63-1.63,10.13-10.13c10.44,8.21,23.03,12.35,35.65,12.35,14.79,0,29.59-5.64,40.87-16.93,22.57-22.57,22.57-59.17,0-81.74ZM143.72,106.97c-7.42,7.42-17.29,11.51-27.79,11.51s-20.37-4.09-27.79-11.51c-7.42-7.42-11.51-17.29-11.51-27.79s4.09-20.37,11.51-27.79c7.42-7.42,17.29-11.51,27.79-11.51s20.37,4.09,27.79,11.51c7.42,7.42,11.51,17.29,11.51,27.79s-4.09,20.37-11.51,27.79Z"/>
</svg>