<?xml version="1.0" encoding="UTF-8"?>
<svg id="Layer_1" data-name="Layer 1" xmlns="http://www.w3.org/2000/svg" viewBox="0 0 200 200">
  <defs>
    <style>
      .cls-1 {
        fill: #fff;
        stroke-width: 0px;
      }
    </style>
  </defs>
  <path class="cls-1" d="M107.08,36.85l18.82-8.06c2.83-1.21,2.83-5.22,0-6.43l-18.82-8.06c-2.31-.99-4.88.7-4.88,3.21v16.13c0,2.51,2.57,4.2,4.88,3.21ZM172.26,98.7c0-2.96-1.47-5.72-3.91-7.38l-61.3-41.51c-2.94-1.99-6.79-2.05-9.79-.14L31.86,91.34c-2.57,1.64-4.12,4.47-4.12,7.52v13.4c0,7.37,6,13.37,13.37,13.37h1.04c7.37,0,13.37-6,13.37-13.37v-7.8c0-3.08,2.49-5.57,5.57-5.57s5.57,2.49,5.57,5.57v7.8c0,7.37,6,13.37,13.37,13.37h1.04c7.26,0,13.15-5.82,13.34-13.03,0-.13-.07-.24-.07-.37v-7.77c0-3.08,2.49-5.57,5.57-5.57s5.57,2.49,5.57,5.57l.11,7.8c0,7.37,6,13.37,13.37,13.37h1.04c7.37,0,13.37-6,13.37-13.37v-7.8c0-3.08,2.49-5.57,5.57-5.57s5.57,2.49,5.57,5.57v7.8c0,7.37,6,13.37,13.37,13.37h1.04c7.37,0,13.37-6,13.37-13.37v-13.56Z"/>
  <path class="cls-1" d="M158.38,136.77c-7.62,0-14.96-3.5-19.46-8.97-4.5,5.47-11.84,8.97-19.46,8.97-2.5,0-5.42-.38-7.69-1.08,2.41,20,9.44,38.24,14.36,49.04.36.79,1.15,1.27,2.02,1.27h36.47c1.23,0,2.23-1,2.23-2.23v-48.35c-2.5.86-5.68,1.35-8.47,1.35ZM61.09,127.79c-4.5,5.47-11.84,8.97-19.46,8.97-2.79,0-5.97-.49-8.47-1.35v48.35c0,1.23,1,2.23,2.23,2.23h36.47c.87,0,1.66-.48,2.02-1.27,4.92-10.8,11.95-29.04,14.36-49.04-2.27.7-5.2,1.08-7.69,1.08-7.62,0-14.96-3.5-19.46-8.97Z"/>
</svg>