<?xml version="1.0" encoding="UTF-8"?>
<svg id="Layer_1" data-name="Layer 1" xmlns="http://www.w3.org/2000/svg" viewBox="0 0 200 200">
  <defs>
    <style>
      .cls-1 {
        stroke-width: 0px;
      }
    </style>
  </defs>
  <path class="cls-1" d="M146.47,95.96h26.65v-23.88c0-4.65-3.77-8.42-8.42-8.42h-55.92c-1.6,25.25-22.59,45.31-48.24,45.31-9.7,0-18.72-2.9-26.3-7.83v59.3c0,9.3,7.54,16.83,16.83,16.83h113.62c4.65,0,8.42-3.77,8.42-8.42v-21.01h-26.65c-14.31,0-25.95-11.64-25.95-25.95s11.64-25.95,25.95-25.95ZM160.49,51.04v-8.42c0-4.65-3.77-8.42-8.42-8.42h-51.01c3.29,5.05,5.69,10.73,6.92,16.83h52.51Z"/>
  <path class="cls-1" d="M60.55,22.71c-20.92,0-37.87,16.96-37.87,37.87s16.96,37.87,37.87,37.87,37.87-16.96,37.87-37.87-16.96-37.87-37.87-37.87ZM58.71,53.33l8.56,4.4c5.11,2.63,7.82,8.02,6.9,13.74-.71,4.44-3.51,7.96-7.4,9.66v1.14c0,2.91-2.35,5.26-5.26,5.26s-5.26-2.35-5.26-5.26v-.8c-4.1-1.37-7.57-4.4-9.38-8.55-1.16-2.67.06-5.76,2.72-6.92,2.69-1.16,5.77.07,6.92,2.72.87,2,2.93,3.24,5.09,3.02,1.64-.25,2.05-1.19,2.17-1.94.07-.44.18-1.94-1.33-2.72l-8.56-4.4c-5.16-2.66-7.91-8.29-6.83-14.02.94-5.03,4.45-8.8,9.19-10.07v-2.1c0-2.91,2.35-5.26,5.26-5.26s5.26,2.35,5.26,5.26v3.25c3.29,1.59,5.98,4.26,7.5,7.75,1.16,2.67-.07,5.76-2.73,6.92-2.67,1.15-5.77-.07-6.92-2.73-.87-2-2.97-3.22-5.08-3.02-1.58.17-2.01,1.29-2.13,1.94-.1.57-.19,1.96,1.31,2.73ZM175.22,106.48h-28.76c-8.52,0-15.43,6.91-15.43,15.43s6.91,15.43,15.43,15.43h28.76c1.16,0,2.1-.94,2.1-2.1v-26.65c0-1.16-.94-2.1-2.1-2.1ZM149.97,128.22c-3.49,0-6.31-2.83-6.31-6.31s2.83-6.31,6.31-6.31,6.31,2.83,6.31,6.31-2.83,6.31-6.31,6.31Z"/>
</svg>