<?xml version="1.0" encoding="UTF-8"?>
<svg id="Layer_1" data-name="Layer 1" xmlns="http://www.w3.org/2000/svg" viewBox="0 0 200 200">
  <defs>
    <style>
      .cls-1 {
        fill: #a7a9ac;
        stroke-width: 0px;
      }
    </style>
  </defs>
  <path class="cls-1" d="M174.73,130.65v-23.6l-57.4-36.64,1.3-24.69c.56-10.68-7.94-27.51-18.63-27.51s-19.2,16.83-18.63,27.51l1.3,24.69-57.4,36.64v23.6l59.59-18.62,2.34,44.48-22.6,9.54v15.73h70.8v-15.73l-22.6-9.54,2.34-44.48,59.59,18.62Z"/>
  <path class="cls-1" d="M168.48,137.8l-37.37-12.95c-2.56-.88-5.36.47-6.26,3.04-.89,2.57.47,5.37,3.04,6.26l37.37,12.95c.53.18,1.08.27,1.61.27,2.04,0,3.94-1.28,4.65-3.31.89-2.57-.47-5.37-3.04-6.26ZM68.89,124.85l-37.37,12.95c-2.57.89-3.93,3.69-3.04,6.26.7,2.03,2.61,3.31,4.65,3.31.53,0,1.08-.09,1.61-.27l37.37-12.95c2.57-.89,3.93-3.69,3.04-6.26-.89-2.57-3.69-3.92-6.26-3.04Z"/>
</svg>