<?xml version="1.0" encoding="UTF-8"?>
<svg id="Layer_1" data-name="Layer 1" xmlns="http://www.w3.org/2000/svg" viewBox="0 0 200 200">
  <defs>
    <style>
      .cls-1 {
        fill: #a7a9ac;
        stroke-width: 0px;
      }
    </style>
  </defs>
  <path class="cls-1" d="M150.87,31.47h-16.28c-4.5,0-8.14,3.64-8.14,8.14s-3.64,8.14-8.14,8.14-8.14-3.64-8.14-8.14-3.64-8.14-8.14-8.14h-20.35c-4.5,0-8.14,3.64-8.14,8.14s-3.64,8.14-8.14,8.14-8.14-3.64-8.14-8.14-3.64-8.14-8.14-8.14h-16.28c-4.5,0-8.14,3.64-8.14,8.14v101.75c0,4.5,3.64,8.14,8.14,8.14h61.7c-2.17-5.44-3.4-11.37-3.4-17.59,0-26.25,21.28-47.52,47.52-47.52,7.29,0,14.17,1.69,20.35,4.63v-49.4c0-4.5-3.64-8.14-8.14-8.14ZM49.13,129.87c-4.5,0-8.14-3.64-8.14-8.14s3.64-8.14,8.14-8.14,8.14,3.64,8.14,8.14-3.64,8.14-8.14,8.14ZM49.13,105.45c-4.5,0-8.14-3.64-8.14-8.14s3.64-8.14,8.14-8.14,8.14,3.64,8.14,8.14-3.64,8.14-8.14,8.14ZM73.55,129.87c-4.5,0-8.14-3.64-8.14-8.14s3.64-8.14,8.14-8.14,8.14,3.64,8.14,8.14-3.64,8.14-8.14,8.14ZM73.55,105.45c-4.5,0-8.14-3.64-8.14-8.14s3.64-8.14,8.14-8.14,8.14,3.64,8.14,8.14-3.64,8.14-8.14,8.14ZM73.55,81.03c-4.5,0-8.14-3.64-8.14-8.14s3.64-8.14,8.14-8.14,8.14,3.64,8.14,8.14-3.64,8.14-8.14,8.14ZM97.97,81.03c-4.5,0-8.14-3.64-8.14-8.14s3.64-8.14,8.14-8.14,8.14,3.64,8.14,8.14-3.64,8.14-8.14,8.14Z"/>
  <path class="cls-1" d="M138.66,95.28c-20.23,0-36.63,16.4-36.63,36.63s16.4,36.63,36.63,36.63,36.63-16.4,36.63-36.63-16.4-36.63-36.63-36.63ZM143.75,133.94c0,2.81-2.28,5.09-5.09,5.09h-20.35c-2.81,0-5.09-2.28-5.09-5.09s2.28-5.09,5.09-5.09h15.26v-19.33c0-2.81,2.28-5.09,5.09-5.09s5.09,2.28,5.09,5.09v24.42Z"/>
</svg>