<?xml version="1.0" encoding="UTF-8"?>
<svg id="Layer_1" data-name="Layer 1" xmlns="http://www.w3.org/2000/svg" viewBox="0 0 200 200">
  <defs>
    <style>
      .cls-1 {
        fill: #a7a9ac;
        stroke-width: 0px;
      }
    </style>
  </defs>
  <path class="cls-1" d="M100,14.47C52.84,14.47,14.47,52.84,14.47,100s38.37,85.53,85.53,85.53,85.53-38.37,85.53-85.53S147.16,14.47,100,14.47ZM100,167.04c-36.96,0-67.04-30.07-67.04-67.04S63.04,32.96,100,32.96s67.04,30.07,67.04,67.04-30.07,67.04-67.04,67.04Z"/>
  <path class="cls-1" d="M102.31,75.98c8.68,0,15.72-7.04,15.72-15.72s-7.04-15.72-15.72-15.72-15.72,7.04-15.72,15.72,7.04,15.72,15.72,15.72ZM117.58,108.07c2.65-11.27-5.9-22.06-17.48-22.06h-13.56c-2.55,0-4.62,2.07-4.62,4.62,0,.99.45,1.91,1.15,2.66,2.28,2.45,3.48,5.71,2.69,8.96l-7.06,28.86c-2.65,11.27,5.9,22.06,17.48,22.06h13.56c2.55,0,4.62-2.07,4.62-4.62,0-.99-.45-1.91-1.15-2.66-2.28-2.45-3.48-5.71-2.69-8.96l7.06-28.86Z"/>
</svg>