<?xml version="1.0" encoding="UTF-8"?>
<svg id="Layer_1" data-name="Layer 1" xmlns="http://www.w3.org/2000/svg" viewBox="0 0 200 200">
  <defs>
    <style>
      .cls-1 {
        fill: #fff;
        stroke-width: 0px;
      }
    </style>
  </defs>
  <path class="cls-1" d="M125.82,41.07c-14.58-.67-27.43,6.8-34.51,18.23-7.65-12.37-22.07-20.1-38.12-17.9-19.73,2.71-33.62,19.81-32.99,39.71.14,4.41.84,8.76,1.97,13.03h24.14l6-22.86c.7-2.68,3.12-4.56,5.89-4.57,2.79.05,5.21,1.83,5.95,4.5l10.63,38.52,9.52-28.09c.8-2.38,2.98-4.02,5.49-4.15,2.5-.13,4.84,1.28,5.89,3.56l6.01,13.1h26.4c3.39,0,6.13,2.75,6.13,6.13s-2.74,6.13-6.13,6.13h-30.33c-2.4,0-4.57-1.4-5.57-3.57l-1.22-2.66-10.98,32.39c-.84,2.49-3.18,4.16-5.8,4.16-.06,0-.12,0-.18,0-2.69-.08-5.02-1.9-5.73-4.49l-9.88-35.81-1.42,5.41c-.71,2.69-3.14,4.57-5.93,4.57H13.69c-3.39,0-6.13,2.75-6.13,6.13s2.74,6.13,6.13,6.13h19.96c17.7,26.67,47.51,46.69,55.59,51.82,1.29.82,2.89.85,4.21.08,11.41-6.66,64.79-40.18,68.77-85.71,1.94-22.23-14.11-42.74-36.4-43.77Z"/>
  <path class="cls-1" d="M181.2,94.15h-8.17c-3.39,0-6.13,2.75-6.13,6.13s2.74,6.13,6.13,6.13h8.17c3.39,0,6.13-2.75,6.13-6.13s-2.74-6.13-6.13-6.13Z"/>
</svg>