<?xml version="1.0" encoding="UTF-8"?>
<svg id="Layer_1" data-name="Layer 1" xmlns="http://www.w3.org/2000/svg" viewBox="0 0 200 200">
  <defs>
    <style>
      .cls-1 {
        fill: #fff;
        stroke-width: 0px;
      }
    </style>
  </defs>
  <path class="cls-1" d="M91.83,170.08c-.84-.84-2.2-.85-3.04-.01-1.41,1.4-3.42,3.41-4.38,4.37-.36.36-.57.83-.6,1.34l-1.07,13.96c-.1,1.35,1.05,2.46,2.4,2.31l13.41-1.54c.48-.06.93-.27,1.28-.62l4.38-4.38c.84-.84.84-2.21,0-3.05l-12.37-12.37ZM149.72,136.94l-12.37-12.37c-.84-.84-2.21-.84-3.05,0l-34.65,34.65c-.84.84-.84,2.21,0,3.05l12.37,12.37c.84.84,2.21.84,3.05,0l34.65-34.65c.84-.84.84-2.21,0-3.05ZM140.42,48.83c0-4.76-3.86-8.63-8.63-8.63h-4.68c-1.19,0-2.16.97-2.16,2.16v12.94c0,1.19-.97,2.16-2.16,2.16H49.81c-1.19,0-2.16-.97-2.16-2.16v-12.94c0-1.19-.97-2.16-2.16-2.16h-4.27c-4.76,0-8.63,3.86-8.63,8.63v112.13c0,4.76,3.86,8.63,8.63,8.63h33.52c.56-.99,1.21-1.93,2.02-2.75,1.56-1.57,5.92-5.91,5.92-5.91l57.73-57.73v-54.37ZM90.82,110.83h-30.19c-2.98,0-5.39-2.41-5.39-5.39s2.41-5.39,5.39-5.39h30.19c2.98,0,5.39,2.41,5.39,5.39s-2.41,5.39-5.39,5.39ZM112.39,89.27h-51.75c-2.98,0-5.39-2.41-5.39-5.39s2.41-5.39,5.39-5.39h51.75c2.98,0,5.39,2.41,5.39,5.39s-2.41,5.39-5.39,5.39Z"/>
  <path class="cls-1" d="M102.77,26.08c-3.19-1.08-5.53-4.05-5.48-7.42.09-5.9-4.67-10.71-10.56-10.71h-.45c-5.71,0-10.78,4.54-10.56,10.25.14,3.56-2.1,6.75-5.45,7.88-6.85,2.31-11.84,4.44-11.84,12.06v6.47c0,1.19.97,2.16,2.16,2.16h51.79c1.19,0,2.16-.97,2.16-2.16v-6.47c0-7.61-4.94-9.74-11.77-12.05ZM166.77,119.89l-12.37-12.37c-.84-.84-2.21-.84-3.05,0l-6.5,6.5c-.84.84-.84,2.21,0,3.05l12.37,12.37c.84.84,2.21.84,3.05,0l6.5-6.5c.84-.84.84-2.21,0-3.05Z"/>
</svg>