<?xml version="1.0" encoding="UTF-8"?>
<svg id="Layer_1" data-name="Layer 1" xmlns="http://www.w3.org/2000/svg" viewBox="0 0 200 200">
  <defs>
    <style>
      .cls-1 {
        fill: #fff;
        stroke-width: 0px;
      }
    </style>
  </defs>
  <path class="cls-1" d="M165.82,85.37l-11.39-39.88c-2.08-7.29-8.74-12.31-16.32-12.31H61.89c-7.58,0-14.24,5.02-16.32,12.31l-11.39,39.88c-6.18,2.53-10.54,8.6-10.54,15.69v40.3c0,1.17.95,2.12,2.12,2.12h2.12v14.85c0,4.69,3.8,8.49,8.49,8.49h8.49c4.69,0,8.49-3.8,8.49-8.49v-12.73c0-1.17.95-2.12,2.12-2.12h89.09c1.17,0,2.12.95,2.12,2.12v12.73c0,4.69,3.8,8.49,8.49,8.49h8.49c4.69,0,8.49-3.8,8.49-8.49v-14.85h2.12c1.17,0,2.12-.95,2.12-2.12v-40.3c0-7.1-4.36-13.16-10.54-15.69ZM60.45,54.85c.79-3.97,4.28-6.82,8.32-6.82h62.45c4.04,0,7.53,2.85,8.32,6.82l5.34,26.7c.26,1.31-.74,2.54-2.08,2.54H57.19c-1.34,0-2.34-1.22-2.08-2.54l5.34-26.7ZM53.33,126.52c-7.03,0-12.73-5.7-12.73-12.73s5.7-12.73,12.73-12.73,12.73,5.7,12.73,12.73-5.7,12.73-12.73,12.73ZM112.73,120.15h-25.46c-3.52,0-6.36-2.85-6.36-6.36s2.85-6.36,6.36-6.36h25.46c3.52,0,6.36,2.85,6.36,6.36s-2.85,6.36-6.36,6.36ZM146.67,126.52c-7.03,0-12.73-5.7-12.73-12.73s5.7-12.73,12.73-12.73,12.73,5.7,12.73,12.73-5.7,12.73-12.73,12.73Z"/>
  <path class="cls-1" d="M106.36,57.57h-12.73c-3.52,0-6.36,2.85-6.36,6.36s2.85,6.36,6.36,6.36h12.73c3.52,0,6.36-2.85,6.36-6.36s-2.85-6.36-6.36-6.36Z"/>
</svg>