<?xml version="1.0" encoding="UTF-8"?>
<svg id="Layer_1" data-name="Layer 1" xmlns="http://www.w3.org/2000/svg" viewBox="0 0 200 200">
  <defs>
    <style>
      .cls-1 {
        fill: #a7a9ac;
        stroke-width: 0px;
      }
    </style>
  </defs>
  <path class="cls-1" d="M133.97,111.4c-22.02,0-39.86,17.85-39.86,39.86s17.85,39.86,39.86,39.86,39.86-17.85,39.86-39.86-17.85-39.86-39.86-39.86ZM132.02,144.21l9.01,4.63c5.38,2.77,8.23,8.44,7.26,14.47-.75,4.67-3.69,8.38-7.79,10.17v1.2c0,3.06-2.48,5.54-5.54,5.54s-5.54-2.48-5.54-5.54v-.84c-4.32-1.44-7.97-4.63-9.87-9.01-1.22-2.81.07-6.07,2.87-7.28,2.81-1.22,6.07.07,7.28,2.87.92,2.11,3.05,3.35,5.35,3.18,1.73-.26,2.17-1.25,2.29-2.04.07-.47.19-2.05-1.4-2.87l-9.01-4.63c-5.43-2.79-8.32-8.73-7.19-14.76.99-5.29,4.68-9.26,9.67-10.6v-.83c0-3.06,2.48-5.54,5.54-5.54s5.54,2.48,5.54,5.54v2.05c3.46,1.67,6.3,4.47,7.89,8.14,1.22,2.8-.07,6.07-2.87,7.29-2.82,1.22-6.06-.06-7.29-2.87-.92-2.11-3.07-3.38-5.35-3.19-1.67.18-2.12,1.35-2.24,2.04-.11.6-.2,2.07,1.38,2.88Z"/>
  <path class="cls-1" d="M144.03,23.97l-9.81,5.35c-1.32.72-2.92.72-4.24,0l-14.24-7.76c-1.32-.72-2.92-.72-4.24,0l-14.21,7.76c-1.32.72-2.92.72-4.25,0l-14.2-7.76c-1.32-.72-2.92-.72-4.25,0l-14.2,7.76c-1.32.72-2.93.72-4.25,0l-9.75-5.33c-2.95-1.61-6.56.52-6.56,3.89v141.95c0,3.36,3.6,5.5,6.55,3.89l9.81-5.35c1.32-.72,2.92-.72,4.24,0l14.24,7.76c1.32.72,2.92.72,4.24,0l8.34-4.56c-2.72-6.22-4.24-13.08-4.24-20.29,0-28.09,22.85-50.94,50.94-50.94,5.82,0,11.4,1.03,16.61,2.84V27.86c0-3.36-3.6-5.5-6.55-3.89ZM68.63,131.54h-6.64c-3.06,0-5.54-2.48-5.54-5.54s2.48-5.54,5.54-5.54h6.64c3.06,0,5.54,2.48,5.54,5.54s-2.48,5.54-5.54,5.54ZM81.6,109.4h-19.62c-3.06,0-5.54-2.48-5.54-5.54s2.48-5.54,5.54-5.54h19.62c3.06,0,5.54,2.48,5.54,5.54s-2.48,5.54-5.54,5.54ZM127.35,87.25H61.99c-3.06,0-5.54-2.48-5.54-5.54s2.48-5.54,5.54-5.54h65.36c3.06,0,5.54,2.48,5.54,5.54s-2.48,5.54-5.54,5.54ZM127.35,65.1H61.99c-3.06,0-5.54-2.48-5.54-5.54s2.48-5.54,5.54-5.54h65.36c3.06,0,5.54,2.48,5.54,5.54s-2.48,5.54-5.54,5.54Z"/>
</svg>