<?xml version="1.0" encoding="UTF-8"?>
<svg id="Layer_1" data-name="Layer 1" xmlns="http://www.w3.org/2000/svg" viewBox="0 0 200 200">
  <defs>
    <style>
      .cls-1 {
        fill: #fff;
        stroke-width: 0px;
      }
    </style>
  </defs>
  <path class="cls-1" d="M112.41,94.88v-4.14c0-1.14-.93-2.07-2.07-2.07h-20.69c-1.14,0-2.07.93-2.07,2.07v4.14c0,1.07.82,1.91,1.85,2.03v49.75c-1.04.11-1.85.96-1.85,2.03v4.14c0,1.14.93,2.07,2.07,2.07h20.69c1.14,0,2.07-.93,2.07-2.07v-4.14c0-1.07-.82-1.91-1.85-2.03v-49.75c1.04-.11,1.85-.96,1.85-2.03Z"/>
  <path class="cls-1" d="M168.28,165.22H31.72c-2.29,0-4.14,1.85-4.14,4.14v12.41c0,1.14.93,2.07,2.07,2.07h140.7c1.14,0,2.07-.93,2.07-2.07v-12.41c0-2.29-1.85-4.14-4.14-4.14ZM46.2,148.67v4.14c0,1.14.93,2.07,2.07,2.07h20.69c1.14,0,2.07-.93,2.07-2.07v-4.14c0-1.14-.93-2.07-2.07-2.07v-49.66c1.14,0,2.07-.93,2.07-2.07v-4.14c0-1.14-.93-2.07-2.07-2.07h-20.69c-1.14,0-2.07.93-2.07,2.07v4.14c0,1.14.93,2.07,2.07,2.07v49.66c-1.14,0-2.07.93-2.07,2.07ZM170.33,60.58L102.05,21.56c-1.27-.73-2.83-.73-4.11,0L29.67,60.58c-1.29.74-2.09,2.11-2.09,3.59v12.08c0,1.14.93,2.07,2.07,2.07h140.7c1.14,0,2.07-.93,2.07-2.07v-12.08c0-1.49-.8-2.86-2.09-3.59ZM100,66.94c-6.57,0-11.9-5.33-11.9-11.9s5.33-11.9,11.9-11.9,11.9,5.33,11.9,11.9-5.33,11.9-11.9,11.9ZM128.97,148.67v4.14c0,1.14.93,2.07,2.07,2.07h20.69c1.14,0,2.07-.93,2.07-2.07v-4.14c0-1.14-.93-2.07-2.07-2.07v-49.66c1.14,0,2.07-.93,2.07-2.07v-4.14c0-1.14-.93-2.07-2.07-2.07h-20.69c-1.14,0-2.07.93-2.07,2.07v4.14c0,.99.71,1.78,1.64,1.98v49.83c-.93.2-1.64.99-1.64,1.98Z"/>
</svg>