<?xml version="1.0" encoding="UTF-8"?>
<svg id="Layer_1" data-name="Layer 1" xmlns="http://www.w3.org/2000/svg" viewBox="0 0 200 200">
  <defs>
    <style>
      .cls-1 {
        fill: #fff;
        stroke-width: 0px;
      }
    </style>
  </defs>
  <circle class="cls-1" cx="78.7" cy="156.16" r="11.62"/>
  <path class="cls-1" d="M49.99,150.35h-13.89c-3.21,0-5.81,2.6-5.81,5.81s2.6,5.81,5.81,5.81h13.89c3.13,0,5.48-2.62,5.47-5.75v-.12c0-3.13-2.34-5.75-5.47-5.75ZM160.03,32.22H39.97c-6.42,0-11.62,5.2-11.62,11.62v77.46c0,6.42,5.2,11.62,11.62,11.62h120.07c6.42,0,11.62-5.2,11.62-11.62V43.84c0-6.42-5.2-11.62-11.62-11.62ZM123.49,85.58l-33.57,20.56c-2.35,1.44-5.37-.25-5.37-3.01v-41.12c0-2.76,3.02-4.45,5.37-3.01l33.57,20.56c2.25,1.38,2.25,4.64,0,6.02ZM163.91,150.35h-56.5c-3.13,0-5.48,2.62-5.47,5.75v.12c0,3.13,2.34,5.75,5.47,5.75h56.5c3.21,0,5.81-2.6,5.81-5.81s-2.6-5.81-5.81-5.81Z"/>
</svg>