<?xml version="1.0" encoding="UTF-8"?>
<svg id="Layer_1" data-name="Layer 1" xmlns="http://www.w3.org/2000/svg" viewBox="0 0 200 200">
  <defs>
    <style>
      .cls-1 {
        fill: #fff;
        stroke-width: 0px;
      }
    </style>
  </defs>
  <path class="cls-1" d="M114.86,36.1c-5.64,0-10.22,4.58-10.22,10.22v59.46c0,2.57-2.08,4.64-4.64,4.64s-4.64-2.08-4.64-4.64v-59.46c0-5.64-4.58-10.22-10.22-10.22h-45.52v98.47h40.59c7.29,0,14.2,2.4,19.8,6.81,5.59-4.41,12.51-6.81,19.79-6.81h40.59V36.1h-45.52ZM68.41,101.13h-14.86c-2.57,0-4.64-2.08-4.64-4.64s2.08-4.64,4.64-4.64h14.86c2.57,0,4.64,2.08,4.64,4.64s-2.08,4.64-4.64,4.64ZM79.56,82.55h-26.01c-2.57,0-4.64-2.08-4.64-4.64s2.08-4.64,4.64-4.64h26.01c2.57,0,4.64,2.08,4.64,4.64s-2.08,4.64-4.64,4.64ZM79.56,63.97h-26.01c-2.57,0-4.64-2.08-4.64-4.64s2.08-4.64,4.64-4.64h26.01c2.57,0,4.64,2.08,4.64,4.64s-2.08,4.64-4.64,4.64Z"/>
  <path class="cls-1" d="M174.32,46.32c-3.08,0-5.57,2.49-5.57,5.57v91.04h-46.12c-8.31,0-16.21,2.77-22.62,7.86-6.42-5.09-14.32-7.86-22.63-7.86H31.25V51.89c0-3.08-2.5-5.57-5.57-5.57s-5.57,2.49-5.57,5.57v91.71c0,5.78,4.7,10.48,10.48,10.48h46.78c6.73,0,13.06,2.61,17.84,7.34l.87.86c1.09,1.08,2.51,1.62,3.93,1.62s2.84-.54,3.92-1.62l.87-.86c4.77-4.73,11.1-7.34,17.83-7.34h46.79c5.78,0,10.48-4.7,10.48-10.48V51.89c0-3.08-2.5-5.57-5.57-5.57Z"/>
</svg>