<?xml version="1.0" encoding="UTF-8"?>
<svg id="Layer_1" data-name="Layer 1" xmlns="http://www.w3.org/2000/svg" viewBox="0 0 200 200">
  <defs>
    <style>
      .cls-1 {
        fill: #fff;
        stroke-width: 0px;
      }
    </style>
  </defs>
  <path class="cls-1" d="M80.84,152.37c-6.59,0-11.94,5.35-11.94,11.94s5.35,11.94,11.94,11.94,11.94-5.35,11.94-11.94-5.34-11.94-11.94-11.94ZM141.06,152.37c-6.59,0-11.94,5.35-11.94,11.94s5.35,11.94,11.94,11.94,11.94-5.35,11.94-11.94-5.34-11.94-11.94-11.94Z"/>
  <path class="cls-1" d="M167.94,46.48H62.88l-3.49-13.43c-1.01-5.34-5.75-9.3-11.22-9.3h-17.16c-4.01,0-7.27,3.25-7.27,7.27s3.25,7.27,7.27,7.27h14.72l19.66,75.66-7.82,17.99c-.98,2.24-.76,4.83.59,6.88,1.34,2.05,3.63,3.28,6.08,3.28h91.36c4.01,0,7.27-3.25,7.27-7.27s-3.25-7.27-7.27-7.27h-80.27l4.4-10.12c.05-.12.05-.25.09-.37h75.43c3.85,0,7.2-2.65,8.08-6.4l12.7-53.98c1.23-5.21-2.73-10.21-8.08-10.21ZM97.4,92.45c0,2.87-2.32,5.19-5.19,5.19s-5.19-2.32-5.19-5.19v-21.34c0-2.87,2.32-5.19,5.19-5.19s5.19,2.32,5.19,5.19v21.34ZM122.32,92.45c0,2.87-2.32,5.19-5.19,5.19s-5.19-2.32-5.19-5.19v-21.34c0-2.87,2.32-5.19,5.19-5.19s5.19,2.32,5.19,5.19v21.34ZM147.24,92.45c0,2.87-2.32,5.19-5.19,5.19s-5.19-2.32-5.19-5.19v-21.34c0-2.87,2.32-5.19,5.19-5.19s5.19,2.32,5.19,5.19v21.34Z"/>
</svg>