<?xml version="1.0" encoding="UTF-8"?>
<svg id="Layer_1" data-name="Layer 1" xmlns="http://www.w3.org/2000/svg" viewBox="0 0 200 200">
  <defs>
    <style>
      .cls-1 {
        fill: #fff;
        stroke-width: 0px;
      }
    </style>
  </defs>
  <path class="cls-1" d="M160.15,155.94H41.96c-3.5,0-6.33,2.83-6.33,6.33s2.84,6.33,6.33,6.33h118.19c3.5,0,6.33-2.83,6.33-6.33s-2.84-6.33-6.33-6.33Z"/>
  <path class="cls-1" d="M161.21,31.4h-16.88c-4.66,0-8.44,3.78-8.44,8.44s-3.78,8.44-8.44,8.44-8.44-3.78-8.44-8.44-3.78-8.44-8.44-8.44h-21.11c-4.66,0-8.44,3.78-8.44,8.44s-3.78,8.44-8.44,8.44-8.44-3.78-8.44-8.44-3.78-8.44-8.44-8.44h-16.88c-4.66,0-8.44,3.78-8.44,8.44v97.09c0,4.66,3.78,8.44,8.44,8.44h122.41c4.66,0,8.44-3.78,8.44-8.44V39.84c0-4.66-3.78-8.44-8.44-8.44ZM62.01,129.24c-4.66,0-8.44-3.78-8.44-8.44s3.78-8.44,8.44-8.44,8.44,3.78,8.44,8.44-3.78,8.44-8.44,8.44ZM62.01,103.91c-4.66,0-8.44-3.78-8.44-8.44s3.78-8.44,8.44-8.44,8.44,3.78,8.44,8.44-3.78,8.44-8.44,8.44ZM87.34,129.24c-4.66,0-8.44-3.78-8.44-8.44s3.78-8.44,8.44-8.44,8.44,3.78,8.44,8.44-3.78,8.44-8.44,8.44ZM87.34,103.91c-4.66,0-8.44-3.78-8.44-8.44s3.78-8.44,8.44-8.44,8.44,3.78,8.44,8.44-3.78,8.44-8.44,8.44ZM87.34,78.58c-4.66,0-8.44-3.78-8.44-8.44s3.78-8.44,8.44-8.44,8.44,3.78,8.44,8.44-3.78,8.44-8.44,8.44ZM112.66,129.24c-4.66,0-8.44-3.78-8.44-8.44s3.78-8.44,8.44-8.44,8.44,3.78,8.44,8.44-3.78,8.44-8.44,8.44ZM112.66,103.91c-4.66,0-8.44-3.78-8.44-8.44s3.78-8.44,8.44-8.44,8.44,3.78,8.44,8.44-3.78,8.44-8.44,8.44ZM112.66,78.58c-4.66,0-8.44-3.78-8.44-8.44s3.78-8.44,8.44-8.44,8.44,3.78,8.44,8.44-3.78,8.44-8.44,8.44ZM137.99,103.91c-4.66,0-8.44-3.78-8.44-8.44s3.78-8.44,8.44-8.44,8.44,3.78,8.44,8.44-3.78,8.44-8.44,8.44ZM137.99,78.58c-4.66,0-8.44-3.78-8.44-8.44s3.78-8.44,8.44-8.44,8.44,3.78,8.44,8.44-3.78,8.44-8.44,8.44Z"/>
</svg>