<?xml version="1.0" encoding="UTF-8"?>
<svg id="Layer_1" data-name="Layer 1" xmlns="http://www.w3.org/2000/svg" viewBox="0 0 200 200">
  <defs>
    <style>
      .cls-1 {
        stroke-width: 0px;
      }
    </style>
  </defs>
  <path class="cls-1" d="M111.59,86.09c0-2.56-2.08-4.64-4.64-4.64h-18.55c-2.56,0-4.64,2.08-4.64,4.64v64.92h27.82v-64.92ZM151.01,95.36c0-2.56-2.08-4.64-4.64-4.64h-18.55c-2.56,0-4.64,2.08-4.64,4.64v55.65h27.82v-55.65ZM169.56,162.6H30.44c-3.84,0-6.96,3.12-6.96,6.96s3.12,6.96,6.96,6.96h139.12c3.84,0,6.96-3.12,6.96-6.96s-3.12-6.96-6.96-6.96ZM72.18,109.27c0-2.56-2.08-4.64-4.64-4.64h-18.55c-2.56,0-4.64,2.08-4.64,4.64v41.74h27.82v-41.74Z"/>
  <path class="cls-1" d="M157.73,23.53l-20.85,2.98c-3.36.48-4.73,4.59-2.33,6.98l4.82,4.82-16.82,16.82-27.63-20.95c-2.56-1.94-6.12-1.87-8.62.17l-44.05,36.21c-2.97,2.44-3.4,6.82-.96,9.79,1.38,1.68,3.37,2.54,5.38,2.54,1.55,0,3.12-.52,4.41-1.58l39.81-32.72,28.09,21.3c2.76,2.1,6.66,1.84,9.12-.63l21.11-21.11,3.22,3.22c2.4,2.4,6.5,1.03,6.98-2.33l2.98-20.85c.39-2.72-1.94-5.04-4.66-4.66Z"/>
</svg>