<?xml version="1.0" encoding="utf-8"?>
<!-- Generator: Adobe Illustrator 27.5.0, SVG Export Plug-In . SVG Version: 6.00 Build 0)  -->
<svg version="1.1" xmlns="http://www.w3.org/2000/svg" xmlns:xlink="http://www.w3.org/1999/xlink" x="0px" y="0px"
	 viewBox="0 0 500 500" style="enable-background:new 0 0 500 500;" xml:space="preserve">
<g id="BACKGROUND">
	<rect style="fill:#FFFFFF;" width="500" height="500"/>
</g>
<g id="OBJECTS">
	<path style="fill:#F8EBF3;" d="M161.02,151.762c-20.812,17.858-37.325,40.279-50.974,64.065
		c-13.023,22.695-23.74,47.357-25.854,73.437c-4.257,52.516,29.467,104.394,76.946,127.236c47.48,22.842,105.63,18.318,152.27-6.193
		c38.55-20.259,71.107-55.645,78.891-98.493c5.043-27.763-0.445-56.321-7.618-83.611c-8.632-32.841-20.359-66.114-43.592-90.878
		C289.531,82.369,210.698,109.135,161.02,151.762z"/>
	<path style="fill:#F8EBF3;" d="M144.442,102.604c-4.231,5.857-7.236,14.136-3.074,20.043c4.211,5.977,13.027,5.853,20.211,4.495
		c23.322-4.41,45.372-15.36,62.981-31.274c1.451-1.311,2.96-2.824,3.185-4.766c0.372-3.218-2.846-5.614-5.767-7.012
		C196.288,71.791,161.312,79.25,144.442,102.604z"/>
	<path style="fill:#F8EBF3;" d="M302.197,440.407c-2.44,4.457-3.279,10.032-1.162,14.652c2.81,6.132,9.895,9.066,16.552,10.146
		c20.709,3.359,42.383-6.477,55.604-22.766c2.85-3.512,5.407-7.419,6.372-11.839c0.965-4.419,0.089-9.445-3.14-12.613
		C357.487,399.41,312.461,421.659,302.197,440.407z"/>
	<g>
		<path style="fill:#2A1214;" d="M167.698,429.411c0,0-4.746,47.165,1.337,70.589h142.377c0,0,5.945-41.632-0.252-71.932
			L167.698,429.411z"/>
		<circle style="fill:#E19F3D;" cx="259.678" cy="88.691" r="35.312"/>
		<path style="fill:#D77F2E;" d="M248.219,73.512c-7.622,1.293-15.148,3.145-22.505,5.522c-0.871,3.071-1.348,6.307-1.348,9.657
			c0,19.502,15.81,35.312,35.312,35.312c19.502,0,35.312-15.81,35.312-35.312c0-2.356-0.236-4.657-0.676-6.884
			c-6.999-4.185-14.358-7.646-22.345-9.02C264.126,71.437,256.066,72.18,248.219,73.512z"/>
		<path style="fill:#E19F3D;" d="M282.134,88.672c-15.5-5.323-44.484-16.51-79.338,6.879c-36.352,24.394-17.885,60.076-22.93,81.172
			c-5.045,21.095-20.637,41.732,5.503,62.369c26.14,20.637,107.312,41.732,128.408-1.376
			C334.873,194.609,327.535,104.265,282.134,88.672z"/>
		<path style="fill:#D77F2E;" d="M319.597,137.711c-3.882,5.15-10.255,8.884-16.588,7.769c-5.394-0.95-9.594-5.063-13.427-8.975
			c-5.933-6.056-11.867-12.112-17.8-18.169c-1.184-1.209-2.48-2.479-4.144-2.783c-1.494-0.274-3.002,0.286-4.411,0.854
			c-22.072,8.896-43.284,22.463-67.077,22.914c-4.554,0.086-9.25-0.359-13.3-2.443c-1.112-0.573-2.164-1.293-3.115-2.126
			c-1.124,15.52,2.803,30.794,0.13,41.972c-5.045,21.096-20.637,41.733,5.503,62.369c26.14,20.637,107.312,41.733,128.408-1.376
			C326.153,212.427,328.737,170.884,319.597,137.711z"/>
		<path style="fill:#422127;" d="M221.599,241.386c0,0-6.879-6.268-21.554-7.796c-14.675-1.529-47.388,43.72-53.197,56.866
			l1.834,30.879l7.796,26.904c16.051-11.006,29.809-37.911,29.809-37.911s-6.115,77.962-23.541,118.318
			c0,0,76.433,44.331,153.783,6.115c0,0-19.873-100.586-17.732-116.484c0,0,7.342,20.989,18.193,30.52l9.934-12.788l3.057-49.223
			c0,0-11.618-30.268-24.764-43.72c-13.146-13.452-37.758-1.681-37.758-1.681s-34.395,3.21-35.312,2.599
			C231.229,243.373,221.599,241.386,221.599,241.386z"/>
		<path style="fill:#D67E95;" d="M223.892,275.322c2.599,22.319,15.592,56.178,15.592,56.178s17.121-42.115,19.72-54.344
			c0,0-14.981-6.879-15.134-6.879C243.917,270.277,223.892,275.322,223.892,275.322z"/>
		<path style="fill:#422127;" d="M154.643,244.596c-0.573-7.338-29.694-7.567-31.185-1.376c0,0-25.009,87.111-12.382,105.478
			c15.134,22.013,45.401-0.459,45.401-0.459C161.522,320.265,154.643,244.596,154.643,244.596z"/>
		<path style="fill:#E5B096;" d="M224.809,221.666c0,0-1.376,13.299-3.21,19.72c0,0,0,21.096,2.293,33.936
			c0,0,16.051,7.796,35.312,1.834c0,0,5.503-25.682,8.255-35.771l-4.127-22.471L224.809,221.666z"/>
		<path style="fill:#E5B096;" d="M152.236,243.908c1.514-4.818-1.261-20.637-2.637-30.268c-1.376-9.631-11.35-24.879-16.395-31.299
			c-5.045-6.42-9.172,3.21-1.834,11.465c0.598-0.13-6.4-8.469-12.955-16.395c-6.165-7.455-9.516-3.784-9.057-1.032
			c0,0-7.338-2.293-6.42,3.669c0,0-6.037,2.451-2.293,7.338c0,0-3.21,2.293-0.917,5.962c2.293,3.669,18.206,23.049,23.388,28.892
			c6.306,7.108,2.522,6.535,2.522,18.459C125.637,252.621,150.974,247.921,152.236,243.908z"/>
		<path style="fill:#422127;" d="M332.785,246.348c1.558-7.193,30.444-3.493,31.085,2.842c0,0,13.032,89.688-1.956,106.184
			c-17.964,19.771-44.925-6.578-44.925-6.578C315.764,320.398,332.785,246.348,332.785,246.348z"/>
		<path style="fill:#E5B096;" d="M335.264,245.992c-0.851-4.978,4.033-20.278,6.695-29.635c2.662-9.357,14.602-23.121,20.466-28.802
			c5.864-5.681,8.655,4.418,0.271,11.608c0,0,10.656-6.88,16.768-14.38c6.112-7.499,8.22-2.584,7.394,0.081
			c0,0,6.256-3.095,5.867,4.501c0,0,5.652,3.243,1.283,7.58c0,0,2.872,2.705,0.105,6.031c-2.767,3.326-21.148,20.384-27.071,25.473
			c-7.207,6.193-3.381,6.135-4.989,17.95C360.444,258.213,335.972,250.138,335.264,245.992z"/>
		<path style="fill:#DE9974;" d="M223.547,231.501c4.075,2.672,8.785,4.481,13.494,5.852c9.656,2.812,20.152,4.081,29.69,0.894
			c0.048-0.016,0.094-0.037,0.142-0.053l-3.541-19.28l-38.522,2.751C224.809,221.666,224.324,226.35,223.547,231.501z"/>
		<path style="fill:#E5B096;" d="M291.864,170.31c0,0,11.768-3.182,13.701,6.796c1.933,9.978-4.841,13.101-13.452,14.506
			c0,0-14.107,42.589-49.419,41.518c-36.519-1.107-49.408-47.743-46.97-71.143c0.816-7.836,52.939-15.839,70.895-33.441
			C266.619,128.546,292.481,145.519,291.864,170.31z"/>
		<path style="fill:#DE9974;" d="M298.843,181.607c-0.68-0.881-1.827-1.132-2.891-1.209c0.04-0.128,0.082-0.256,0.125-0.383
			c0.006-0.018,0.007-0.023,0.012-0.038c0.006-0.011,0.007-0.013,0.014-0.027c0.136-0.272,0.276-0.541,0.441-0.797
			c0.018-0.028,0.078-0.122,0.129-0.201c0.068-0.097,0.154-0.188,0.233-0.275c0.202-0.226,0.418-0.44,0.617-0.669
			c0.331-0.382,0.536-0.765,0.606-1.2c0.02-0.03,0.029-0.07,0.047-0.101c0.139-0.126,0.288-0.263,0.442-0.333
			c0.775-0.351,0.217-1.545-0.566-1.342c-0.189,0.049-0.393,0.07-0.596,0.096c-0.114-0.016-0.229-0.017-0.343-0.006
			c-1.622-0.516-3.23,1.586-3.893,2.843c-0.739,1.403-1.109,3.005-0.897,4.586c0.227,1.688,1.151,3.251,2.808,3.855
			c1.741,0.634,3.527-0.547,4.119-2.186C299.573,183.33,299.417,182.35,298.843,181.607z"/>
		<path style="fill:#DE9974;" d="M266.619,128.547c-15.926,15.613-58.728,23.673-68.77,30.764
			c22.729-7.708,49.276-9.55,69.304-22.791c9.681,7.385,17.759,19.83,24.579,29.917
			C289.795,143.771,266.619,128.547,266.619,128.547z"/>
		<path style="fill:#DE9974;" d="M387.804,184.876c-1.481-1.001-3.666,1.283-4.657,2.195c-1.636,1.505-3.064,3.211-4.617,4.798
			c-1.61,1.646-3.337,3.19-5.103,4.667c-0.971,0.813-1.96,1.603-2.969,2.368c-0.436,0.33-0.875,0.655-1.317,0.977
			c-0.505,0.367-1.068,0.952-1.726,0.961c-0.79,0.011-0.915,1.11-0.183,1.35c0.965,0.316,1.802-0.288,2.567-0.825
			c1-0.702,1.976-1.44,2.94-2.189c1.966-1.527,3.866-3.14,5.69-4.834c1.713-1.592,3.347-3.247,4.985-4.913
			c0.82-0.835,1.671-1.656,2.625-2.338c0.729-0.521,1.731-0.947,1.879-1.934C387.937,185.04,387.905,184.945,387.804,184.876z"/>
		<path style="fill:#DE9974;" d="M389.258,190.51c-3.181,2.034-5.731,4.908-8.251,7.677c-1.427,1.568-2.836,3.176-4.377,4.633
			c-1.592,1.505-3.343,2.741-5.181,3.922c-0.511,0.328-0.195,1.251,0.433,1.028c3.414-1.208,6.376-3.917,8.856-6.484
			c2.631-2.722,5.106-5.658,8.094-8.005c0.692-0.544,1.42-1.053,2.165-1.522c0.613-0.386,1.83-0.82,1.861-1.684
			C392.925,188.196,389.829,190.145,389.258,190.51z"/>
		<path style="fill:#DE9974;" d="M392.595,197.294c-0.885,0.143-1.706,0.885-2.419,1.398c-0.765,0.55-1.511,1.128-2.241,1.722
			c-1.45,1.179-2.834,2.437-4.204,3.708c-1.374,1.275-2.741,2.559-4.117,3.832c-1.299,1.202-2.987,2.328-3.795,3.912
			c-0.03,0.059-0.02,0.15,0.048,0.182c0.736,0.343,1.274,0.065,1.927-0.367c0.821-0.543,1.606-1.133,2.364-1.76
			c1.521-1.258,2.964-2.599,4.412-3.941c1.407-1.303,2.822-2.601,4.301-3.823c0.782-0.646,1.583-1.269,2.412-1.855
			c0.777-0.55,1.706-0.981,2.276-1.755C394.051,197.877,393.238,197.19,392.595,197.294z"/>
		<path style="fill:#DE9974;" d="M371,224.581c-0.624,0.165-1.143,0.267-1.679,0.67c-0.529,0.397-0.999,0.875-1.526,1.279
			c-1.056,0.809-2.191,1.521-3.371,2.134c-1.148,0.597-2.318,1.13-3.546,1.542c-1.35,0.452-2.819,0.98-4.261,0.799
			c-0.732-0.092-0.749,0.97-0.162,1.197c1.423,0.549,3.011,0.217,4.441-0.165c1.434-0.383,2.852-0.898,4.184-1.553
			c1.298-0.639,2.532-1.42,3.685-2.294c0.562-0.426,1.132-0.861,1.643-1.346c0.598-0.568,0.77-1.142,0.938-1.916
			C371.391,224.719,371.216,224.524,371,224.581z"/>
		<path style="fill:#DE9974;" d="M119.59,205.057c-0.357-1.081-1.384-1.85-2.16-2.643c-0.861-0.88-1.716-1.766-2.587-2.636
			c-1.653-1.65-3.309-3.295-4.932-4.975c-1.539-1.592-2.924-3.306-4.415-4.938c-1.054-1.153-2.681-2.724-4.383-2.488
			c-0.523,0.072-0.558,0.863-0.143,1.092c0.812,0.447,1.589,0.65,2.3,1.301c0.64,0.586,1.185,1.27,1.727,1.946
			c1.361,1.699,2.765,3.363,4.228,4.975c1.458,1.607,2.946,3.189,4.443,4.759c0.809,0.849,1.631,1.686,2.446,2.529
			c0.745,0.77,1.434,1.719,2.463,2.091C119.16,206.281,119.779,205.628,119.59,205.057z"/>
		<path style="fill:#DE9974;" d="M121.714,196.176c-0.616-1.003-1.481-1.896-2.246-2.788c-0.788-0.918-1.592-1.823-2.412-2.714
			c-1.594-1.731-3.254-3.447-5.024-5.001c-1.613-1.416-3.306-2.925-5.184-3.981c-0.836-0.47-1.743-0.889-2.686-1.087
			c-0.802-0.168-1.886-0.379-2.538,0.223c-0.209,0.194-0.118,0.491,0.082,0.638c0.657,0.483,1.749,0.412,2.528,0.724
			c0.886,0.354,1.702,0.881,2.445,1.476c1.636,1.311,3.03,2.841,4.516,4.31c1.516,1.499,2.986,3.047,4.425,4.62
			c0.7,0.766,1.389,1.542,2.066,2.328c0.663,0.77,1.279,1.622,1.986,2.356C120.181,198.34,122.652,197.704,121.714,196.176z"/>
		<path style="fill:#DE9974;" d="M126.783,192.914c-0.656-1.059-1.702-1.977-2.534-2.902c-1.79-1.993-3.618-3.951-5.426-5.928
			c-2.796-3.055-5.768-6.861-10.036-7.802c-0.881-0.194-1.215,1.048-0.37,1.344c3.772,1.322,6.271,4.644,8.791,7.57
			c1.518,1.762,3.009,3.549,4.544,5.296c0.786,0.896,1.573,1.792,2.359,2.688c0.343,0.391,0.674,0.805,1.077,1.135
			c0.272,0.223,0.896,0.415,1.069,0.665c0.083,0.12,0.257,0.164,0.368,0.047C127.2,194.419,127.218,193.616,126.783,192.914z"/>
		<path style="fill:#DE9974;" d="M134.038,230.472c-0.033-0.162-0.097-0.305-0.211-0.444c-0.245-0.365-0.606-0.539-1.052-0.715
			c-0.372-0.147-0.694-0.26-1.032-0.418c-0.737-0.344-1.442-0.755-2.104-1.226c-0.631-0.449-1.23-0.948-1.78-1.493
			c-0.375-0.372-1.506-1.752-2.031-0.94c-0.256,0.396,0.028,0.932,0.248,1.279c0.25,0.395,0.53,0.76,0.839,1.11
			c0.621,0.703,1.315,1.311,2.075,1.861c0.707,0.511,1.463,0.954,2.256,1.317c0.434,0.199,0.88,0.406,1.345,0.519
			c0.355,0.086,0.646,0.039,0.975-0.104c0.026-0.011,0.23-0.118,0.291-0.177c0.013-0.015,0.026-0.029,0.039-0.044
			c0.092-0.14,0.117-0.165,0.074-0.074C134.157,230.841,134.133,230.607,134.038,230.472z"/>
		<path style="fill:#DE9974;" d="M138.634,232.369c-0.004-0.083-0.029-0.161-0.074-0.233c-0.007-0.016-0.014-0.032-0.021-0.047
			c-0.005-0.01-0.009-0.02-0.015-0.029c-0.018-0.034-0.08-0.113-0.107-0.14c-0.061-0.059-0.133-0.109-0.202-0.157
			c-0.027-0.019-0.056-0.037-0.085-0.054c-0.038-0.021-0.075-0.036-0.115-0.053c-0.046-0.027-0.095-0.04-0.148-0.04
			c-0.052-0.014-0.104-0.014-0.156,0c-0.016,0-0.029,0.01-0.044,0.012c-0.11-0.001-0.222,0.003-0.328,0.029
			c0.032-0.004,0.064-0.008,0.096-0.013c-0.073-0.006-0.144-0.007-0.217,0.001c-0.084,0.009-0.166,0.028-0.227,0.094
			c-0.049,0.053-0.079,0.113-0.088,0.184c-0.02,0.153,0.074,0.313,0.229,0.352c0.024,0.006,0.047,0.016,0.071,0.023
			c0.013,0.02,0.025,0.042,0.037,0.063c0.007,0.018,0.003,0.039,0.013,0.056c0.023,0.072,0.064,0.133,0.12,0.186l-0.075-0.097
			c0.04,0.052,0.074,0.107,0.104,0.165c0.037,0.074,0.095,0.134,0.152,0.194c0.049,0.051,0.072,0.079,0.152,0.126
			c0.027,0.015,0.059,0.012,0.086,0.023c0.004,0.002,0.007,0.006,0.011,0.009c0.049,0.028,0.107,0.047,0.161,0.064
			c0.045,0.006,0.089,0.012,0.134,0.018c0.069,0.003,0.134-0.012,0.194-0.043c0.097-0.041,0.191-0.111,0.241-0.206
			c0.038-0.072,0.062-0.152,0.075-0.233c0.007-0.03,0.027-0.057,0.028-0.088C138.649,232.48,138.649,232.424,138.634,232.369z"/>
		<path style="fill:#EBBB50;" d="M260.14,104.352c-0.802,0.724-1.767,1.104-2.645,1.718c-0.999,0.7-1.935,1.475-2.954,2.151
			c-2.028,1.345-4.155,2.559-6.28,3.743c-4.505,2.511-9.154,4.787-13.918,6.765c-9.553,3.966-19.56,6.847-29.761,8.556
			c-6.108,1.023-12.111,1.477-18.29,0.927c-1.338-0.119-1.35,1.742-0.293,2.164c5.324,2.123,11.354,1.473,16.888,0.706
			c5.414-0.751,10.784-1.876,16.06-3.296c10.562-2.843,20.809-6.947,30.402-12.203c2.613-1.431,5.263-2.891,7.704-4.604
			c1.063-0.746,2.188-1.606,2.883-2.725c0.674-1.086,0.82-2.391,0.816-3.649C260.753,104.283,260.367,104.147,260.14,104.352z"/>
		<path style="fill:#EBBB50;" d="M256.093,95.68c-0.455-0.032-0.591,0.534-0.343,0.827c0.306,0.361-8.524,6.096-9.468,6.657
			c-3.826,2.273-7.815,4.266-11.896,6.038c-8.368,3.635-17.235,6.627-26.192,8.393c-2.729,0.538-5.495,0.918-8.275,1.058
			c-2.79,0.141-5.58-0.134-8.364,0.009c-0.838,0.043-0.918,1.103-0.189,1.396c2.518,1.015,5.383,1.275,8.073,1.427
			c2.773,0.157,5.537,0.057,8.289-0.315c5.305-0.718,10.456-2.277,15.531-3.941c9.632-3.159,19.12-7.112,27.671-12.606
			c1.165-0.748,2.31-1.526,3.436-2.331c1.028-0.736,2.244-1.463,2.966-2.528C258.22,98.456,258.056,95.818,256.093,95.68z"/>
		<path style="fill:#EBBB50;" d="M254.845,88.862c-0.129-0.214-0.542-0.21-0.585,0.076c-0.116,0.763-0.76,1.212-1.345,1.637
			c-0.723,0.525-1.352,1.166-2.072,1.696c-1.614,1.191-3.342,2.253-5.062,3.282c-3.532,2.112-7.221,3.991-11.028,5.557
			c-7.586,3.121-15.564,5.104-23.699,6.098c-4.744,0.58-9.485,0.7-14.252,0.472c-0.231-0.011-0.388,0.325-0.199,0.48
			c3.52,2.901,8.377,2.843,12.717,2.595c4.575-0.261,9.112-0.967,13.572-2.013c8.754-2.052,17.219-5.506,24.931-10.128
			C251.097,96.653,257.66,93.539,254.845,88.862z"/>
		<path style="fill:#EBBB50;" d="M251.817,84.656c-1.91,0.602-3.933,0.791-5.739,1.684c-1.838,0.909-3.639,1.875-5.509,2.72
			c-3.59,1.622-7.3,2.99-11.076,4.113c-3.774,1.122-7.639,2.041-11.511,2.751c-2.029,0.372-4.074,0.667-6.12,0.931
			c-1.946,0.252-3.989,0.398-5.827,1.118c-0.442,0.173-0.459,0.751,0,0.919c1.902,0.697,4.044,0.682,6.046,0.633
			c2.116-0.052,4.221-0.237,6.322-0.491c4.085-0.495,8.083-1.286,12.037-2.428c3.949-1.14,7.805-2.564,11.559-4.236
			c1.865-0.831,3.736-1.701,5.52-2.697c1.927-1.076,3.175-2.798,4.671-4.377C252.443,85.029,252.195,84.537,251.817,84.656z"/>
		<path style="fill:#EBBB50;" d="M308.4,136.615c-0.132-0.211-0.24-0.434-0.323-0.669c-0.079-0.315-0.454-0.387-0.689-0.205
			c-1.286-0.777-2.942-1-4.274-1.722c-1.598-0.866-3.009-1.987-4.331-3.227c-2.955-2.771-5.438-5.996-8.222-8.93
			c-3.054-3.22-6.377-6.295-10.009-8.852c-1.758-1.237-3.537-2.441-5.38-3.549c-1.782-1.072-3.698-2.343-5.791-2.622
			c-0.411-0.055-0.737,0.533-0.492,0.858c1.267,1.686,3.262,2.82,4.928,4.083c1.847,1.4,3.636,2.864,5.372,4.399
			c3.4,3.009,6.738,6.027,9.801,9.387c2.72,2.985,5.208,6.214,8.286,8.852c1.5,1.286,3.12,2.467,4.919,3.299
			c1.747,0.807,3.955,1.764,5.747,0.644C308.532,137.994,308.75,137.231,308.4,136.615z"/>
		<path style="fill:#EBBB50;" d="M308.096,127.489c-0.509-1.625-2.56-2.357-3.928-3.147c-1.561-0.902-3.08-1.872-4.535-2.937
			c-2.938-2.149-5.429-4.741-7.913-7.382c-4.922-5.233-11.206-9.404-17.999-11.752c-0.385-0.133-0.685,0.409-0.395,0.679
			c2.664,2.474,5.673,4.501,8.524,6.761c2.874,2.278,5.471,4.843,7.95,7.54c2.465,2.682,5.041,5.168,7.968,7.347
			c1.387,1.033,2.831,1.996,4.333,2.854c1.349,0.77,3.526,2.244,5.117,1.586C307.828,128.784,308.319,128.204,308.096,127.489z"/>
		<path style="fill:#EBBB50;" d="M302.723,109.872c-2.632-2.467-5.419-4.836-8.371-6.914c-1.658-1.167-3.39-2.254-5.198-3.174
			c-1.633-0.83-3.688-1.792-5.568-1.562c-0.82,0.1-1.079,1.012-0.41,1.513c1.365,1.024,3.025,1.706,4.461,2.644
			c1.476,0.964,2.879,2.05,4.266,3.136c2.834,2.219,5.614,4.467,8.214,6.962c0.961,0.922,2.967,3.16,4.398,1.758
			C305.956,112.824,303.669,110.759,302.723,109.872z"/>
		<path style="fill:#EBBB50;" d="M251.458,58.895c-2.045-0.592-3.91,0.424-5.674,1.401c-1.805,0.999-3.507,2.185-5.13,3.455
			c-1.604,1.255-3.149,2.627-4.517,4.139c-0.675,0.746-1.307,1.538-1.914,2.34c-0.329,0.435-0.635,0.886-0.933,1.343
			c-0.137,0.21-0.581,1.111-0.616,1.12c-0.731,0.197-0.718,1.078-0.193,1.474c0.893,0.675,1.787-0.171,2.368-0.83
			c0.689-0.782,1.359-1.58,2.066-2.347c1.452-1.574,2.991-3.08,4.645-4.441c1.602-1.318,3.329-2.489,5.129-3.519
			c0.951-0.544,1.935-1.033,2.876-1.592c0.912-0.541,1.549-1.129,2.098-2.038C251.78,59.207,251.668,58.956,251.458,58.895z"/>
		<path style="fill:#EBBB50;" d="M255.809,58.559c-0.44-0.076-0.957,0.144-1.287,0.38c-0.458,0.327-0.88,0.682-1.292,1.064
			c-0.725,0.671-1.378,1.386-2.006,2.148c-0.511,0.62-1.116,1.395-0.69,2.231c0.239,0.469,0.804,0.636,1.291,0.525
			c0.362-0.082,0.711-0.39,0.956-0.657c0.335-0.365,0.63-0.776,0.954-1.153c0.316-0.368,0.622-0.74,0.929-1.115
			c0.387-0.472,0.794-0.926,1.156-1.417c0.194-0.264,0.373-0.486,0.472-0.808c0.06-0.195,0.096-0.387,0.083-0.578
			C256.565,58.804,256.173,58.45,255.809,58.559z"/>
		<path style="fill:#EBBB50;" d="M263.858,57.697c-0.303-0.177-0.819-0.164-1.051,0.136c-1.363,1.761-2.335,3.729-3.324,5.715
			c-0.485,0.974-0.95,1.958-1.418,2.94c-0.503,1.054-1.169,2.159-1.422,3.305c-0.234,1.061,0.494,2.132,1.624,2.132
			c0.589,0,1.143-0.357,1.452-0.852c0.001,0.006,0.002,0.012,0.002,0.018c0.649-0.936,0.987-2.132,1.406-3.185
			c0.402-1.01,0.81-2.018,1.195-3.034c0.767-2.027,1.578-4.048,1.935-6.195C264.32,58.292,264.214,57.905,263.858,57.697z"/>
		<path style="fill:#EBBB50;" d="M270.848,63.17c-0.072-0.833-0.196-1.646-0.396-2.457c-0.197-0.8-0.488-1.623-1.357-1.886
			c-0.326-0.099-0.729,0.004-0.963,0.255c-0.166,0.178-0.291,0.362-0.29,0.617c-0.003,0.117,0.009,0.232,0.035,0.346
			c0.001,0.003,0.001,0.001,0.001,0.004c-0.006,0.045-0.011,0.089-0.013,0.099c-0.034,0.236-0.066,0.471-0.094,0.708
			c-0.008,0.074-0.017,0.149-0.025,0.223c-0.004,0.022-0.004,0.024-0.009,0.059c-0.104,0.75-0.17,1.503-0.251,2.256
			c-0.073,0.671-0.122,1.344-0.203,2.014c-0.042,0.347-0.073,0.694-0.11,1.041c-0.05,0.465-0.055,0.874,0.049,1.342
			c0.319,1.427,2.43,1.667,3.117,0.407c0.447-0.818,0.505-1.862,0.541-2.791C270.909,64.66,270.912,63.917,270.848,63.17z"/>
		<path style="fill:#EBBB50;" d="M283.116,70.197c-0.193-0.818-0.714-1.574-1.149-2.281c-0.923-1.5-1.939-2.951-3.075-4.298
			c-1.074-1.274-2.268-2.35-3.565-3.39c-0.612-0.491-1.386-1.089-2.164-1.271c-0.583-0.137-1.616,0.331-1.23,1.066
			c0.532,1.012,1.361,1.864,1.992,2.81c0.768,1.15,1.572,2.104,2.349,3.191c0.776,1.086,1.541,2.176,2.235,3.317
			c0.344,0.565,0.678,1.138,0.985,1.724c0.005,0.014,0.009,0.023,0.015,0.039c0.044,0.129,0.086,0.258,0.131,0.387
			c0.073,0.209,0.151,0.43,0.262,0.624c0.019,0.034,0.038,0.068,0.057,0.102c0.311,0.395,0.345,0.443,0.101,0.145
			c0.263,0.581,1.028,0.775,1.593,0.648C282.936,72.722,283.392,71.371,283.116,70.197z"/>
		<path style="fill:#EBBB50;" d="M250.304,67.53c-0.001-0.145-0.037-0.28-0.11-0.405c-0.138-0.236-0.414-0.41-0.693-0.397
			c-0.125,0.006-0.247,0.021-0.371,0.038c-0.088,0.012-0.167,0.017-0.248,0.048c-0.006,0.002-0.013,0.005-0.019,0.008
			c-0.199,0.026-0.393,0.098-0.551,0.209c-0.149,0.104-0.292,0.217-0.433,0.332c-0.071,0.058-0.136,0.117-0.196,0.186
			c-0.124,0.144-0.257,0.289-0.337,0.461c-0.076,0.165-0.169,0.347-0.204,0.53c-0.06,0.313-0.074,0.569-0.001,0.882
			c0.003,0.014,0.007,0.028,0.012,0.042c0.042,0.1,0.085,0.201,0.127,0.301c0.049,0.084,0.145,0.206,0.215,0.273
			c0.084,0.065,0.168,0.13,0.252,0.195c0.143,0.091,0.298,0.14,0.463,0.148c0.165,0.022,0.336,0.022,0.499-0.023
			c0.018-0.005,0.28-0.116,0.296-0.125c0.176-0.104,0.344-0.271,0.447-0.447c0.09-0.153,0.134-0.336,0.154-0.516
			c0.012-0.02,0.023-0.041,0.034-0.061c0.047-0.089,0.091-0.182,0.133-0.274c0.039-0.087,0.082-0.172,0.128-0.255
			c0.024-0.043,0.05-0.085,0.075-0.128c0.076-0.129,0.126-0.281,0.149-0.436c0.018-0.041,0.041-0.08,0.056-0.123
			c0.024-0.069,0.048-0.138,0.076-0.206c-0.02,0.049-0.041,0.097-0.061,0.146C250.267,67.808,250.304,67.674,250.304,67.53z"/>
		<path style="fill:#E19F3D;" d="M252.618,127.702c-0.916-0.091-1.749-0.162-2.655,0.11c-1.09,0.327-2.115,1.017-3.097,1.574
			c-1.884,1.069-3.804,2.074-5.751,3.02c-3.826,1.859-7.759,3.479-11.76,4.92c-8.149,2.934-16.557,5.184-24.946,7.318
			c-4.803,1.222-9.597,2.446-14.367,3.789c-0.83,0.234-0.705,1.689,0.212,1.565c17.505-2.35,35.026-6.27,51.123-13.726
			c2.292-1.062,4.549-2.202,6.758-3.427c1.061-0.589,2.207-1.17,3.124-1.976c0.892-0.785,1.307-1.652,1.676-2.751
			C253.009,127.898,252.817,127.722,252.618,127.702z"/>
		<path style="fill:#E19F3D;" d="M262.944,122.947c-0.193,0.055-0.358,0.174-0.548,0.232c-0.057,0.018-0.112,0.041-0.169,0.059
			c0.052-0.017-0.002,0.003-0.031,0.009c-0.086,0.021-0.171,0.017-0.254,0.048c-0.211,0.08,0.076-0.02-0.031,0.027
			c-0.08,0.035-0.207,0.027-0.294,0.04c-0.053,0.008-0.24,0.028,0,0.003c-0.178,0.019-0.31,0.064-0.474,0.117
			c-0.219,0.071-0.448,0.106-0.665,0.187c-0.097,0.036-0.196,0.07-0.293,0.107c-0.127,0.049-0.251,0.105-0.375,0.16
			c-0.022,0.009-0.079,0.033-0.097,0.04c-0.061,0.024-0.123,0.047-0.185,0.069c-0.099,0.035-0.199,0.065-0.298,0.1
			c-0.223,0.079-0.438,0.177-0.663,0.252c-0.099,0.033-0.198,0.064-0.298,0.093c-0.093,0.027-0.178,0.053-0.268,0.091
			c-0.157,0.066-0.154,0.067-0.118,0.053c-0.357,0.146-0.669,0.452-0.651,0.871c0.017,0.385,0.269,0.798,0.671,0.881
			c1.148,0.239,2.462,0.013,3.479-0.574c0.485-0.281,0.982-0.748,1.246-1.243c0.119-0.223,0.239-0.43,0.331-0.608
			c0.109-0.214,0.263-0.444,0.323-0.678C263.331,123.085,263.147,122.889,262.944,122.947z"/>
		<path style="fill:#E19F3D;" d="M320.993,162.687c-0.981-0.214-1.772-0.769-2.663-1.199c-0.928-0.448-1.899-0.793-2.871-1.131
			c-1.62-0.565-3.222-1.181-4.791-1.874c-3.193-1.41-6.28-3.063-9.23-4.927c-5.866-3.705-10.965-8.314-15.688-13.372
			c-1.317-1.411-2.615-2.836-3.837-4.33c-0.631-0.771-1.24-1.562-1.873-2.332c-0.635-0.773-1.419-1.32-2.088-2.032
			c-0.245-0.261-0.732,0.008-0.614,0.357c0.275,0.811,0.367,1.583,0.727,2.38c0.396,0.878,0.896,1.722,1.399,2.545
			c0.937,1.534,1.949,3.03,3.015,4.477c2.2,2.983,4.751,5.656,7.496,8.14c5.523,4.998,11.857,9.155,18.655,12.201
			c1.915,0.858,3.863,1.648,5.845,2.338c2.399,0.835,4.354,0.756,6.635-0.339C321.489,163.405,321.393,162.775,320.993,162.687z"/>
		<g>
			<path style="fill:#E19F3D;" d="M317.453,154.426c-0.065-0.074-0.633-0.571-0.357-0.342c-0.165-0.137-0.318-0.289-0.504-0.4
				c-0.335-0.2-0.75-0.356-1.109-0.497c-0.562-0.22-1.131-0.431-1.7-0.632c-0.567-0.201-1.135-0.401-1.715-0.561
				c-0.36-0.099-0.72-0.154-1.09-0.204c0.126,0.017-0.359-0.038-0.388-0.046c-0.147-0.006-0.366,0.018-0.468,0.014
				c-0.719-0.021-0.975,0.849-0.552,1.334c0.199,0.228,0.372,0.455,0.594,0.662c0.268,0.251,0.572,0.471,0.878,0.672
				c0.504,0.331,1.039,0.617,1.575,0.891c0.537,0.274,1.091,0.526,1.643,0.767c0.359,0.157,0.756,0.334,1.14,0.423
				c0.219,0.051,0.441,0.053,0.661,0.071c0.076,0.006,0.465-0.021,0.575-0.024c0.479-0.069,0.873-0.28,1.074-0.757
				C317.917,155.313,317.792,154.815,317.453,154.426z"/>
			<path style="fill:#E19F3D;" d="M310.591,151.743c0.006,0,0.015-0.001,0.021,0C310.592,151.741,310.587,151.741,310.591,151.743z"
				/>
			<path style="fill:#E19F3D;" d="M316.638,156.554c-0.025,0.003-0.047,0.012-0.073,0.015
				C316.687,156.555,316.688,156.552,316.638,156.554z"/>
		</g>
		<path style="fill:#E19F3D;" d="M188.638,162.242c-0.326-0.492-0.984-0.262-1.048,0.284c-0.141,1.204,0.021,2.391,0.038,3.599
			c0.017,1.208-0.048,2.411-0.178,3.612c-0.273,2.53-0.793,5.003-1.47,7.455c-1.351,4.894-3.176,9.629-4.791,14.437
			c-3.076,9.155-5.262,19.024-4.038,28.717c0.334,2.648,0.782,5.406,1.891,7.854c0.682,1.507,2.521,3.406,4.184,2.064
			c0.205-0.165,0.147-0.479,0-0.652c-0.471-0.555-0.657-1.373-0.82-2.058c-0.245-1.037-0.522-2.062-0.787-3.093
			c-0.572-2.223-0.92-4.488-1.064-6.779c-0.288-4.575,0.15-9.162,1.044-13.65c0.894-4.484,2.217-8.861,3.713-13.176
			c1.558-4.497,3.224-8.986,4.157-13.665c0.499-2.502,0.851-5.126,0.751-7.681C190.128,167.15,189.977,164.262,188.638,162.242z"/>
		<path style="fill:#E19F3D;" d="M195.606,226.214c-0.049-0.063-0.118-0.152-0.141-0.146c-0.018-0.137-0.016-0.311-0.025-0.422
			c-0.035-0.48-0.102-0.955-0.16-1.435c-0.152-1.264-0.44-2.5-0.686-3.747c-0.524-2.656-0.885-5.34-1.116-8.037
			c-0.225-2.622-0.289-5.251-0.339-7.88c-0.024-1.273-0.043-2.543-0.014-3.816c0.017-0.755-0.24-2.505,0.51-3.058
			c0.337-0.249,0.464-0.716,0.134-1.043c-0.764-0.757-1.79-0.387-2.376,0.392c-0.884,1.178-0.915,2.879-1.109,4.279
			c-0.491,3.547-0.628,7.074-0.416,10.649c0.211,3.569,0.688,7.157,1.47,10.648c0.309,1.378,0.674,3.176,1.882,4.073
			c0.681,0.505,1.758,0.662,2.383,0.042C195.753,226.565,195.722,226.364,195.606,226.214z"/>
		<path style="fill:#E19F3D;" d="M205.808,225.423c-0.264-1.079-0.559-2.151-0.817-3.232c-0.253-1.062-0.43-2.198-0.814-3.219
			c-0.225-0.598-0.787-2.447-1.746-1.999c-0.469,0.219-0.563,0.754-0.656,1.211c-0.104,0.509-0.194,1.041-0.182,1.562
			c0.027,1.161,0.236,2.344,0.45,3.482c0.199,1.057,0.432,2.111,0.767,3.134c0.204,0.623,0.432,1.209,0.839,1.726
			c0.167,0.212,0.326,0.379,0.533,0.548c0.13,0.129,0.283,0.218,0.46,0.268c0.129,0.042,0.151,0.05,0.066,0.023
			c0.377,0.382,0.9,0.085,0.99-0.364C206.302,227.66,206.053,226.424,205.808,225.423z"/>
		<g>
			<path style="fill:#E19F3D;" d="M213.642,228.586c0.02-0.179,0.021-0.193,0.004-0.062
				C213.646,228.544,213.64,228.567,213.642,228.586z"/>
			<path style="fill:#E19F3D;" d="M213.47,226.691c-0.074-0.246-0.204-0.493-0.307-0.732c-0.075-0.171-0.14-0.351-0.225-0.518
				c-0.11-0.214-0.269-0.447-0.433-0.616c-0.07-0.072-0.297-0.274-0.241-0.2c-0.055-0.059-0.11-0.117-0.132-0.137
				c-0.469-0.41-1.124-0.231-1.332,0.352c-0.018,0.049-0.02,0.1-0.034,0.148c-0.006,0.002-0.021,0.035-0.054,0.12
				c-0.036,0.066-0.061,0.136-0.074,0.21c-0.059,0.238-0.084,0.519-0.075,0.766c0.016,0.435,0.06,0.945,0.156,1.364
				c0.104,0.454,0.26,0.871,0.476,1.282c0.088,0.168,0.168,0.248,0.295,0.422l-0.084-0.113c0.069,0.113,0.152,0.214,0.249,0.303
				c-0.016-0.032-0.032-0.064-0.049-0.096c0.063,0.083,0.127,0.166,0.192,0.248c0.078,0.081,0.163,0.146,0.254,0.2
				c0.058,0.053,0.123,0.094,0.191,0.132c0.077,0.061,0.166,0.114,0.255,0.158c0.06,0.074,0.117,0.134,0.201,0.189
				c0.123,0.08,0.316,0.029,0.385-0.101c0.045-0.085,0.059-0.165,0.076-0.253c0.059-0.084,0.113-0.175,0.152-0.27
				c0.049-0.077,0.09-0.159,0.117-0.248c0.075-0.146,0.118-0.304,0.164-0.47c0.027-0.078,0.043-0.158,0.045-0.242
				c0.004-0.03,0.006-0.046,0.009-0.068c-0.003-0.148,0.043-0.322,0.045-0.468C213.696,227.597,213.603,227.133,213.47,226.691z"/>
		</g>
		<path style="fill:#E19F3D;" d="M319.409,188.472c-0.065-2.43-0.257-4.847-0.548-7.26c-0.261-2.161-0.354-4.743-1.366-6.701
			c-0.289-0.56-1.217-0.434-1.357,0.177c-0.502,2.196-0.07,4.734-0.054,6.976c0.016,2.269-0.025,4.54-0.105,6.807
			c-0.163,4.605-0.435,9.203-1.092,13.768c-0.658,4.569-1.617,9.094-2.873,13.536c-0.618,2.186-1.319,4.344-2.068,6.488
			c-0.653,1.872-1.885,4.356-0.848,6.305c0.122,0.229,0.432,0.35,0.679,0.277c2.128-0.634,2.935-3.318,3.616-5.161
			c0.839-2.268,1.548-4.594,2.198-6.922c1.283-4.594,2.243-9.274,2.89-13.999C319.129,198.038,319.537,193.246,319.409,188.472z"/>
		<path style="fill:#E19F3D;" d="M306.18,193.819c-1.506,2.421-1.604,5.28-1.884,8.046c-0.304,3.002-0.763,5.967-1.287,8.938
			c-0.506,2.868-1.153,5.715-1.911,8.527c-0.39,1.445-0.841,2.872-1.249,4.313c-0.214,0.756-0.435,1.514-0.591,2.285
			c-0.097,0.479-0.06,0.935-0.074,1.397c-0.111,0.265-0.067,0.521,0.092,0.847c0.137,0.28,0.462,0.42,0.755,0.433
			c1.329,0.06,1.952-1.312,2.411-2.345c0.635-1.43,1.104-2.917,1.535-4.419c0.87-3.033,1.563-6.107,2.081-9.22
			c1.015-6.092,1.073-12.339,1.255-18.493C307.334,193.503,306.488,193.322,306.18,193.819z"/>
		<path style="fill:#E19F3D;" d="M297.838,202.82c-0.032-1.138,0.02-2.412-0.863-3.244c-0.1-0.094-0.294-0.146-0.417-0.054
			c-0.838,0.632-0.999,1.48-1.169,2.492c-0.215,1.277-0.352,2.568-0.536,3.849c-0.37,2.579-0.863,5.149-1.496,7.676
			c-0.614,2.451-1.34,4.865-2.259,7.221c-0.804,2.06-1.711,3.977-2.219,6.119c-0.067,0.284,0.088,0.556,0.366,0.644
			c2.501,0.795,3.813-2.044,4.586-3.876c1.102-2.61,2.021-5.292,2.715-8.04c0.671-2.661,1.09-5.407,1.245-8.147
			C297.877,205.917,297.882,204.366,297.838,202.82z"/>
		<path style="fill:#E19F3D;" d="M284.007,220.401c-0.056-0.241-0.294-0.805-0.626-0.73c-0.328,0.074-0.513,0.126-0.74,0.37
			c-0.152,0.164-0.273,0.361-0.399,0.545c-0.237,0.348-0.415,0.708-0.587,1.092c-0.373,0.834-0.668,1.706-0.944,2.576
			c-0.258,0.81-0.533,1.635-0.7,2.47c-0.094,0.471-0.193,1.022-0.055,1.497c0.164,0.392,0.175,0.415,0.033,0.07
			c0.019,0.099,0.057,0.188,0.113,0.267c0.165,0.284,0.449,0.487,0.764,0.574c1.39,0.383,1.937-1.211,2.213-2.227
			c0.224-0.827,0.432-1.656,0.607-2.495c0.186-0.888,0.356-1.799,0.406-2.706C284.115,221.286,284.1,220.807,284.007,220.401z"/>
		<g>
			<path style="fill:#E19F3D;" d="M275.232,228.776c-0.003,0.004-0.006,0.007-0.008,0.011c-0.009,0.014-0.014,0.019-0.024,0.036
				C275.218,228.796,275.221,228.793,275.232,228.776z"/>
			<path style="fill:#E19F3D;" d="M275.673,226.35c-0.008-0.053-0.015-0.107-0.027-0.16c-0.017-0.077-0.049-0.138-0.083-0.199
				c0.001-0.028,0.002-0.057,0.003-0.085c0.008-0.257-0.202-0.474-0.447-0.507c-0.266-0.036-0.476,0.125-0.566,0.37
				c-0.006,0.018-0.013,0.035-0.02,0.053c-0.147,0.132-0.27,0.288-0.37,0.464c-0.124,0.218-0.238,0.428-0.326,0.665
				c-0.064,0.172-0.124,0.34-0.162,0.52c-0.06,0.289-0.146,0.591-0.084,0.884c0.028,0.244,0.108,0.454,0.277,0.624
				c0.007,0.012,0.009,0.027,0.017,0.039c0.034,0.056,0.086,0.088,0.131,0.127c0.083,0.131,0.218,0.191,0.369,0.115
				c0.057-0.009,0.116-0.01,0.174-0.034c0.017-0.005,0.031-0.016,0.047-0.024c0.183-0.033,0.365-0.115,0.493-0.254
				c0.041-0.053,0.083-0.107,0.124-0.161c0.137-0.214,0.145-0.154,0.249-0.444c0.02-0.057,0.039-0.115,0.058-0.173
				c0.041-0.123,0.09-0.249,0.116-0.376c0.062-0.308,0.102-0.628,0.082-0.941C275.717,226.685,275.7,226.518,275.673,226.35z"/>
			<path style="fill:#E19F3D;" d="M275.232,228.776c0.002-0.003,0.004-0.006,0.007-0.008
				C275.283,228.703,275.272,228.718,275.232,228.776z"/>
		</g>
		<g>
			<path style="fill:#D77F2E;" d="M214.808,160.594c0.005-0.004,0.012-0.008,0.017-0.012c-0.003,0.002-0.006,0.004-0.009,0.006
				C214.813,160.589,214.81,160.592,214.808,160.594z"/>
			<path style="fill:#D77F2E;" d="M225.063,156.057c-0.712-0.793-1.707-1.007-2.678-1.301c-0.637-0.193-1.257-0.441-1.898-0.622
				c-1.52-0.43-3.044-0.439-4.586-0.148c-2.63,0.496-5.754,2.446-6.336,5.229c-0.201,0.961,0.062,1.903,0.859,2.518
				c0.701,0.542,1.889,0.742,2.661,0.188c0.329-0.236,0.657-0.453,0.966-0.721c0.066-0.057,0.132-0.115,0.198-0.174
				c0.193-0.132,0.378-0.281,0.559-0.431c-0.021,0.014-0.04,0.025-0.054,0.031c0.021-0.009,0.041-0.027,0.062-0.038
				c0.033-0.027,0.066-0.054,0.099-0.081c0.241-0.198,0.044-0.017-0.089,0.075c0.169-0.091,0.334-0.232,0.496-0.327
				c0.122-0.072,0.247-0.139,0.374-0.204c0.027-0.014,0.082-0.038,0.132-0.061c0.116-0.042,0.243-0.087,0.291-0.103
				c0.244-0.076,0.491-0.14,0.742-0.19c0.021-0.004,0.043-0.008,0.065-0.011c0.027-0.002,0.049-0.003,0.087-0.006
				c0.226-0.014,0.452-0.017,0.677-0.009c0.075,0.002,0.15,0.008,0.224,0.013c0.502,0.11,0.983,0.26,1.462,0.452
				c0.555,0.221,1.1,0.471,1.667,0.662c1.071,0.361,2.497,0.42,3.447-0.293c0.739-0.555,1.225-1.127,1.352-2.069
				C225.965,157.518,225.678,156.742,225.063,156.057z"/>
		</g>
		<path style="fill:#D77F2E;" d="M270.609,158.516c-0.546-2.056-2.57-3.77-4.364-4.767c-1.706-0.948-3.546-1.467-5.488-1.597
			c-1.92-0.129-3.852,0.283-5.56,1.15c-0.82,0.416-1.556,1.034-2.138,1.744c-0.396,0.483-0.761,0.942-0.946,1.549
			c-0.225,0.736-0.075,1.831,0.558,2.364c0.931,0.785,1.848,0.776,2.971,0.524c0.625-0.14,1.261-0.231,1.888-0.359
			c0.1-0.021,0.622-0.09,0.134-0.038c-0.664,0.071,0.604-0.077,0.456-0.057c-0.051,0.007,0.093-0.014,0.258-0.038
			c0.062-0.005,0.26-0.027,0.32-0.031c0.305-0.021,0.61-0.027,0.915-0.017c0.133,0.004,0.267,0.019,0.399,0.024
			c0.516,0.116,1.022,0.333,1.531,0.446c0.093,0.047,0.186,0.093,0.277,0.142c0.261,0.142,0.515,0.298,0.761,0.464
			c0.041,0.028,0.082,0.057,0.122,0.087c0.008,0.008,0.011,0.011,0.02,0.02c0.239,0.232,0.491,0.453,0.729,0.686
			c0.639,0.623,1.124,1.241,1.877,1.763c1.172,0.814,2.937,0.534,3.992-0.281C270.459,161.415,270.983,159.926,270.609,158.516z"/>
		<path style="fill:#422127;" d="M223.228,172.642c-0.083-1.609-0.497-3.086-1.266-4.047c-0.764-0.954-1.714-1.614-2.931-1.846
			c-1.504-0.286-3.054,0.382-4.021,1.526c-0.958,1.134-1.266,2.736-1.419,4.174c-0.136,1.279-0.223,2.656-0.015,3.937
			c0.282,1.736,1.123,3.5,2.797,4.293C221.006,182.874,223.464,177.225,223.228,172.642z"/>
		<path style="fill:#422127;" d="M263.891,172.948c-0.083-1.609-0.497-3.086-1.266-4.047c-0.764-0.954-1.714-1.614-2.931-1.846
			c-1.504-0.286-3.054,0.382-4.021,1.526c-0.958,1.134-1.266,2.736-1.419,4.174c-0.136,1.279-0.223,2.656-0.015,3.937
			c0.282,1.736,1.123,3.5,2.797,4.293C261.668,183.18,264.126,177.531,263.891,172.948z"/>
		<path style="fill:#DE9974;" d="M243.599,186.298c-0.46-0.356-1.222-0.477-1.729-0.122c-0.289,0.202,0.225-0.119,0.088,0.004
			c-0.134,0.119-0.419,0.147-0.578,0.234c-0.269,0.148-0.517,0.389-0.753,0.589c-0.152,0.129-0.294,0.272-0.441,0.407
			c-0.064,0.042-0.126,0.086-0.191,0.127c-0.148,0.093-0.339,0.16-0.483,0.261c-0.013,0.004-0.026,0.01-0.039,0.014
			c-0.076,0.026-0.152,0.05-0.229,0.071c-0.106,0.03-0.213,0.053-0.32,0.077c-0.172,0.01-0.381,0.047-0.529,0.071
			c-0.016,0.001-0.02,0.001-0.04,0.003c-0.202,0.016-0.404,0.018-0.607,0.006c-0.025-0.001-0.061-0.001-0.096,0.001
			c-0.067-0.012-0.135-0.029-0.198-0.042c-0.198-0.043-0.393-0.098-0.583-0.165c-0.061-0.022-0.3-0.142-0.056-0.017
			c-0.091-0.047-0.184-0.088-0.275-0.137c-0.345-0.185-0.703-0.372-1.023-0.6c-0.348-0.247-0.966-0.491-1.318-0.103
			c-0.803,0.885,0.21,2.326,0.893,2.973c0.814,0.77,1.865,1.366,2.969,1.586c1.292,0.258,2.595-0.055,3.756-0.642
			c0.527-0.266,1.061-0.638,1.476-1.053c0.246-0.245,0.472-0.572,0.622-0.891c0.152-0.324,0.255-0.61,0.256-0.983
			c0-0.096-0.003-0.125-0.008-0.124C244.233,187.24,244.116,186.698,243.599,186.298z"/>
		<path style="fill:#CE5A6B;" d="M243.829,204.71c0.048-0.785,0.003-1.544-0.173-2.39c-0.124-0.599-0.39-1.172-0.64-1.723
			c-0.137-0.301-0.3-0.581-0.499-0.846c-0.332-0.561-0.779-1.008-1.34-1.34c-0.429-0.273-0.892-0.421-1.389-0.443
			c-1.087-0.146-2.393,0.138-3.138,1.027c-1.114,1.331-1.993,2.771-2.428,4.471c-0.402,1.57-0.529,3.362-0.093,4.942
			c0.619,2.243,2.373,4.18,4.8,4.331c0.485,0.03,1.005-0.052,1.47-0.172c0.456-0.118,0.909-0.304,1.304-0.561
			c1.053-0.686,1.682-1.609,2.116-2.765c0.087-0.232,0.141-0.466,0.179-0.711c0.077-0.501,0.161-1.012,0.151-1.522
			C244.133,206.236,243.983,205.467,243.829,204.71z"/>
		<path style="fill:#FFFFFF;" d="M223.266,168.085c-0.001-0.195-0.05-0.377-0.148-0.546c-0.087-0.268-0.236-0.501-0.448-0.697
			c-0.007-0.007-0.015-0.013-0.022-0.02c-0.193-0.208-0.422-0.355-0.687-0.441c-0.254-0.134-0.528-0.195-0.822-0.184
			c-0.189,0.025-0.378,0.051-0.567,0.076c-0.361,0.101-0.675,0.284-0.941,0.548c-0.007,0.007-0.015,0.013-0.022,0.02
			c-0.113,0.146-0.226,0.292-0.339,0.438c-0.073,0.172-0.145,0.345-0.218,0.517c-0.09,0.288-0.103,0.576-0.039,0.863
			c0.001,0.195,0.05,0.378,0.148,0.546c0.051,0.183,0.144,0.342,0.278,0.478c0.096,0.163,0.226,0.292,0.388,0.388
			c0.135,0.134,0.294,0.227,0.478,0.278c0.258,0.136,0.536,0.198,0.834,0.186c0.192-0.026,0.384-0.051,0.576-0.077l0.517-0.218
			c0.146-0.113,0.292-0.226,0.438-0.338c0.113-0.146,0.226-0.292,0.339-0.438c0.073-0.172,0.145-0.345,0.218-0.517
			C223.318,168.66,223.331,168.372,223.266,168.085z"/>
		<path style="fill:#FFFFFF;" d="M263.965,168.747c-0.011-0.247-0.085-0.477-0.22-0.69l-0.038-0.078
			c-0.16-0.27-0.375-0.485-0.645-0.645c-0.206-0.131-0.429-0.202-0.668-0.213c-0.239-0.053-0.478-0.043-0.717,0.032
			c-0.305,0.085-0.569,0.239-0.793,0.462c-0.017,0.022-0.035,0.044-0.052,0.066c-0.097,0.125-0.193,0.25-0.29,0.375
			c-0.136,0.213-0.209,0.443-0.22,0.69c-0.044,0.164-0.044,0.329,0,0.493c0.011,0.247,0.085,0.477,0.22,0.689
			c0.04,0.07,0.089,0.134,0.147,0.191c0.082,0.139,0.193,0.25,0.332,0.332c0.072,0.056,0.125,0.102,0.191,0.147l0.01,0.007
			c0.003,0.002,0.006,0.004,0.009,0.006c0.002,0.001,0.003,0.002,0.005,0.003c0.142,0.059,0.283,0.119,0.425,0.179
			c0.315,0.084,0.63,0.084,0.945,0c0.006-0.003,0.012-0.005,0.017-0.007c0.003-0.001,0.005-0.002,0.008-0.003
			c0.075-0.031,0.148-0.063,0.224-0.094c0.157-0.044,0.293-0.124,0.408-0.238c0.073-0.039,0.137-0.089,0.19-0.148
			c0.097-0.125,0.193-0.25,0.29-0.375c0.135-0.213,0.209-0.443,0.22-0.689C264.009,169.076,264.009,168.911,263.965,168.747z"/>
		<path style="fill:#D78274;" d="M215.479,185.787c-0.926-0.938-2.249-1.691-3.558-1.901c-0.449-0.072-1.006-0.171-1.499-0.18
			c-0.52-0.009-1.108,0.102-1.588,0.177c-0.674,0.105-1.323,0.388-1.925,0.695c-1.174,0.597-2.267,1.706-2.86,2.883
			c-0.287,0.569-0.526,1.179-0.7,1.807c-0.101,0.26-0.188,0.523-0.259,0.782c-0.359,1.303-0.411,2.94,0.07,4.222
			c0.417,1.11,0.792,1.784,1.574,2.691c0.436,0.506,1.002,0.925,1.588,1.247c1.196,0.658,2.58,1.044,3.952,1.011
			c1.291-0.031,2.76-0.344,3.859-1.06c0.497-0.324,1.054-0.731,1.451-1.205c0.778-0.93,1.125-1.511,1.533-2.66
			C218.112,191.495,217.605,187.94,215.479,185.787z"/>
		<path style="fill:#D78274;" d="M276.813,185.802c-1.051-1.065-2.554-1.92-4.04-2.158c-0.51-0.081-1.142-0.194-1.702-0.204
			c-0.591-0.011-1.258,0.116-1.803,0.2c-0.766,0.119-1.502,0.44-2.186,0.789c-1.333,0.678-2.574,1.937-3.247,3.273
			c-0.325,0.646-0.597,1.339-0.795,2.051c-0.115,0.296-0.213,0.594-0.294,0.888c-0.408,1.479-0.467,3.338,0.08,4.793
			c0.474,1.261,0.899,2.025,1.787,3.056c0.495,0.574,1.138,1.051,1.803,1.416c1.358,0.747,2.93,1.186,4.488,1.148
			c1.466-0.036,3.134-0.39,4.381-1.204c0.564-0.368,1.197-0.83,1.648-1.368c0.884-1.056,1.277-1.716,1.741-3.021
			C279.802,192.283,279.226,188.247,276.813,185.802z"/>
		<path style="fill:#2A1214;" d="M274.489,257.319c-0.208-3.786-0.656-7.811-2.156-11.329c-0.982-2.304-3.433-6.26-6.425-5.063
			c-0.368,0.147-0.537,0.459-0.488,0.783c-0.279,0.339-0.455,0.665-0.578,1.184c-0.188,0.79-0.299,1.606-0.448,2.404
			c-0.329,1.763-0.657,3.526-0.986,5.29c-0.628,3.366-1.255,6.732-1.882,10.098c-1.185,6.355-2.391,12.704-4.224,18.91
			c-3.535,11.969-8.793,23.321-13.147,34.995c-1.204,3.228-2.341,6.48-3.332,9.78c-0.516,1.72-0.999,3.45-1.437,5.191
			c-0.041,0.162-0.078,0.326-0.118,0.488c-0.299-0.955-0.601-1.908-0.892-2.866c-0.919-3.02-1.797-6.052-2.657-9.089
			c-1.742-6.154-3.359-12.342-5.014-18.52c-3.273-12.211-6.654-24.582-8.096-37.171c-0.813-7.096-0.704-14.072,0.06-21.164
			c0.013-0.125-0.002-0.236-0.037-0.334c-0.046-0.255-0.197-0.499-0.493-0.679c-3.754-2.283-6.742,1.745-8.142,4.717
			c-1.944,4.126-3.528,8.425-4.71,12.831c-1.164,4.339-1.939,8.783-2.332,13.258c-0.147,1.671-0.215,3.611,1.839,3.998
			c1.021,0.193,2.152,0.055,3.186,0.052c0.678-0.002,1.36-0.016,2.042-0.02c-0.659,1.205-1.595,2.228-2.456,3.344
			c-1.332,1.724-2.167,3.565-1.958,5.79c0.453,4.813,1.905,9.716,3.408,14.291c3.03,9.223,7.494,17.988,13.204,25.84
			c1.59,2.186,3.27,4.31,5.039,6.353c1.753,2.024,3.553,4.416,5.888,5.77c0.559,0.324,1.186,0.074,1.508-0.378
			c0.073,0.047,0.134,0.101,0.213,0.144c0.372,0.201,0.957,0.122,1.154-0.303c0.02-0.043,0.036-0.08,0.055-0.122
			c0.077-0.018,0.155-0.046,0.231-0.095c1.956-1.248,3.48-3.201,5.003-4.935c1.597-1.818,3.146-3.678,4.644-5.578
			c2.978-3.777,5.816-7.626,8.393-11.69c5.193-8.19,9.639-16.98,12.938-26.107c0.878-2.428,1.09-4.828-0.58-6.955
			c-0.966-1.23-2.548-2.207-3.294-3.612c2.636-1.646,5.13-3.603,6.079-6.705c0.6-1.96,0.758-4.126,0.918-6.16
			C274.584,261.75,274.61,259.53,274.489,257.319z M234.046,329.624c-1.555-1.733-3.043-3.532-4.45-5.388
			c-2.835-3.742-5.383-7.701-7.617-11.83c-4.478-8.278-7.659-17.237-9.38-26.491c-0.233-1.254-0.546-2.585-0.128-3.833
			c0.32-0.957,0.97-1.79,1.593-2.57c1.375-1.721,2.829-3.367,3.037-5.649c0.058-0.636-0.619-1.293-1.246-1.246
			c-1.923,0.146-3.887,0.066-5.815,0.071c-0.097,0-0.931-0.051-0.777,0.109c-0.142-0.147,0.012-0.952,0.021-1.084
			c0.058-0.83,0.139-1.658,0.229-2.485c0.389-3.579,1.059-7.128,1.968-10.611c0.878-3.365,1.987-6.674,3.325-9.884
			c0.849-2.036,2.787-7.973,5.963-6.811c-2.829,11.99-0.742,24.962,1.83,36.79c1.371,6.308,2.965,12.568,4.441,18.852
			c1.482,6.309,3.067,12.586,4.785,18.835c0.944,3.434,1.932,6.856,2.964,10.264c0.516,1.704,1.043,3.405,1.582,5.102
			c0.041,0.13,0.079,0.262,0.118,0.393C235.676,331.309,234.822,330.489,234.046,329.624z M271.045,268.586
			c-0.713,3.212-3.348,4.887-6.001,6.475c-0.552,0.33-0.751,0.941-0.629,1.547c0.35,1.747,1.588,2.974,2.836,4.153
			c0.553,0.523,1.147,1.042,1.568,1.682c0.69,1.05,0.506,2.217,0.157,3.362c-1.355,4.44-3.372,8.784-5.374,12.963
			c-3.979,8.312-8.827,16.335-14.384,23.692c-1.572,2.082-3.217,4.11-4.913,6.093c-0.949,1.11-2.021,2.186-3.012,3.312
			c0.104-0.408,0.206-0.816,0.312-1.223c0.416-1.593,0.864-3.177,1.344-4.751c0.918-3.007,1.936-5.986,3.015-8.939
			c2.115-5.787,4.478-11.478,6.776-17.194c2.352-5.85,4.641-11.733,6.509-17.758c1.905-6.144,3.206-12.423,4.386-18.74
			c0.687-3.677,1.368-7.354,2.052-11.031c0.358-1.924,0.716-3.847,1.073-5.771c0.174-0.937,0.359-1.873,0.523-2.811
			c0.369,0.263,0.717,0.542,1.026,0.894c0.83,0.945,1.401,2.131,1.815,3.309c1.108,3.154,1.468,6.624,1.624,9.944
			C271.916,261.35,271.82,265.097,271.045,268.586z"/>
		<path style="fill:#2A1214;" d="M156.766,263.108c-0.096-3.092-0.193-6.181-0.406-9.268c-0.112-1.625-0.228-3.249-0.354-4.873
			c-0.117-1.503-0.166-3.06-0.689-4.484c-0.12-0.326-0.653-0.401-0.738,0c-0.537,2.528-0.059,5.326,0.011,7.895
			c0.075,2.763,0.13,5.527,0.176,8.29c0.092,5.532-0.048,11.063-0.242,16.591c-0.389,11.119-1.255,22.289-2.667,33.326
			c-0.396,3.098-0.855,6.182-1.388,9.26c-0.264,1.522-0.5,3.048-0.758,4.571c-0.26,1.534-0.739,3.049-0.325,4.585
			c0.289,1.072,1.636,1.108,2.213,0.289c0.799-1.133,0.865-2.463,1.087-3.802c0.225-1.365,0.453-2.729,0.648-4.099
			c0.396-2.789,0.729-5.589,1.081-8.383c0.701-5.566,1.284-11.149,1.727-16.742C157.015,285.23,157.111,274.168,156.766,263.108z"/>
		<path style="fill:#2A1214;" d="M149.795,245.205c-1.145-0.063-2.253,0.474-3.334,0.799c-0.995,0.3-1.994,0.588-3.005,0.826
			c-2.176,0.511-4.439,0.838-6.677,0.698c-3.715-0.232-7.33-1.685-9.898-4.404c-0.558-0.591-1.56,0.174-1.129,0.871
			c2.229,3.601,6.222,5.485,10.309,5.98c2.424,0.294,4.859,0.123,7.253-0.324c1.239-0.231,2.468-0.529,3.675-0.891
			c1.249-0.375,2.64-0.684,3.63-1.566C151.421,246.482,150.74,245.257,149.795,245.205z"/>
		<path style="fill:#2A1214;" d="M333.548,247.653c-0.117-0.451-0.673-0.448-0.914-0.119c-0.766,1.044-1.022,2.288-1.342,3.526
			c-0.343,1.33-0.63,2.669-0.917,4.012c-0.592,2.765-1.146,5.539-1.712,8.309c-1.124,5.5-2.245,11.003-3.222,16.531
			c-1.927,10.908-3.008,21.932-3.273,33.006c-0.074,3.096-0.088,6.192-0.039,9.288c0.043,2.792-0.253,6.326,1.839,8.505
			c0.138,0.145,0.335,0.081,0.442-0.057c1.616-2.095,1.302-4.986,1.25-7.47c-0.057-2.77-0.066-5.541-0.026-8.311
			c0.082-5.54,0.359-11.077,0.831-16.598c0.941-10.999,2.634-21.86,4.595-32.718c0.547-3.031,1.117-6.058,1.638-9.093
			c0.251-1.461,0.523-2.92,0.714-4.391C333.602,250.603,333.928,249.111,333.548,247.653z"/>
		<path style="fill:#2A1214;" d="M360.879,248.607c-1.008,0.337-1.885,0.958-2.889,1.322c-1.007,0.365-2.064,0.621-3.124,0.774
			c-2.156,0.31-4.425,0.233-6.581-0.047c-2.228-0.29-4.435-0.878-6.521-1.709c-1.072-0.427-2.124-0.918-3.141-1.465
			c-0.931-0.501-1.763-1.091-2.802-1.346c-0.562-0.138-1.101,0.483-0.775,1.008c1.183,1.9,3.828,3.08,5.81,3.956
			c2.329,1.028,4.767,1.786,7.283,2.185c2.421,0.384,4.83,0.459,7.26,0.111c2.18-0.313,5.159-0.97,6.734-2.633
			C362.974,249.872,362.152,248.181,360.879,248.607z"/>
		<path style="fill:#2A1214;" d="M187.663,294.73c-0.128-0.117-0.366-0.183-0.521-0.067c-1.123,0.838-0.879,3.014-0.986,4.291
			c-0.164,1.96-0.356,3.917-0.531,5.876c-0.343,3.833-0.719,7.662-1.155,11.486c-0.441,3.874-0.876,7.746-1.402,11.61
			c-0.258,1.891-0.565,3.778-0.797,5.673c-0.237,1.94,0.003,3.875,0.062,5.817c0.008,0.283,0.382,0.316,0.476,0.064
			c0.683-1.835,1.519-3.616,1.862-5.557c0.342-1.931,0.581-3.884,0.843-5.827c0.508-3.756,0.984-7.52,1.366-11.291
			c0.387-3.821,0.684-7.654,0.94-11.485c0.131-1.956,0.209-3.916,0.286-5.875C188.156,298.152,188.72,295.692,187.663,294.73z"/>
		<path style="fill:#2A1214;" d="M300.225,332.356c-0.337-3.833-0.612-7.674-0.778-11.518c-0.163-3.751-0.179-7.501-0.049-11.254
			c0.065-1.871,0.19-3.737,0.318-5.604c0.067-0.973,0.16-1.943,0.231-2.915c0.054-0.746,0.174-1.222-0.395-1.759
			c-0.147-0.139-0.344-0.155-0.521-0.067c-1.251,0.622-1.158,3.246-1.329,4.469c-0.261,1.868-0.421,3.751-0.542,5.633
			c-0.244,3.824-0.241,7.669-0.128,11.498c0.114,3.847,0.385,7.685,0.723,11.518c0.313,3.556,0.232,7.713,2.057,10.898
			c0.125,0.217,0.442,0.158,0.514-0.067C301.427,339.762,300.532,335.845,300.225,332.356z"/>
		<path style="fill:#2A1214;" d="M242.125,356.967c-0.335-0.974-0.979-1.909-1.931-2.369c-0.911-0.44-2.005-0.578-2.973-0.221
			c-0.559,0.206-1.006,0.451-1.448,0.856c-0.222,0.204-0.4,0.441-0.551,0.695c-0.302,0.261-0.579,0.545-0.77,0.908
			c-0.279,0.529-0.393,1.003-0.451,1.591c-0.043,0.435,0.018,0.896,0.125,1.316c0.102,0.401,0.272,0.811,0.499,1.157
			c0.547,0.835,1.39,1.522,2.393,1.708c1.07,0.198,2.125,0.042,3.079-0.493C241.868,361.123,242.793,358.913,242.125,356.967z"/>
		<path style="fill:#2A1214;" d="M242.125,400.993c-0.335-0.974-0.979-1.909-1.931-2.369c-0.911-0.44-2.005-0.578-2.973-0.221
			c-0.559,0.206-1.006,0.451-1.448,0.856c-0.222,0.204-0.4,0.441-0.551,0.695c-0.302,0.261-0.579,0.545-0.77,0.908
			c-0.279,0.529-0.393,1.002-0.451,1.591c-0.043,0.435,0.018,0.896,0.125,1.316c0.102,0.401,0.272,0.811,0.499,1.157
			c0.547,0.835,1.39,1.522,2.393,1.707c1.07,0.198,2.125,0.042,3.079-0.493C241.868,405.149,242.793,402.939,242.125,400.993z"/>
		<path style="fill:#2A1214;" d="M206.707,368.557c-1.331,0.292-2.124,1.33-2.992,2.286c-0.687,0.758-1.375,1.515-2.062,2.272
			c-1.359,1.498-2.656,3.059-4.052,4.522c-1.224,1.283-2.547,2.427-3.993,3.453c-1.546,1.098-3.053,2.251-4.6,3.345
			c-1.121,0.793-0.477,2.646,0.963,2.285c1.943-0.488,3.754-1.129,5.492-2.143c1.663-0.97,3.266-2.07,4.809-3.222
			c1.694-1.264,3.244-2.624,4.726-4.128c0.801-0.813,1.603-1.627,2.404-2.441c0.919-0.933,2.088-1.858,2.312-3.221
			C210.021,369.706,208.651,368.13,206.707,368.557z"/>
		<path style="fill:#2A1214;" d="M294.043,386.206c-0.313-1.368-1.374-2.118-2.526-2.616c-3.107-1.342-6.238-3.351-8.797-5.862
			c-1.67-1.639-3.155-3.444-4.644-5.244c-0.707-0.854-1.368-1.744-2.072-2.6c-0.736-0.895-1.631-2.02-2.696-2.512
			c-0.997-0.461-2.371,0.067-2.322,1.332c0.081,2.055,1.567,4.127,2.632,5.819c1.142,1.814,2.39,3.536,3.754,5.191
			c2.493,3.024,5.45,5.765,8.862,7.727c1.838,1.057,4.601,2.486,6.659,1.263C293.766,388.186,294.27,387.196,294.043,386.206z"/>
		<path style="fill:#422127;" d="M197.661,485.798c-0.582-2.885-1.093-5.792-1.531-8.703c-0.867-5.77-1.314-11.612-1.871-17.417
			c-0.12-1.253-1.835-1.257-1.953,0c-0.564,5.982-0.265,11.917,0.435,17.876c0.671,5.712,1.19,12.08,4.514,16.94
			c0.348,0.509,1.078,0.301,1.128-0.306C198.624,491.284,198.234,488.638,197.661,485.798z"/>
		<path style="fill:#422127;" d="M298.101,471.295c-0.294-2.029-0.586-4.124-1.692-5.888c-0.183-0.291-0.66-0.254-0.75,0.098
			c-0.481,1.877-0.331,3.815-0.365,5.736c-0.037,2.105-0.03,4.213-0.163,6.315c-0.128,2.026-0.323,4.063-0.574,6.077
			c-0.199,1.595-0.83,4.04,0.46,5.35c0.134,0.135,0.384,0.226,0.57,0.151c1.781-0.72,2.099-3.151,2.342-4.825
			c0.316-2.179,0.508-4.334,0.527-6.536C298.474,475.609,298.411,473.44,298.101,471.295z"/>
		<path style="fill:#422127;" d="M282.834,484.434c-0.029-0.411-0.68-0.563-0.767-0.104c-0.116,0.605-0.414,1.219-0.618,1.801
			c-0.216,0.619-0.299,1.299-0.469,1.935c-0.168,0.625-0.287,1.251-0.427,1.883c-0.075,0.339-0.115,0.671-0.149,1.016
			c-0.032,0.324-0.107,0.634,0.017,0.948c0.103,0.26,0.344,0.367,0.603,0.245c0.332-0.157,0.502-0.474,0.698-0.769
			c0.199-0.299,0.346-0.579,0.484-0.912c0.27-0.652,0.49-1.278,0.618-1.973c0.126-0.69,0.308-1.448,0.267-2.149
			C283.053,485.708,282.878,485.068,282.834,484.434z"/>
	</g>
</g>
</svg>
