<?xml version="1.0" encoding="utf-8"?>
<!-- Generator: Adobe Illustrator 27.5.0, SVG Export Plug-In . SVG Version: 6.00 Build 0)  -->
<svg version="1.1" xmlns="http://www.w3.org/2000/svg" xmlns:xlink="http://www.w3.org/1999/xlink" x="0px" y="0px"
	 viewBox="0 0 500 500" style="enable-background:new 0 0 500 500;" xml:space="preserve">
<g id="BACKGROUND">
	<rect style="fill:#FFFFFF;" width="500" height="500"/>
</g>
<g id="OBJECTS">
	<path style="fill:#F8EBF3;" d="M92.526,175.036C64.74,221.93,60.675,283.14,85.858,331.482
		c7.782,14.939,18.07,28.455,29.308,41.002c13.736,15.335,29.063,29.406,46.553,40.265c38.665,24.005,87.934,30.874,131.186,16.713
		c18.69-6.119,36.042-15.901,51.918-27.509c21.674-15.847,41.127-35.691,52.271-60.118c6.632-14.538,10.154-30.3,12.681-46.079
		c6.502-40.605,6.514-83.108-7.254-121.857c-13.767-38.749-42.711-73.349-81.359-87.398
		c-67.994-24.717-145.855,1.259-196.955,49.243C111.903,147.299,101.135,160.507,92.526,175.036z"/>
	<g>
		<path style="fill:#422127;" d="M342.156,162.375c0.416-3.593-0.23-7.263-1.645-10.577c-0.754-1.766-1.755-3.557-3.034-5.073
			c0.057-0.103,0.115-0.208,0.165-0.303c1.775-3.389,2.307-7.285,1.855-11.062c-0.715-5.966-3.841-14.124-10.282-15.486
			c1.443-3.805,1.416-8.09-0.25-11.865c-1.035-2.346-2.681-4.412-4.74-5.869c0.419-0.943,0.746-1.859,0.981-2.548
			c1.095-3.218,1.408-6.746,0.997-10.114c-0.855-7.016-4.766-14.067-11.569-16.799c-3.047-1.224-6.388-1.383-9.484-0.456
			c-0.896-3.317-2.96-6.181-6.027-7.959c-2.752-1.595-6.51-2.233-9.651-1.238c-1.853-2.798-4.26-5.183-7.053-7.041
			c-5.887-3.918-13.309-5.083-20.115-3.17c-1.516,0.426-3.007,1.005-4.425,1.71c-1.431-1.61-3.326-2.926-4.951-4.035
			c-1.819-1.243-3.724-2.47-5.904-2.959c-2.236-0.501-4.568-0.349-6.773,0.229c-3.775,0.989-7.265,3.188-9.917,6.034
			c-1.244,1.335-2.345,2.832-3.227,4.432c-1.994-1.233-4.481-1.969-6.417-2.287c-3.788-0.622-7.633-0.209-11.148,1.358
			c-3.394,1.514-6.241,4.169-8.218,7.295c-1.701,2.691-2.484,5.537-2.857,8.57c-6.54-1.408-13.625-0.055-19.191,3.686
			c-6.221,4.181-9.992,10.989-10.704,18.404c-0.144,1.494-0.128,2.986,0.005,4.473c-0.194,0.066-0.387,0.133-0.581,0.215
			c-2.024,0.845-3.766,2.261-5.042,4.04c-2.111,2.943-2.512,6.676-1.651,10.104c-3.119,0.207-6.091,1.635-8.475,3.702
			c-3.189,2.763-5.1,6.747-5.952,10.828c-0.881,4.221-0.927,8.703-0.267,12.958c0.319,2.055,0.907,4.073,1.887,5.915
			c0.087,0.163,0.199,0.309,0.294,0.467c-0.967,0.8-1.825,1.688-2.487,2.431c-2.304,2.589-4.027,5.756-4.935,9.103
			c-1.933,7.122-0.203,14.714,3.846,20.783c1.072,1.607,2.296,3.118,3.617,4.528c-1.117,2.354-1.074,5.361-0.913,7.91
			c0.286,4.545,1.711,8.641,4.934,11.741c-0.916,1.469-1.414,3.321-1.624,4.922c-0.314,2.393,0.046,4.78,1.06,6.971
			c0.941,2.033,2.499,3.75,4.327,5.026c1.048,0.731,2.336,1.407,3.667,1.773c-0.035,4.166,1.858,8.452,4.73,11.341
			c3.755,3.777,9.284,5.418,14.491,4.599c1.359,5.667,4.952,10.687,9.773,13.959c5.453,3.701,12.409,4.649,18.734,2.933
			c2.106-0.571,4.105-1.443,5.957-2.563c1.396,2.65,3.953,4.71,6.938,5.228c1.732,0.301,3.522,0.161,5.173-0.458
			c0.624-0.234,1.378-0.573,2.085-1.003c0.032,0.03,0.065,0.061,0.096,0.09c1.402,1.328,2.885,2.564,4.463,3.678
			c3.18,2.243,6.786,3.942,10.575,4.858c6.856,1.657,14.28,0.477,19.951-3.843c2.38-1.813,4.298-4.084,5.593-6.729
			c5.54,3.838,12.781,5.31,19.128,2.539c4.044-1.766,7.307-5.315,8.806-9.453c0.485,0.171,0.975,0.324,1.469,0.445
			c2.778,0.678,5.771,0.627,8.491-0.29c4.565-1.539,8.261-5.231,9.884-9.735c5.472,2.389,12.33-0.298,15.194-5.694
			c1.825-3.437,2.157-7.398,1.526-11.191c-0.053-0.32-0.12-0.648-0.186-0.976c0.41-0.244,0.803-0.521,1.162-0.829
			c1.734-1.49,2.788-3.713,3.123-5.948c0.406-2.707-0.027-5.423-0.849-8.015c-0.229-0.721-0.494-1.416-0.848-2.066
			c1.042-0.996,1.95-2.137,2.618-3.414c1.874-3.583,2.23-7.777,1.808-11.746c-0.38-3.577-1.171-7.153-2.801-10.381
			c-0.509-1.009-1.127-1.982-1.845-2.866c1.079-1.05,2.052-2.203,2.885-3.376C340.47,169.327,341.747,165.911,342.156,162.375z"/>
		<path style="fill:#2A1214;" d="M337.477,146.725c0.057-0.103,0.115-0.208,0.165-0.303c1.775-3.389,2.307-7.285,1.855-11.062
			c-0.205-1.715-0.618-3.61-1.243-5.473c-0.674,4.182-1.856,8.213-4.177,11.725c-4.064,6.148-12.883,9.81-19.048,5.772
			c-2.758,3.601-8.792,3.205-12.043,0.04c-3.25-3.164-4.12-8.114-3.668-12.628c-3.93,2.885-9.984,0.458-12.358-3.8
			c-2.375-4.258-1.954-9.515-0.845-14.263c-5.317,1.066-11.066,0.985-15.893-1.486c-4.827-2.471-8.461-7.713-7.906-13.107
			c-3.207,3.692-8.481,5.456-13.264,4.437c-4.783-1.019-8.879-4.781-10.302-9.459c-4.115,4.178-8.748,8.106-14.332,9.898
			c-5.584,1.792-12.309,1.029-16.39-3.181c-2.071,4.352-4.242,8.838-7.895,11.983c-3.652,3.146-9.221,4.6-13.366,2.138
			c-0.478,5.457-1.129,11.105-3.957,15.797c-2.828,4.691-8.451,8.149-13.749,6.754c-0.261,5.537-1.075,11.195-3.745,16.053
			c-2.67,4.858-7.499,8.812-13.029,9.185c-4.421,0.298-9.031-2.23-10.966-6.074c-1.854,7.068-0.123,14.581,3.89,20.598
			c1.072,1.607,2.296,3.118,3.617,4.528c-1.117,2.354-1.074,5.361-0.913,7.91c0.286,4.545,1.711,8.641,4.934,11.741
			c-0.916,1.469-1.414,3.321-1.624,4.922c-0.314,2.393,0.046,4.78,1.06,6.971c0.941,2.033,2.499,3.75,4.327,5.026
			c1.048,0.731,2.336,1.407,3.667,1.773c-0.035,4.166,1.858,8.452,4.73,11.341c3.755,3.777,9.284,5.418,14.491,4.599
			c1.359,5.667,4.952,10.687,9.773,13.959c5.453,3.701,12.409,4.649,18.734,2.933c2.106-0.571,4.105-1.443,5.957-2.563
			c1.396,2.65,3.953,4.71,6.938,5.228c1.732,0.301,3.522,0.161,5.173-0.458c0.624-0.234,1.378-0.573,2.085-1.003
			c0.032,0.03,0.065,0.061,0.096,0.09c1.402,1.328,2.885,2.564,4.463,3.678c3.18,2.243,6.786,3.942,10.575,4.858
			c6.856,1.657,14.28,0.477,19.951-3.843c2.38-1.813,4.298-4.084,5.593-6.729c5.54,3.838,12.781,5.31,19.128,2.539
			c4.044-1.766,7.307-5.315,8.806-9.453c0.485,0.171,0.975,0.324,1.469,0.445c2.778,0.678,5.771,0.627,8.491-0.29
			c4.565-1.539,8.261-5.231,9.884-9.735c5.472,2.389,12.33-0.298,15.194-5.694c1.825-3.437,2.157-7.398,1.526-11.191
			c-0.053-0.32-0.12-0.648-0.186-0.976c0.41-0.244,0.803-0.521,1.162-0.829c1.734-1.49,2.788-3.713,3.123-5.948
			c0.406-2.707-0.027-5.423-0.849-8.015c-0.229-0.721-0.494-1.416-0.848-2.066c1.042-0.996,1.95-2.137,2.618-3.414
			c1.874-3.583,2.23-7.777,1.808-11.746c-0.38-3.577-1.171-7.153-2.801-10.381c-0.509-1.009-1.127-1.982-1.845-2.866
			c1.079-1.05,2.052-2.203,2.885-3.376c2.066-2.907,3.343-6.324,3.753-9.86c0.416-3.593-0.23-7.263-1.645-10.577
			C339.757,150.032,338.756,148.241,337.477,146.725z"/>
		<path style="fill:#CC5072;" d="M169.039,423.381c0,0-7.219,45.723-4.394,76.619H326.36c0,0-7.218-65.319-14.941-81.327
			c0,0-82.114-4.394-83.997-4.081C225.539,414.906,169.039,423.381,169.039,423.381z"/>
		<path style="fill:#A26349;" d="M309.347,334.865c-14.439-24.012-13.968-45.671-13.968-45.671l38.137-12.712
			c0,0,13.654,32.487,17.421,38.608c3.767,6.121-16.479,16.008-19.304,16.479C328.808,332.04,309.347,334.865,309.347,334.865z"/>
		<path style="fill:#A26349;" d="M146.596,264.24c0,0-9.888,39.079-11.3,39.55c-1.413,0.471,13.654,40.491,13.654,40.491
			l12.869,0.314c11.614-20.089,20.56-60.58,20.56-60.58L146.596,264.24z"/>
		<path style="fill:#EBBB50;" d="M204.195,231.282c-15.38-5.964-34.214-16.636-62.464,30.761c0,0,14.125,27.936,36.725,31.703
			c0,0,1.569,85.063-14.439,128.694c0,0,77.844,46.142,153.491,0.314c0,0-24.797-72.508-18.206-126.497
			c0,0,23.855-1.256,42.375-21.344c0,0-10.672-30.447-26.367-45.828c-15.694-15.381-29.794-5.795-39.55-0.314
			c-9.756,5.481-35.469,13.811-37.039,13.183c-1.57-0.628-20.717-0.314-21.658-0.314
			C216.122,241.641,204.195,231.282,204.195,231.282z"/>
		<path style="fill:#A26349;" d="M223.342,216.529c0,0,0.628,5.022-1.569,12.242c-2.197,7.219-17.578,2.511-17.578,2.511
			s5.65,21.344,34.214,21.972c28.564,0.628,37.353-24.483,37.353-24.483s-3.139,3.453-12.242,2.511
			c-9.103-0.942-11.614-17.892-11.614-17.892L223.342,216.529z"/>
		<path style="fill:#A26349;" d="M161.82,344.596c0,0-24.144-51.755-59.325-113.627c-6.548-11.515-25.739-28.25-29.819-29.819
			c-4.081-1.569-5.022,4.081-3.139,6.906c1.883,2.825,7.847,9.417,7.847,9.417s-10.672-5.65-15.38-8.475
			c-4.708-2.825-5.964-9.73-8.789-10.986c-2.825-1.256-5.336,0.314-4.394,4.081c0,0-6.278-1.57-5.022,5.022
			c0,0-3.815,1.491-1.883,6.906c0,0-1.256,2.825,3.453,8.789c4.708,5.964,11.857,12.317,16.636,14.439
			c4.779,2.122,17.578,8.161,20.716,11.928c3.139,3.767,10.563,51.944,30.133,81.925C142.359,376.298,161.82,344.596,161.82,344.596
			z"/>
		<path style="fill:#A26349;" d="M309.347,334.865c0,0,36.097-39.55,84.436-57.128c0,0,3.453-4.081,11.614-4.394
			c8.161-0.314,24.169-0.942,28.878-2.511c4.708-1.569,5.964,3.767,2.197,5.964c-3.767,2.197-13.497,6.278-13.497,6.278
			s5.186,2.769,13.034,1.2c7.847-1.569,10.194-7.478,13.333-6.536c3.139,0.942,2.825,4.081,2.825,4.081s6.905,0.314,5.022,6.906
			c0,0,2.825,1.569,0,6.906c0,0,0.314,2.825-4.395,7.533c-4.708,4.708-14.753,6.278-21.658,6.278c-6.905,0-16.165-6.615-22.914-4.08
			c-6.749,2.534-31.703,33.586-51.792,42.375C336.341,356.523,323.158,357.465,309.347,334.865z"/>
		<path style="fill:#8C4732;" d="M250.049,231.11c3.02-0.272,6.044-0.897,8.882-1.954c-5.393-4.769-7.026-15.765-7.026-15.765
			l-28.564,3.139c0,0,0.385,3.135-0.53,8.001C230.894,229.525,240.577,231.962,250.049,231.11z"/>
		<path style="fill:#A26349;" d="M285.256,161.128c0,0,13.476-2.47,14.517,10.201c0.942,11.457-5.101,15.224-17.107,13.811
			c0,0-5.876,38.152-49.673,37.431c-42.924-0.706-44.258-61.443-42.375-79.1c0,0,20.246-6.592,22.6-22.129
			c0,0,18.833,7.298,28.956-5.885c0,0,8.71,18.833,24.248,11.064c0,0-1.883,13.654,10.358,14.831
			C276.781,141.353,271.602,155.714,285.256,161.128z"/>
		<path style="fill:#8C4732;" d="M289.762,173.446c-0.479-0.177-1.023-0.239-1.564-0.202c0.021-0.089,0.046-0.192,0.053-0.227
			c0.038-0.17,0.083-0.339,0.133-0.506c0.05-0.164,0.11-0.323,0.167-0.484c0.03-0.066,0.061-0.132,0.093-0.197
			c0.155-0.313,0.333-0.615,0.533-0.902c0.027-0.038,0.055-0.076,0.082-0.114c0.013-0.016,0.025-0.031,0.047-0.057
			c0.113-0.133,0.219-0.271,0.336-0.401c0.208-0.23,0.438-0.439,0.678-0.636c0.072-0.049,0.237-0.168,0.275-0.192
			c0.146-0.092,0.296-0.179,0.444-0.267c0.459-0.271,0.851-0.554,1.044-1.038c0.386-0.635,0.132-1.466-0.595-1.732
			c-1.566-0.884-3.921,0.962-4.858,2.141c-1.167,1.468-1.865,3.202-1.975,5.081c-0.11,1.863,0.492,3.998,2,5.193
			c0.954,0.757,2.173,1.191,3.368,0.74c1.251-0.473,2.034-1.646,2.028-2.983C292.045,175.194,291.124,173.949,289.762,173.446z"/>
		<path style="fill:#8C4732;" d="M276.781,141.353c-12.242-1.177-10.358-14.831-10.358-14.831
			c-15.537,7.769-24.248-11.064-24.248-11.064c-10.123,13.183-28.956,5.885-28.956,5.885c-2.354,15.537-22.6,22.129-22.6,22.129
			c-0.009,0.088-0.018,0.183-0.027,0.273c10.985,1.168,22.512-5.043,27.346-15.027c7.674,4.213,18.053,2.725,24.234-3.475
			c1.645,5.996,8.566,9.976,14.576,8.38c1.358,3.266,2.831,6.584,5.303,9.114c2.472,2.529,6.179,4.145,9.591,3.215
			c-0.716,4.959,3.271,9.187,7.904,11.481C273.318,150.973,276.781,141.353,276.781,141.353z"/>
		<g>
			<path style="fill:#5E303B;" d="M231.078,74.732c0.067-0.003,0.159-0.012,0.196-0.026c-0.041,0.004-0.081,0.006-0.122,0.009
				C231.129,74.721,231.106,74.726,231.078,74.732z"/>
			<path style="fill:#5E303B;" d="M237.754,72.768c-0.18-0.887-1.083-1.569-1.843-1.991c-0.621-0.345-1.332-0.492-2.028-0.592
				c-2.421-0.347-4.9,0.083-7.058,1.228c-0.153-0.268-0.335-0.531-0.571-0.786c-0.769-0.836-1.895-1.289-2.972-1.59
				c-2.052-0.574-4.325-0.529-6.367,0.065c-2.129,0.619-4.063,1.868-5.652,3.398c-1.653,1.592-3.183,3.669-3.687,5.917
				c-0.137,0.609-0.037,1.387,0.48,1.814c0.184,0.152,0.37,0.345,0.606,0.415c0.072,0.022,0.144,0.043,0.217,0.065
				c0.636,0.189,1.35-0.018,1.814-0.48c0.385-0.383,0.795-0.712,1.117-1.154c0.267-0.368,0.508-0.753,0.778-1.119
				c0.411-0.558,1.017-1.23,1.582-1.792c0.643-0.64,1.104-1.065,1.784-1.512c0.372-0.245,0.759-0.469,1.158-0.669
				c0.038-0.019,0.315-0.143,0.408-0.187c0.098-0.031,0.406-0.139,0.401-0.137c1.41-0.451,2.614-0.516,3.896-0.197
				c0.192,0.048,0.383,0.101,0.571,0.163c-0.01-0.003,0.415,0.154,0.416,0.15c0.119,0.049,0.401,0.175,0.689,0.295
				c-0.23,0.266-0.452,0.542-0.661,0.831c-0.764,1.057-1.848,3.407-1.047,4.721c0.001,0.005,0.003,0.01,0.004,0.015
				c0.39,1.295,1.809,1.445,2.687,0.679c0.482-0.287,0.764-0.798,0.994-1.328c-0.201,0.462,0.103-0.199,0.178-0.337
				c0.121-0.221,0.254-0.437,0.397-0.644c0.12-0.174,0.335-0.639,0.52-0.749c-0.054,0.069-0.107,0.138-0.161,0.207
				c0.063-0.079,0.128-0.157,0.194-0.234c0.066-0.077,0.134-0.153,0.203-0.227c0.208-0.225,0.427-0.438,0.657-0.639
				c0.077-0.067,0.157-0.131,0.234-0.198c0.002-0.002,0.002-0.002,0.004-0.004c0.012-0.008,0.016-0.009,0.031-0.019
				c0.258-0.17,0.51-0.345,0.778-0.5c0.223-0.129,0.452-0.249,0.685-0.359c0.047-0.022,0.094-0.044,0.141-0.065
				c0.032-0.014,0.047-0.021,0.068-0.03c0.043-0.013,0.083-0.026,0.105-0.033c0.093-0.034,1.127-0.319,1.577-0.423
				c-0.085,0.004-0.125-0.001,0.058-0.015c0.005,0,0.01-0.001,0.015-0.001c0.08-0.017,0.14-0.028,0.14-0.022
				c0,0.005-0.008,0.008-0.018,0.012c0.107-0.009,0.213-0.02,0.32-0.025c0.254-0.013,0.508-0.015,0.762-0.006
				c0.112,0.004,0.223,0.014,0.334,0.022c0.163,0.101,0.753,0.142,0.916,0.188c0.51,0.146,1.033,0.247,1.554,0.347
				C236.71,75.53,238.085,74.399,237.754,72.768z"/>
		</g>
		<path style="fill:#5E303B;" d="M286.344,80.804c-0.247-0.897-0.627-1.789-1.107-2.586c-0.963-1.6-2.402-3.034-4.106-3.829
			c-1.808-0.843-3.741-1.158-5.721-0.892c-1.007,0.135-1.948,0.379-2.845,0.875c-0.359,0.198-0.692,0.427-1.019,0.673
			c-0.614,0.464-0.853,0.967-1.095,1.675c-0.309,0.905,0.51,1.912,1.435,1.884c0.479-0.014,0.889-0.013,1.357-0.168
			c0.057-0.024,0.099-0.041,0.135-0.057c0.078-0.031,0.156-0.06,0.236-0.088c0.146-0.051,0.294-0.099,0.443-0.141
			c0.331-0.094,0.669-0.166,1.003-0.251c0.152-0.039,0.306-0.074,0.46-0.104c0.088-0.017,0.655-0.052,0.176-0.033
			c0.347-0.014,0.688-0.047,1.035-0.037c0.158,0.004,0.314,0.017,0.471,0.026c0.042,0.002,0.059,0.002,0.087,0.003
			c0.025,0.006,0.041,0.01,0.079,0.018c0.339,0.071,0.672,0.146,1.002,0.253c0.089,0.029,0.176,0.063,0.263,0.095
			c-0.016,0.001,0.289,0.132,0.334,0.155c0.276,0.144,0.531,0.315,0.791,0.484c0.027,0.017,0.038,0.024,0.057,0.035
			c0.017,0.017,0.035,0.035,0.069,0.067c0.136,0.126,0.273,0.246,0.404,0.377c0.109,0.109,0.214,0.221,0.316,0.336
			c0.045,0.051,0.081,0.093,0.11,0.126c0.197,0.27,0.383,0.549,0.546,0.841c0.075,0.135,0.146,0.272,0.213,0.411
			c0.019,0.04,0.033,0.07,0.046,0.101c0.106,0.299,0.211,0.595,0.289,0.904c0.082,0.326,0.162,0.657,0.227,0.987
			c0.018,0.09,0.098,0.701,0.026,0.12c0.058,0.469,0.124,0.87,0.4,1.277c0.912,1.343,2.849,1.448,3.74,0
			C286.803,83.365,286.638,81.873,286.344,80.804z"/>
		<g>
			<path style="fill:#5E303B;" d="M323.932,117.529c-0.044-1.379-0.442-2.796-1.267-3.916c-0.878-1.192-2.04-2.203-3.485-2.628
				c-0.42-0.123-0.871-0.198-1.322-0.242c0.214-1.763-0.015-3.533-0.851-5.188c-1.081-2.141-3.032-3.735-5.225-4.629
				c-2.166-0.883-5.192-1.134-6.9,0.771c-1.094,1.22-0.26,2.833,1.248,3.012c-0.184-0.025-0.167-0.021,0.051,0.012
				c0.182,0.024,0.363,0.049,0.545,0.073c0.237,0.01,0.472-0.02,0.709-0.021c0.41-0.001,0.821,0.044,1.23,0.066
				c0.04,0.002,0.079,0.008,0.119,0.011c0.018,0.005,0.073,0.016,0.187,0.036c0.198,0.058,0.403,0.095,0.601,0.155
				c0.155,0.047,0.308,0.104,0.46,0.162c0.058,0.031,0.26,0.125,0.331,0.162c0.185,0.098,0.366,0.204,0.543,0.316
				c0.023,0.015,0.265,0.185,0.325,0.221c0.284,0.231,0.552,0.485,0.798,0.755c0.06,0.066,0.195,0.239,0.233,0.285
				c0.09,0.13,0.181,0.261,0.262,0.397c0.106,0.178,0.197,0.362,0.294,0.544c0.002,0.004,0.002,0.005,0.004,0.009
				c0.034,0.091,0.065,0.183,0.094,0.276c0.043,0.176,0.07,0.441,0.155,0.597c0.005,0.028,0.008,0.04,0.012,0.057
				c0.003,0.039,0.008,0.078,0.01,0.118c0.003,0.218,0.012,0.434,0.001,0.652c-0.004,0.094-0.013,0.187-0.021,0.28
				c-0.008,0.04-0.018,0.1-0.036,0.203c-0.121,0.496-0.244,0.983-0.415,1.465c-0.075,0.213-0.158,0.424-0.243,0.633
				c-0.033,0.069-0.197,0.445-0.195,0.439c-0.973,2.14-2.691,4.775-2.037,7.215c0.544,2.03,3.209,2.204,4.288,0.56
				c0.403-0.614,0.614-1.419,0.828-2.121c0.088-0.287,0.185-0.571,0.289-0.853c0.026-0.069,0.264-0.669,0.26-0.67
				c0.342-0.818,0.699-1.63,1.036-2.451c0.103,0.039,0.205,0.071,0.308,0.103c-0.066-0.027-0.069-0.038,0.036,0.011
				c0.033,0.009,0.068,0.024,0.1,0.03c-0.034-0.007-0.061-0.016-0.089-0.025c0.016,0.008,0.02,0.008,0.04,0.019
				c0.095,0.048,0.189,0.099,0.28,0.153c0.205,0.12,0.396,0.259,0.596,0.386c0.091,0.058,0.18,0.119,0.271,0.176
				c0.001,0.001,0.001,0.001,0.002,0.001c0.155,0.141,0.311,0.278,0.454,0.432c0.047,0.051,0.094,0.106,0.14,0.163
				c-0.046-0.062-0.054-0.079,0.004,0.004c0.036,0.044,0.07,0.089,0.109,0.126c-0.038-0.037-0.072-0.078-0.101-0.115
				c0.013,0.019,0.016,0.023,0.035,0.051c0.113,0.171,0.203,0.351,0.301,0.529c0.034,0.101,0.069,0.2,0.098,0.303
				c0.029,0.103,0.054,0.208,0.076,0.313c0.002,0.01,0.003,0.015,0.005,0.024c0.011,0.183,0.029,0.365,0.027,0.55
				c-0.002,0.108-0.012,0.215-0.014,0.323c0,0.011,0,0.011,0,0.021c-0.065,0.333-0.128,0.659-0.162,1.002
				c-0.003,0.042-0.006,0.083-0.009,0.125c-0.018,0.177-0.015,0.166,0.011-0.034c0.048-0.346,0.03-0.211-0.054,0.405
				c-0.005,0.041-0.009,0.081-0.014,0.122c-0.019,0.222-0.02,0.441,0.002,0.66c-0.028,0.33-0.004,0.647,0.117,0.942
				c-0.005,0.033-0.012,0.071-0.021,0.124c-0.106,0.61,0.337,1.02,0.933,0.933c0.116-0.017,0.229-0.051,0.345-0.077
				c0.537,0.1,1.041-0.134,1.463-0.471C323.495,120.853,323.978,118.977,323.932,117.529z"/>
			<path style="fill:#5E303B;" d="M317.157,114.397c0.014,0.006,0.029,0.01,0.047,0.016c-0.004-0.002-0.007-0.003-0.011-0.005
				C317.181,114.404,317.169,114.4,317.157,114.397z"/>
			<path style="fill:#5E303B;" d="M318.988,115.743c0.004,0.006,0.007,0.01,0.012,0.016c-0.003-0.004-0.005-0.008-0.008-0.011
				C318.991,115.746,318.99,115.744,318.988,115.743z"/>
		</g>
		<g>
			<path style="fill:#5E303B;" d="M183.354,104.267c-0.192-0.333-0.438-0.623-0.809-0.841c-0.232-0.136-0.607-0.27-0.895-0.346
				c-0.474-0.125-0.974-0.161-1.464-0.14c-0.758,0.031-1.541,0.143-2.266,0.376c-0.75,0.241-1.506,0.569-2.155,1.022
				c-0.792,0.552-1.37,1.141-1.933,1.926c-0.881,1.226-1.312,2.804-1.365,4.298c-0.031,0.866,0.165,1.698,0.526,2.482
				c0.339,0.735,1.057,1.625,1.923,1.674c0.424,0.17,0.892-0.072,1.095-0.461c0.238-0.277,0.352-0.608,0.366-0.987
				c0.036-0.105,0.078-0.438,0.07-0.377c0.031-0.229,0.044-0.459,0.065-0.689c0.008-0.089,0.014-0.178,0.021-0.266
				c-0.006,0.037-0.014,0.073-0.023,0.101c0.013-0.037,0.015-0.082,0.025-0.122c0-0.001,0-0.002,0-0.003
				c0.019-0.236,0.022-0.148,0.006-0.027c0.061-0.259,0.084-0.548,0.109-0.795c0.002-0.018,0.003-0.027,0.004-0.041
				c0.007-0.032,0.011-0.065,0.017-0.096c0.034-0.173,0.075-0.344,0.124-0.513c0.009-0.033,0.039-0.162,0.074-0.288
				c0.008-0.015,0.017-0.033,0.032-0.063c0.043-0.087,0.085-0.175,0.131-0.261c0.082-0.155,0.172-0.307,0.268-0.454
				c0.026-0.04,0.054-0.078,0.081-0.116c0.111-0.123,0.222-0.246,0.343-0.361c0.071-0.068,0.147-0.131,0.219-0.198
				c0.02-0.018,0.021-0.021,0.032-0.032c0.001-0.001,0.001-0.001,0.002-0.001c0.028-0.022,0.072-0.052,0.117-0.082
				c-0.029,0.019-0.048,0.031-0.084,0.053c0.066-0.042,0.127-0.091,0.192-0.135c0.215-0.145,0.442-0.267,0.673-0.381
				c0.296-0.107,0.598-0.19,0.905-0.254c0.293-0.025,0.584-0.051,0.879-0.038c0.706,0.03,1.403-0.063,1.985-0.426
				c0.608-0.188,1.14-0.544,1.3-1.244C184.115,105.398,183.835,104.766,183.354,104.267z"/>
			<path style="fill:#5E303B;" d="M176.533,111.937c0.003-0.018,0.006-0.035,0.008-0.052c-0.002,0.01-0.004,0.021-0.006,0.03
				C176.534,111.923,176.534,111.929,176.533,111.937z"/>
			<path style="fill:#5E303B;" d="M178.092,108.583C178.517,108.312,178.281,108.455,178.092,108.583L178.092,108.583z"/>
		</g>
		<path style="fill:#5E303B;" d="M160.169,141.486c0.069-0.408,0.178-0.803,0.319-1.193c0.013-0.037,0.027-0.071,0.039-0.101
			c0.046-0.103,0.092-0.206,0.14-0.307c0.091-0.19,0.19-0.375,0.298-0.555c0.224-0.371,0.539-0.667,0.657-1.137
			c0.149-0.267,0.325-0.531,0.402-0.815c0.048-0.076,0.097-0.15,0.15-0.223c0.192-0.267-0.068-0.633-0.364-0.634
			c-0.076-0.001-0.153,0-0.229,0.002c0.008,0.003,0.006,0.002,0.013,0.004c-0.193-0.041-0.34-0.044-0.547-0.007
			c-0.234,0.042-0.459,0.104-0.687,0.165c0.31-0.084-0.216,0.033-0.329,0.069c-0.284,0.091-0.486,0.258-0.705,0.449
			c-0.205,0.178-0.397,0.371-0.576,0.575c-0.494,0.564-0.88,1.197-1.195,1.866c-0.023-0.09-0.047-0.179-0.068-0.27
			c-0.01-0.043-0.017-0.075-0.023-0.103c-0.026-0.188-0.045-0.377-0.066-0.565c-0.042-0.378-0.081-0.757-0.112-1.136
			c-0.061-0.756-0.093-1.516-0.059-2.274c0.01-0.225,0.026-0.45,0.049-0.674c0.036-0.349-0.024,0.005,0.059-0.363
			c0.09-0.403,0.186-0.797,0.32-1.189c0.025-0.072,0.03-0.096,0.029-0.103c0.013-0.026,0.023-0.047,0.043-0.086
			c0.082-0.168,0.17-0.332,0.266-0.493c0.081-0.135,0.17-0.266,0.263-0.394c0.038-0.038,0.201-0.232,0.227-0.259
			c0.086-0.091,0.174-0.179,0.265-0.265c0.078-0.073,0.159-0.143,0.24-0.212c0.01-0.007,0.005-0.003,0.019-0.013
			c0.277-0.191,0.559-0.366,0.854-0.527c0.035-0.019,0.05-0.029,0.072-0.042c0.028-0.007,0.071-0.019,0.146-0.044
			c0.241-0.081,0.469-0.198,0.702-0.298c0.107-0.043,0.361-0.146,0.353-0.142c0.203-0.11,0.358-0.25,0.499-0.407
			c0.794-0.377,0.631-1.39,0.108-1.903c-1.051-1.344-3.235-0.846-4.526-0.066c-1.248,0.754-2.318,1.945-2.939,3.262
			c-0.723,1.533-1.007,3.209-1.029,4.896c-0.02,1.523,0.071,3.166,0.393,4.656c0.319,1.477,1.517,3.02,3.046,3.019
			c0.018,0.433,0.059,0.868,0.149,1.309c0.245,1.201,0.889,2.975,2.186,3.412c0.287,0.186,0.586,0.308,0.938,0.358
			c0.068,0.029,0.135,0.061,0.204,0.089c0.857,0.355,1.473-0.755,1.131-1.445c-0.021-0.212-0.066-0.419-0.147-0.62
			c-0.002-0.246-0.062-0.39-0.14-0.605c-0.11-0.304-0.199-0.592-0.335-0.891c-0.007-0.017-0.029-0.057-0.052-0.1
			c0.076,0.136-0.048-0.114-0.068-0.169c-0.152-0.418-0.249-0.846-0.327-1.283c-0.001-0.017-0.002-0.022-0.003-0.043
			c-0.007-0.107-0.013-0.214-0.022-0.32c-0.02-0.236-0.051-0.471-0.063-0.708c-0.011-0.214-0.012-0.428-0.005-0.642
			c0.004-0.106,0.009-0.212,0.017-0.318C160.151,141.646,160.162,141.552,160.169,141.486z"/>
		<g>
			<path style="fill:#422127;" d="M182.106,199.899c-0.311-0.06-0.611-0.176-0.908-0.299c-0.062-0.047-0.114-0.105-0.181-0.142
				c-0.377-0.159-0.452-0.191-0.223-0.094c-0.143-0.062-0.286-0.122-0.43-0.181c-0.262-0.084-0.536-0.136-0.799-0.22
				c-0.089-0.028-0.196-0.058-0.298-0.094c-0.181-0.095-0.368-0.17-0.565-0.22c-0.271-0.082-0.541-0.162-0.81-0.249
				c-0.023-0.007-0.031-0.009-0.046-0.014c-0.011-0.005-0.014-0.007-0.027-0.014c-0.127-0.062-0.255-0.122-0.38-0.188
				c-0.25-0.133-0.485-0.287-0.722-0.442c-0.026-0.017-0.039-0.024-0.055-0.035c-0.007-0.006-0.008-0.007-0.015-0.014
				c-0.106-0.093-0.215-0.183-0.318-0.28c-0.224-0.21-0.436-0.436-0.64-0.666c-0.026-0.03-0.171-0.219-0.203-0.253
				c-0.049-0.073-0.106-0.158-0.118-0.177c-0.17-0.262-0.308-0.536-0.454-0.812c-0.015-0.029-0.023-0.043-0.032-0.058
				c-0.006-0.018-0.009-0.03-0.019-0.057c-0.047-0.136-0.099-0.271-0.142-0.408c-0.087-0.274-0.157-0.553-0.211-0.835
				c-0.009-0.049-0.063-0.508-0.028-0.135c-0.013-0.144-0.031-0.287-0.043-0.431c-0.025-0.286-0.036-0.573-0.029-0.86
				c0.008-0.284,0.045-0.564,0.065-0.847c0.019-0.167,0.019-0.185,0-0.055c0.01-0.071,0.022-0.143,0.036-0.213
				c0.03-0.165,0.067-0.327,0.108-0.49c0.343-1.373-1.522-2.162-2.272-0.958c-0.817,1.311-1.154,2.866-1.073,4.407
				c-0.142,0.027-0.283,0.056-0.426,0.081c-0.029-0.005-0.289,0.013-0.322,0.013c-0.172,0-0.345-0.009-0.517-0.015
				c-0.044-0.002-0.292-0.014-0.329-0.009c-1.326-0.191-2.412-1.084-3.22-2.147c-0.121-0.16-0.387-0.571-0.54-0.836
				c-0.094-0.162-0.182-0.326-0.266-0.494c-0.031-0.061-0.24-0.52-0.174-0.361c-0.284-0.685-0.486-1.427-0.632-2.153
				c-0.123-0.608-0.19-1.296-0.281-1.992c-0.102-0.772-0.102-1.551,0.061-2.312c0.198-0.924-1.076-1.55-1.576-0.664
				c-0.497,0.88-0.943,1.816-1.225,2.789c-0.286,0.989-0.279,1.971-0.152,2.984c0.267,2.135,1.184,4.097,2.557,5.746
				c1.381,1.658,3.413,2.91,5.605,3.009c0.687,0.031,1.538-0.14,2.232-0.491c0.207,0.444,0.438,0.875,0.721,1.272
				c0.997,1.398,2.385,2.363,3.97,2.99c0.737,0.291,1.477,0.441,2.273,0.398c0.887-0.049,1.725-0.177,2.347-0.787
				c0.341-0.25,0.645-0.522,0.956-0.816C182.606,200.514,182.493,199.973,182.106,199.899z"/>
			<path style="fill:#422127;" d="M179.101,198.797c0.045,0.031,0.107,0.051,0.166,0.072c0.006,0.003,0.014,0.004,0.02,0.008
				C179.225,198.85,179.163,198.824,179.101,198.797z"/>
		</g>
		<path style="fill:#422127;" d="M195.042,213.903c-0.282-0.345-0.772-0.58-1.136-0.836c-0.058-0.043-0.117-0.085-0.177-0.124
			c-0.09-0.068-0.082-0.05,0.023,0.052c-0.234-0.119-0.402-0.295-0.652-0.401c-0.294-0.124-0.564-0.225-0.876-0.292
			c-0.514-0.109-1.021-0.25-1.533-0.369c-0.28-0.065-0.558-0.141-0.831-0.233c-0.099-0.033-0.197-0.069-0.295-0.105
			c-0.034-0.012-0.05-0.018-0.073-0.025c-0.018-0.01-0.031-0.017-0.061-0.033c-0.202-0.103-0.402-0.207-0.594-0.327
			c-0.096-0.06-0.186-0.131-0.283-0.188c-0.016-0.009-0.009-0.003-0.016-0.006c-0.009-0.008-0.005-0.005-0.017-0.016
			c-0.172-0.15-0.342-0.299-0.5-0.464c-0.077-0.081-0.147-0.173-0.227-0.251c-0.014-0.014-0.009-0.006-0.016-0.011
			c-0.008-0.012-0.004-0.009-0.016-0.026c-0.126-0.184-0.247-0.37-0.351-0.567c-0.03-0.057-0.179-0.44-0.057-0.096
			c-0.036-0.103-0.076-0.206-0.115-0.308c-0.079-0.203-0.153-0.405-0.203-0.617c-0.012-0.053-0.023-0.112-0.03-0.144
			c-0.009-0.107-0.015-0.214-0.017-0.321c-0.024-1.516-2.209-1.823-2.639-0.357c-0.775,2.643,0.857,5.149,3.008,6.578
			c1.196,0.795,2.583,1.224,3.999,1.367c0.433,0.044,0.815,0.057,1.252-0.014c0.147-0.024,0.295-0.046,0.436-0.094
			c0.128-0.054,0.255-0.108,0.383-0.162c-0.221,0.091-0.141,0.057,0.242-0.103c0.443-0.205,1.031-0.447,1.373-0.798
			C195.245,214.403,195.216,214.115,195.042,213.903z"/>
		<g>
			<path style="fill:#422127;" d="M323.762,162.304c0.031,0.021,0.06,0.044,0.089,0.065
				C323.844,162.361,323.802,162.331,323.762,162.304z"/>
			<path style="fill:#422127;" d="M329.275,158.225c0.032,0-0.02-0.493-0.024-0.533c-0.047-0.424-0.174-0.775-0.279-1.164
				c-0.058-0.213-0.112-0.411-0.275-0.574c-0.025-0.025-0.035-0.034-0.053-0.051c-0.013-0.025-0.035-0.064-0.078-0.129
				c-0.17-0.256-0.464-0.273-0.693-0.089c-0.049,0.039-0.144,0.105-0.032,0.043c-0.162,0.089-0.289,0.138-0.431,0.273
				c-0.088,0.084-0.171,0.173-0.255,0.261c-0.215,0.097-0.424,0.215-0.561,0.395c-0.004,0.005-0.002,0.004-0.005,0.008
				c-0.027,0.021-0.049,0.037-0.087,0.068c-0.038,0.03-0.07,0.062-0.105,0.091c-0.883,0.492-1.564,1.434-2.238,2.134
				c-0.17,0.177-0.347,0.347-0.53,0.51c-0.096,0.085-0.195,0.166-0.293,0.248c-0.439,0.272-0.85,0.569-1.313,0.803
				c-0.109,0.055-0.221,0.107-0.331,0.16c-0.088,0.042-0.131,0.065-0.154,0.079c-0.191,0.064-0.445,0.132-0.481,0.143
				c-0.487,0.155-0.963,0.333-1.463,0.446c-0.117,0.026-0.234,0.051-0.352,0.072c-0.091,0.016-0.589,0.099-0.049,0.012
				c-0.365,0.059-0.7,0.112-1.052,0.21c-0.463,0.128-0.942,0.219-1.412,0.317c-0.84,0.175-1.068,1.31-0.495,1.877
				c0.51,0.506,1.071,0.856,1.726,1.141c0.842,0.367,1.772,0.436,2.686,0.394c0.099-0.005,0.196-0.028,0.294-0.036
				c0,0.239,0.002,0.479-0.014,0.719c-0.005,0.068-0.011,0.136-0.018,0.204c-0.027,0.135-0.05,0.271-0.082,0.405
				c-0.045,0.193-0.098,0.385-0.158,0.574c-0.012,0.039-0.035,0.128-0.057,0.214c-0.083,0.307-0.309,0.629-0.475,0.895
				c-0.089,0.142-0.184,0.305-0.296,0.436c-0.074,0.074-0.16,0.161-0.189,0.192c-0.137,0.144-0.286,0.271-0.427,0.409
				c-0.019,0.018-0.024,0.025-0.036,0.037c-0.022,0.014-0.039,0.025-0.073,0.048c-0.266,0.184-0.658,0.495-0.982,0.553
				c0.531-0.095-0.076,0.017-0.209,0.059c-0.167,0.053-0.336,0.099-0.507,0.138c-0.304,0.071-0.79,0.266-1.098,0.226
				c0.274-0.033,0.298-0.038,0.073-0.012c-0.101,0.013-0.201,0.025-0.302,0.037c-0.175,0.018-0.351,0.032-0.527,0.038
				c-0.342,0.013-0.686-0.003-1.027-0.04c-0.084-0.018-0.354-0.063-0.396-0.072c-0.17-0.038-0.336-0.088-0.506-0.125
				c-0.707-0.153-1.372-0.349-2.021-0.672c-0.458-0.228-1.204,0.164-0.972,0.747c1.216,3.06,4.9,4.523,8.011,3.794
				c3.252-0.763,5.79-3.589,6.379-6.855c0.183-1.015,0.318-2.11,0.01-3.114c-0.016-0.051-0.035-0.1-0.052-0.15
				c0.111-0.063,0.228-0.116,0.337-0.183c1.372-0.843,2.799-1.999,3.47-3.495c0.249-0.556,0.47-1.107,0.49-1.727
				c0.003-0.043,0.006-0.086,0.01-0.128C329.208,157.885,329.201,157.798,329.275,158.225z"/>
		</g>
		<path style="fill:#422127;" d="M329.581,191.104c-0.017-0.165-0.04-0.319-0.082-0.462c-0.013-0.152-0.024-0.305-0.041-0.458
			c-0.059-0.529-0.68-1.127-1.227-0.704c-0.136,0.105-0.274,0.205-0.414,0.304c-0.198,0.079-0.372,0.186-0.522,0.27
			c0.008-0.002,0.015-0.004,0.023-0.006c-1.136,0.471-2.009,1.653-2.805,2.527c-0.455,0.5-0.949,0.956-1.47,1.386
			c-0.04,0.031-0.087,0.067-0.135,0.102c-0.128,0.092-0.258,0.183-0.39,0.27c-0.291,0.193-0.665,0.337-0.929,0.561
			c-0.013,0.011-0.016,0.016-0.023,0.023c-0.029,0.009-0.06,0.02-0.109,0.038c-0.031,0.008-0.062,0.016-0.093,0.024
			c-0.103-0.018-0.231-0.007-0.336-0.012h-0.001c-0.016-0.007-0.024-0.011-0.047-0.02c-0.111-0.04-0.227-0.071-0.339-0.109
			c-0.002-0.001-0.002-0.001-0.004-0.001c-0.014-0.008-0.024-0.014-0.045-0.026c-0.32-0.18-0.655-0.322-0.996-0.458
			c-0.506-0.203-1.016-0.475-1.566-0.515c-0.482-0.035-0.988-0.08-1.469-0.028c-0.219,0.024-0.398,0.302-0.199,0.479
			c0.487,0.431,0.578,0.868,0.884,1.413c0.335,0.595,0.682,1.21,1.155,1.705c1.258,1.318,2.93,1.922,4.728,1.388
			c1.647-0.489,3.186-1.762,4.38-2.959C328.624,194.72,330.026,192.797,329.581,191.104z"/>
		<path style="fill:#422127;" d="M304.958,204.356c-0.177-0.34-0.321-0.69-0.481-1.048c-0.108-0.243-0.527-0.298-0.693-0.089
			c-0.087,0.11-0.242,0.246-0.31,0.366c-0.038,0.04-0.076,0.08-0.114,0.12c0.152-0.039,0.156-0.037,0.012,0.006
			c-0.21,0.124-0.422,0.191-0.625,0.333c-0.168,0.117-0.2,0.112-0.445,0.344c-0.15,0.14-0.176,0.171-0.077,0.095
			c0.187-0.137,0.071-0.047-0.347,0.271c-0.139,0.13-0.261,0.28-0.393,0.417c-0.226,0.234-0.48,0.438-0.709,0.669
			c-0.279,0.282-0.546,0.567-0.844,0.83c-0.123,0.109-0.25,0.214-0.373,0.323c-0.005,0.005-0.005,0.005-0.01,0.009
			c-0.02,0.012-0.04,0.023-0.074,0.043c-0.34,0.204-0.668,0.41-1.024,0.587c-0.023,0.011-0.033,0.017-0.049,0.025
			c-0.011,0.001-0.02,0.002-0.042,0.008c-0.19,0.046-0.375,0.126-0.565,0.176c-0.159,0.042-0.32,0.075-0.481,0.11
			c-0.042,0.009-0.059,0.014-0.086,0.021c-0.029,0.001-0.049,0-0.095,0.002c-0.361,0.017-0.721,0.037-1.082,0.025
			c-0.163-0.005-0.326-0.026-0.489-0.031c0.464,0.014-0.118-0.021-0.202-0.038c-0.355-0.07-0.705-0.166-1.047-0.284
			c-0.119-0.041-0.419-0.152-0.148-0.043c-0.286-0.114-0.561-0.247-0.852-0.347c-0.272-0.094-0.684-0.241-0.728-0.262
			c-0.378-0.183-0.729-0.394-1.123-0.547c-0.319-0.124-0.706-0.118-0.917-0.227c-0.41-0.211-1.039,0.04-0.996,0.571
			c0.032,0.386-0.067,0.741,0.009,1.131c0.084,0.43,0.274,0.826,0.524,1.182c0.521,0.743,1.139,1.518,1.921,2.001
			c1.472,0.91,3.399,1.454,5.13,1.373c1.769-0.083,3.55-0.637,4.999-1.669c1.506-1.073,2.947-2.666,3.049-4.559
			C305.278,205.599,305.274,204.964,304.958,204.356z"/>
		<path style="fill:#422127;" d="M205.411,120.454c-0.1-0.187-0.209-0.367-0.313-0.547c-0.324-0.56-1.022-0.456-1.366,0
			c-0.029,0.038-0.056,0.078-0.083,0.118c-0.036,0.03-0.078,0.058-0.112,0.09c-0.486,0.282-0.841,0.697-1.156,1.2
			c-0.09,0.143-0.157,0.297-0.221,0.452c-0.033,0.074-0.068,0.147-0.103,0.22c-0.101,0.206-0.212,0.408-0.331,0.604
			c-0.131,0.216-0.273,0.422-0.421,0.626c-0.058,0.08-0.117,0.16-0.174,0.242c-0.007,0.008-0.01,0.01-0.019,0.02
			c-0.338,0.38-0.678,0.747-1.068,1.077c-0.032,0.027-0.065,0.054-0.097,0.081c-0.156,0.125-0.13,0.106,0.078-0.056
			c-0.067,0.089-0.22,0.161-0.309,0.222c-0.191,0.131-0.388,0.255-0.589,0.37c-0.416,0.239-0.857,0.43-1.288,0.64
			c-0.073,0.036-0.147,0.071-0.222,0.104c0.058-0.024,0.115-0.047,0.173-0.071c-0.002,0.02-0.33,0.127-0.352,0.135
			c-0.234,0.083-0.472,0.155-0.713,0.214c-0.503,0.123-1.231,0.308-1.574,0.738c-0.29,0.365-0.402,0.809-0.16,1.237
			c0.384,0.677,1.291,0.925,2.008,0.969c0.648,0.04,1.285-0.027,1.926-0.12c1.192-0.173,2.368-0.781,3.335-1.488
			c1.088-0.795,2.046-1.715,2.746-2.878C205.705,123.492,206.433,121.635,205.411,120.454z"/>
		<path style="fill:#422127;" d="M271.676,121.197c-0.02-0.016-0.039-0.033-0.059-0.049c-0.073-0.206-0.201-0.373-0.375-0.5
			c-0.076-0.105-0.164-0.204-0.282-0.296c-0.178-0.137-0.367-0.242-0.556-0.362c-0.417-0.264-0.873-0.39-1.332-0.559
			c-0.074-0.036-0.149-0.069-0.223-0.106c-0.171-0.085-0.339-0.175-0.509-0.262c-0.339-0.173-0.665-0.37-0.975-0.59
			c-0.02-0.014-0.083-0.062-0.124-0.094c-0.023-0.019-0.044-0.036-0.053-0.044c-0.23-0.194-0.467-0.373-0.713-0.545
			c-0.009-0.006-0.005-0.003-0.012-0.008c-0.06-0.051-0.121-0.101-0.183-0.151c-0.055-0.044-0.51-0.414-0.243-0.191
			c-0.078-0.065-0.158-0.129-0.235-0.197c-0.261-0.228-0.506-0.476-0.729-0.742c-0.225-0.269-0.474-0.533-0.694-0.817
			c-0.188-0.243-0.652-0.107-0.704,0.186c-0.071,0.401-0.13,0.788-0.08,1.194c0.036,0.291,0.089,0.578,0.153,0.863
			c-0.002,0-0.006,0.001-0.007,0.001c-0.221,0.03-0.363,0.076-0.566,0.144c-0.025,0.009-0.051,0.015-0.076,0.023
			c-0.189-0.025-0.46,0.018-0.628,0.007c-0.118-0.007-0.236-0.019-0.354-0.029c-0.503-0.092-0.996-0.206-1.485-0.359
			c-0.187-0.059-0.516-0.248-0.721-0.268c-0.008-0.004-0.017-0.008-0.025-0.011c-0.112-0.054-0.222-0.109-0.332-0.168
			c-0.216-0.115-0.427-0.24-0.631-0.374c-0.096-0.063-0.188-0.13-0.282-0.195c-0.004-0.004-0.004-0.004-0.008-0.008
			c-0.191-0.171-0.382-0.337-0.558-0.524c-0.074-0.078-0.141-0.174-0.22-0.247c-0.012-0.017-0.025-0.033-0.036-0.05
			c-0.074-0.108-0.738-1.1-0.672-1.173c0.094,0.233,0.107,0.263,0.039,0.09c-0.013-0.036-0.026-0.072-0.039-0.108
			c-0.037-0.109-0.071-0.218-0.099-0.33c-0.047-0.182-0.098-0.338-0.172-0.512c-0.061-0.188-0.165-0.35-0.313-0.487
			c-0.089-0.107-0.075-0.086,0.042,0.064c-0.471-0.615-1.403-0.937-2.016-0.26c-0.605,0.669-0.728,1.433-0.64,2.297
			c0.083,0.821,0.288,1.553,0.707,2.269c0.713,1.219,1.791,2.208,2.982,2.95c1.147,0.715,2.46,1.214,3.796,1.421
			c0.901,0.14,1.765,0.239,2.668,0.043c0.62-0.135,1.19-0.489,1.598-0.973c0.706,0.607,1.464,1.067,2.339,1.423
			c0.487,0.198,0.991,0.38,1.525,0.326c0.292-0.03,0.597-0.051,0.881-0.125c0.228-0.059,0.401-0.157,0.579-0.295
			c0.012-0.008,0.017-0.022,0.028-0.031c0.253-0.11,0.474-0.323,0.565-0.584c0.02-0.017,0.039-0.034,0.059-0.052
			C271.839,121.673,271.856,121.341,271.676,121.197z"/>
		<path style="fill:#422127;" d="M289.481,142.879c-0.063-0.021-0.174-0.07-0.29-0.144c-0.065-0.042-0.124-0.09-0.186-0.135
			c-0.054-0.137-0.642-0.562-0.625-0.55c-0.012-0.008-0.034-0.024-0.055-0.04c-0.038-0.032-0.075-0.064-0.09-0.078
			c-0.212-0.199-0.421-0.373-0.641-0.557c0.042,0.034,0.055,0.041-0.035-0.041c-0.082-0.075-0.168-0.146-0.248-0.222
			c-0.319-0.301-0.605-0.639-0.89-0.972c-0.059-0.082-0.118-0.164-0.176-0.247c-0.131-0.188-0.257-0.379-0.38-0.572
			c-0.256-0.404-0.494-0.818-0.714-1.243c-0.496-0.957-0.931-2.26-1.98-2.727c-0.689-0.307-1.374-0.172-1.813,0.475
			c-0.449,0.663-0.377,1.343-0.28,2.088c0.103,0.796,0.437,1.512,0.761,2.244c0.493,1.115,1.098,2.186,1.873,3.13
			c0.39,0.475,0.9,0.867,1.396,1.223c0.639,0.459,1.353,0.624,2.124,0.698c1.109,0.106,2.291-0.628,2.599-1.713
			C289.909,143.225,289.736,142.965,289.481,142.879z"/>
		<path style="fill:#8C4732;" d="M356.104,297.347c-1.477,0.482-2.934,0.709-4.338,1.415c-1.422,0.716-2.724,1.654-3.999,2.601
			c-2.542,1.888-4.943,3.958-7.162,6.217c-2.21,2.25-4.279,4.679-6.071,7.277c-0.866,1.255-1.682,2.545-2.446,3.865
			c-0.699,1.207-1.835,2.811-1.76,4.258c0.028,0.547,0.635,0.988,1.146,0.658c1.136-0.734,1.765-2.252,2.459-3.375
			c0.803-1.3,1.658-2.567,2.561-3.799c1.781-2.43,3.701-4.748,5.811-6.901c2.104-2.147,4.369-4.145,6.786-5.933
			c1.175-0.869,2.412-1.652,3.585-2.522c1.315-0.975,2.374-2.21,3.669-3.189C356.604,297.723,356.471,297.227,356.104,297.347z"/>
		<path style="fill:#8C4732;" d="M397.728,275.615c-0.033,0.002-0.221-0.166-0.266-0.189c-0.163-0.084-0.314-0.103-0.496-0.092
			c-0.252,0.015-0.539,0.059-0.778,0.138c-0.46,0.152-0.904,0.457-1.291,0.742c-0.867,0.641-1.602,1.445-2.145,2.38
			c-0.553,0.952-0.866,1.988-0.986,3.079c-0.068,0.615-0.053,1.233-0.065,1.851c-0.013,0.652-0.075,1.327,0.132,1.958
			c0.188,0.572,0.954,0.858,1.402,0.37c0.866-0.942,0.671-2.297,0.697-3.476c0.02-0.886,0.127-1.717,0.532-2.54
			c0.377-0.765,0.891-1.411,1.528-1.975c0.62-0.549,1.635-0.9,1.851-1.742c0.006-0.003,0.012-0.006,0.018-0.01
			C398.088,275.985,397.991,275.603,397.728,275.615z"/>
		<path style="fill:#8C4732;" d="M419.095,306.18c-1.058-1.307-2.529-1.447-4.083-1.864c-1.725-0.462-3.417-1.05-5.055-1.762
			c-1.598-0.694-3.148-1.472-4.647-2.362c-0.746-0.443-1.478-0.905-2.202-1.384c-0.705-0.466-1.428-1.066-2.27-1.236
			c-0.4-0.081-0.925,0.278-0.74,0.74c0.62,1.552,2.53,2.676,3.86,3.586c1.553,1.063,3.217,2.008,4.931,2.785
			c1.677,0.76,3.406,1.408,5.174,1.922c1.682,0.488,3.404,1.091,4.971,0.054C419.21,306.542,419.222,306.337,419.095,306.18z"/>
		<path style="fill:#8C4732;" d="M452.231,279.778c-0.142-0.229-0.476-0.177-0.557,0.073c-0.306,0.937-0.59,1.976-1.185,2.777
			c-0.647,0.871-1.562,1.451-2.463,2.025c-1.752,1.115-3.538,2.218-5.412,3.12c-2.011,0.967-4.167,1.554-6.387,1.772
			c-1.096,0.108-2.195,0.138-3.296,0.157c-0.285,0.005-2.923,0.041-2.73,0.564c-0.05-0.137-0.199-0.259-0.355-0.202
			c-0.037,0.014-0.074,0.028-0.112,0.041c-0.187,0.069-0.292,0.206-0.308,0.404c-0.171,2.229,4.782,1.511,5.98,1.419
			c2.8-0.217,5.433-0.843,7.949-2.107c2.27-1.14,4.625-2.557,6.579-4.185C451.522,284.317,453.532,281.877,452.231,279.778z"/>
		<path style="fill:#8C4732;" d="M457.139,285.406c-0.327-0.39-0.867-0.112-1.02,0.27c-0.306,0.763-0.456,1.566-0.929,2.254
			c-0.523,0.761-1.273,1.39-2.021,1.921c-1.654,1.173-3.419,2.221-5.216,3.159c-1.773,0.925-3.608,1.716-5.525,2.292
			c-1.741,0.523-3.964,0.535-5.391,1.754c-0.271,0.232-0.173,0.69,0.11,0.856c1.878,1.105,4.627,0.001,6.5-0.654
			c2.222-0.777,4.362-1.793,6.402-2.964c1.91-1.096,3.932-2.269,5.553-3.775C456.905,289.308,458.56,287.104,457.139,285.406z"/>
		<path style="fill:#8C4732;" d="M457.801,288.894c-0.352-0.163-0.856-0.056-0.949,0.386c-0.179,0.851,0.124,1.713-0.093,2.578
			c-0.244,0.968-0.899,1.741-1.617,2.403c-1.478,1.365-3.248,2.46-5.028,3.386c-1.764,0.918-3.613,1.647-5.53,2.176
			c-0.981,0.271-1.973,0.475-2.974,0.655c-0.494,0.089-0.973,0.175-1.442,0.357c-0.523,0.203-0.685,0.402-1.075,0.767
			c-0.169,0.158-0.103,0.411,0.068,0.529c0.483,0.333,0.772,0.514,1.384,0.58c0.604,0.065,1.207-0.027,1.803-0.122
			c1.153-0.182,2.296-0.447,3.417-0.772c2.285-0.664,4.503-1.603,6.564-2.793c1.944-1.123,4.012-2.457,5.355-4.291
			c0.68-0.929,1.121-1.995,1.213-3.149C458.974,290.642,458.753,289.334,457.801,288.894z"/>
		<path style="fill:#8C4732;" d="M67.413,217.584c-1.661-1.29-3.825-1.673-5.637-2.728c-1.982-1.154-3.773-2.616-5.472-4.15
			c-1.68-1.517-3.284-3.185-4.474-5.121c-0.635-1.032-1.215-2.121-1.572-3.283c-0.342-1.115-0.307-2.309-0.69-3.4
			c-0.116-0.331-0.68-0.513-0.85-0.111c-0.465,1.099-0.266,2.304-0.03,3.446c0.251,1.22,0.655,2.428,1.21,3.544
			c1.155,2.32,2.939,4.301,4.826,6.049c1.832,1.698,3.791,3.331,5.938,4.618c1.903,1.141,4.5,2.591,6.704,1.5
			C67.489,217.888,67.528,217.673,67.413,217.584z"/>
		<path style="fill:#8C4732;" d="M61.085,222.305c-0.157-0.222-0.322-0.692-0.689-0.952c-0.416-0.295-0.948-0.46-1.408-0.669
			c-0.95-0.43-1.88-0.909-2.773-1.447c-1.839-1.109-3.527-2.436-5.081-3.917c-1.523-1.452-2.889-3.065-4.048-4.822
			c-1.148-1.741-3.057-4.232-2.171-6.408c0.248-0.609-0.683-0.918-1.012-0.426c-1.377,2.061,0.002,4.696,1.035,6.608
			c1.136,2.103,2.601,4.061,4.226,5.811c1.607,1.731,3.441,3.249,5.416,4.542c1.03,0.675,2.097,1.298,3.2,1.845
			c0.501,0.249,1.017,0.522,1.555,0.682c0.636,0.19,0.924-0.019,1.467-0.152C61.081,222.932,61.261,222.553,61.085,222.305z"/>
		<path style="fill:#8C4732;" d="M59.619,226.747c-0.473-0.27-0.878-0.625-1.367-0.874c-0.505-0.257-1.075-0.349-1.606-0.537
			c-1.061-0.375-2.033-0.973-2.945-1.625c-1.707-1.22-3.333-2.597-4.912-3.977c-1.536-1.343-3.015-2.777-4.248-4.409
			c-0.613-0.811-1.127-1.679-1.611-2.57c-0.332-0.612-0.588-1.787-1.313-2c-0.097-0.028-0.22,0-0.289,0.076
			c-0.562,0.628,0.007,1.808,0.262,2.489c0.377,1.005,0.923,1.952,1.518,2.843c1.243,1.861,2.802,3.498,4.426,5.027
			c1.691,1.592,3.43,3.21,5.332,4.548c0.952,0.67,1.965,1.225,3.055,1.636c0.566,0.214,1.192,0.444,1.805,0.444
			c0.661,0.001,1.196-0.246,1.812-0.441C59.813,227.289,59.885,226.898,59.619,226.747z"/>
		<path style="fill:#8C4732;" d="M101.172,232.18c-0.178-1.726-0.599-3.432-1.229-5.048c-0.634-1.628-1.44-3.121-2.505-4.507
			c-0.22-0.287-2.481-2.93-2.885-1.898c-0.208,0.532,0.231,1.13,0.489,1.568c0.38,0.645,0.801,1.264,1.168,1.917
			c0.732,1.303,1.358,2.674,1.801,4.102c0.429,1.383,0.685,2.799,0.806,4.241c0.063,0.752,0.023,1.504,0.074,2.254
			c0.055,0.813,0.363,1.337,0.724,2.031c0.092,0.176,0.358,0.205,0.491,0.063c0.592-0.629,1.01-1.16,1.115-2.062
			C101.321,233.968,101.261,233.053,101.172,232.18z"/>
		<path style="fill:#8C4732;" d="M90.319,247.02c-0.25-0.255-0.432-0.443-0.79-0.542c-0.386-0.107-0.787-0.105-1.182-0.087
			c-0.742,0.035-1.482,0.052-2.225,0.031c-0.74-0.021-1.478-0.075-2.214-0.157c-0.725-0.081-1.44-0.239-2.12,0.09
			c-0.301,0.145-0.281,0.538-0.098,0.756c0.507,0.601,1.413,0.712,2.151,0.832c0.756,0.123,1.518,0.22,2.281,0.283
			c0.739,0.062,1.483,0.1,2.225,0.092c0.397-0.004,0.808-0.035,1.182-0.176c0.422-0.16,0.601-0.378,0.84-0.734
			C90.449,247.291,90.414,247.117,90.319,247.02z"/>
		<path style="fill:#8C4732;" d="M95.563,244.916c0.001-0.014-0.009-0.023-0.01-0.035c0.005-0.029,0.011-0.059,0.012-0.088
			c0.002-0.08-0.02-0.169-0.081-0.226c-0.059-0.054-0.136-0.084-0.216-0.082c-0.012,0-0.024,0.001-0.036,0.002
			c-0.051-0.023-0.101-0.048-0.157-0.05c-0.067-0.009-0.121-0.016-0.188-0.009c-0.141,0.015-0.276,0.038-0.414,0.067
			c-0.145,0.031-0.279,0.087-0.41,0.157c-0.065,0.035-0.129,0.068-0.195,0.099c-0.013,0.005-0.025,0.01-0.038,0.015
			c-0.112,0.039-0.218,0.078-0.301,0.169c-0.028,0.031-0.037,0.072-0.058,0.105c-0.029,0.026-0.052,0.059-0.076,0.091
			c-0.069,0.069-0.12,0.156-0.116,0.244c0.002,0.04,0.024,0.068,0.036,0.102l-0.004-0.004c0.004,0.012,0.01,0.02,0.014,0.031
			c0.013,0.03,0.019,0.064,0.039,0.089c0.026,0.049,0.06,0.093,0.106,0.132c0.081,0.121,0.193,0.227,0.336,0.257
			c0.08,0.017,0.163,0.024,0.245,0.033c0.06,0.007,0.121,0.011,0.181,0.013c0.209,0.006,0.424-0.015,0.617-0.096
			c0.233-0.099,0.435-0.275,0.578-0.482c0.057-0.082,0.102-0.167,0.129-0.265c0.016-0.057,0.025-0.115,0.026-0.175
			C95.562,244.835,95.556,244.804,95.563,244.916z"/>
		<path style="fill:#8C4732;" d="M147.724,315.795c-0.654-1.611-1.314-3.221-1.997-4.82c-1.375-3.215-2.814-6.413-4.357-9.551
			c-1.542-3.135-3.166-6.239-4.799-9.328c-0.837-1.583-1.647-3.181-2.502-4.755c-0.794-1.462-1.765-2.74-2.781-4.053
			c-0.045-0.058-0.141,0.005-0.121,0.07c0.512,1.604,1.012,3.14,1.738,4.662c0.738,1.547,1.501,3.082,2.213,4.641
			c1.462,3.201,2.849,6.427,4.215,9.669c1.353,3.209,2.732,6.406,4.076,9.62c0.692,1.655,1.388,3.307,2.065,4.968
			c0.596,1.464,1.025,2.881,2.357,3.831c0.313,0.223,0.832-0.001,0.907-0.369C149.078,318.72,148.338,317.306,147.724,315.795z"/>
		<path style="fill:#E19F3D;" d="M275.989,229.361c-0.286-0.898-1.504-1.345-2.199-0.58c-1.06,1.167-1.246,2.518-1.772,3.962
			c-0.433,1.189-0.966,2.355-1.599,3.451c-1.279,2.212-2.88,4.283-4.673,6.1c-3.65,3.697-8.229,6.443-13.183,7.994
			c-11.678,3.658-25.382,1.098-35.705-5.232c-2.557-1.568-4.854-3.455-6.811-5.733c-0.941-1.096-1.801-2.331-2.466-3.615
			c-0.678-1.309-0.972-2.728-1.8-3.962c-0.441-0.657-1.528-0.606-1.745,0.228c-0.69,2.654,0.922,5.874,2.368,8.049
			c1.646,2.478,3.773,4.501,6.137,6.285c5.187,3.913,11.552,6.46,17.842,7.943c12.699,2.995,26.398,1.054,36.402-7.743
			c2.41-2.119,4.705-4.667,6.243-7.499c0.784-1.444,1.509-2.913,2.106-4.445C275.779,232.913,276.547,231.116,275.989,229.361z"/>
		<path style="fill:#E19F3D;" d="M183.134,288.186c0.011-0.244-0.256-0.344-0.447-0.256c-0.253,0.117-0.506,0.157-0.753,0.303
			c-0.234,0.139-0.463,0.282-0.682,0.443c-0.508,0.376-0.913,0.812-1.314,1.296c-0.07,0.085-0.146,0.164-0.217,0.248
			c0.022-0.866,0.053-1.732,0.113-2.597c0.064-0.935,0.137-1.871,0.227-2.803c0.086-0.882,0.359-1.98-0.083-2.797
			c-0.445-0.822-1.762-0.444-1.748,0.474c0.005,0.32-0.218,0.819-0.286,1.165c-0.084,0.423-0.139,0.854-0.201,1.28
			c-0.141,0.963-0.259,1.928-0.345,2.898c-0.089,1.014-0.152,2.031-0.192,3.049c-1.008-0.464-2.011-0.94-3.016-1.411
			c-2.103-0.984-4.209-1.961-6.313-2.945c-3.985-1.863-7.934-3.831-11.392-6.584c-3.047-2.426-5.797-5.319-8.049-8.497
			c-2.275-3.21-3.822-6.696-5.458-10.249c-0.458-0.993-1.892-0.26-1.686,0.711c0.816,3.844,2.798,7.566,4.954,10.819
			c2.254,3.401,4.976,6.454,8.133,9.041c3.466,2.84,7.363,5.022,11.348,7.039c2.203,1.115,4.418,2.208,6.63,3.306
			c1.127,0.56,2.259,1.109,3.381,1.678c0.757,0.384,1.475,0.841,2.234,0.831c0.437,0.174,0.966,0.121,1.354-0.259
			c0.892-0.872,1.744-1.787,2.531-2.755c0.429-0.527,0.782-1.048,1.022-1.687c0.108-0.288,0.181-0.588,0.237-0.891
			C183.169,288.741,183.12,288.478,183.134,288.186z"/>
		<path style="fill:#E19F3D;" d="M339.884,275.709c-0.033-0.18-0.226-0.293-0.395-0.3c-0.811-0.034-1.392,0.52-1.938,1.062
			c-0.736,0.732-1.532,1.333-2.316,2.007c-1.444,1.242-2.793,2.577-4.281,3.772c-3.038,2.439-6.35,4.55-9.812,6.331
			c-3.475,1.788-7.111,3.187-10.864,4.27c-1.828,0.527-3.673,0.983-5.542,1.34c-0.829,0.158-1.695,0.257-2.553,0.387
			c0.607-1.046,0.948-2.202,0.568-3.35c-0.064-0.192-0.277-0.291-0.46-0.187c-0.802,0.456-1.416,1.16-1.98,1.918
			c-0.212-2.02-0.42-4.041-0.647-6.06c-0.165-1.464-0.337-2.926-0.538-4.386c-0.058-0.422-0.224-3.349-1.274-2.915
			c-1.055,0.437-0.651,2.269-0.609,3.169c0.07,1.485,0.176,2.966,0.283,4.449c0.214,2.968,0.46,5.932,0.696,8.898
			c0.077,0.964,1.213,1.606,1.989,0.919c1.574,0.191,3.241-0.157,4.776-0.401c2.012-0.32,4.015-0.738,5.98-1.277
			c3.965-1.087,7.831-2.649,11.485-4.529c3.608-1.856,7.007-4.082,10.179-6.61c1.565-1.248,3.243-2.553,4.548-4.079
			c0.663-0.776,1.294-1.591,1.941-2.382C339.627,277.135,340.033,276.524,339.884,275.709z"/>
		<path style="fill:#E19F3D;" d="M232.755,328.483c-0.145-0.245-0.467-0.327-0.713-0.187c-1.93,1.092-2.522,2.925-3.838,4.581
			c-1.277,1.607-2.9,2.914-4.692,3.903c-4.064,2.244-8.878,2.731-13.442,2.478c-2.452-0.136-5.001-0.523-7.269-1.51
			c-2.022-0.88-3.808-2.241-5.432-3.711c-1.813-1.642-3.495-3.429-5.172-5.208c-0.854-0.906-1.671-1.843-2.466-2.801
			c-0.721-0.868-1.363-1.913-2.369-2.465c-0.568-0.312-1.128,0.2-1.025,0.788c0.331,1.89,2.219,3.747,3.342,5.247
			c1.284,1.715,2.632,3.362,4.075,4.946c2.748,3.016,5.782,5.696,9.686,7.071c3.969,1.398,8.603,1.537,12.752,1.048
			c4.016-0.473,8.007-1.665,11.291-4.095C230.18,336.572,234.949,332.193,232.755,328.483z"/>
		<path style="fill:#E19F3D;" d="M289.404,326.6c-0.895,0.6-1.424,1.526-2.123,2.332c-0.598,0.689-1.234,1.345-1.901,1.967
			c-1.415,1.32-2.981,2.449-4.667,3.398c-3.357,1.89-7.165,2.997-11.022,3.083c-3.931,0.088-7.869-0.847-11.363-2.647
			c-1.766-0.91-3.421-2.01-5.003-3.21c-1.542-1.169-2.823-2.652-4.362-3.807c-0.668-0.501-1.677,0.332-1.414,1.087
			c1.074,3.083,4.022,5.712,6.632,7.509c2.831,1.95,6.154,3.325,9.512,4.04c6.87,1.463,14.098,0.133,20.055-3.579
			c1.622-1.011,3.164-2.194,4.547-3.513c1.294-1.233,3.201-2.948,3.634-4.72C292.264,327.17,290.705,325.728,289.404,326.6z"/>
		<path style="fill:#C8375B;" d="M253.093,455.646c-0.062-2.045-0.157-4.084-0.305-6.125c-0.08-1.106-0.18-2.216-0.317-3.317
			c-0.114-0.912-0.138-1.671-0.807-2.342c-0.284-0.285-0.834-0.322-1.112,0c-1.081,1.252-0.76,3.579-0.794,5.148
			c-0.045,2.041-0.038,4.083-0.014,6.125c0.05,4.169,0.047,8.338,0.069,12.507c0.021,4.084,0.011,8.169-0.031,12.253
			c-0.01,0.958-0.027,1.916-0.041,2.874c-0.076-0.107-0.16-0.207-0.231-0.318c-0.835-1.289-1.451-2.696-1.966-4.138
			c-1.202-3.366-2.149-6.85-3.09-10.297c-2.025-7.418-3.337-15.044-2.562-22.748c0.078-0.778-0.601-1.455-1.278-1.678
			c-0.208-0.069-0.247-0.09-0.463-0.062c-1.009,0.129-1.637,0.698-1.74,1.74c-0.818,8.228,0.693,16.47,2.909,24.372
			c1.003,3.575,2.098,7.191,3.54,10.617c0.96,2.282,2.436,5.373,4.803,6.644c-0.064,1.574-0.189,3.205-0.078,4.766
			c0,0.001-0.002,0.002-0.002,0.004c-0.243,0.729-0.033,1.422,0.548,1.925c0.874,0.756,2.579,0.602,2.825-0.746
			c0.375-2.048,0.233-4.242,0.271-6.319c0.037-2.042,0.066-4.084,0.087-6.126c0.043-4.169,0.053-8.339,0.03-12.508
			C253.324,463.813,253.216,459.728,253.093,455.646z"/>
		<path style="fill:#C8375B;" d="M194.657,437.29c-0.233-0.797-1.023-1.2-1.814-1.03c-1.344,0.288-1.897,1.815-2.628,2.85
			c-0.749,1.059-1.576,2.058-2.458,3.009c-1.734,1.869-3.676,3.533-5.812,4.926c-2.272,1.482-4.725,2.761-7.344,3.499
			c-1.497,0.422-3.015,0.63-4.538,0.914c-0.734,0.137-2.113,0.502-1.956,1.52c0.208,1.358,2.255,1.356,3.272,1.351
			c1.536-0.008,3.085-0.261,4.56-0.682c2.865-0.817,5.611-2.172,8.088-3.818c2.31-1.535,4.458-3.339,6.34-5.377
			c0.949-1.027,1.829-2.117,2.655-3.245C193.844,440.083,195.088,438.761,194.657,437.29z"/>
		<path style="fill:#C8375B;" d="M318.397,453.576c-0.284-0.673-1.068-1.13-1.806-1.102c-2.716-0.078-5.283-0.247-7.922-1.004
			c-2.586-0.742-5.028-1.874-7.292-3.326c-2.264-1.452-4.294-3.238-6.045-5.279c-0.893-1.04-1.649-2.164-2.414-3.298
			c-0.758-1.124-1.408-2.121-2.828-2.274c-0.154-0.017-0.294,0.096-0.374,0.215c-1.611,2.382,1.724,6.027,3.199,7.774
			c1.921,2.275,4.212,4.243,6.704,5.868c4.86,3.168,11.275,5.419,17.149,4.893C318.007,455.933,318.916,454.807,318.397,453.576z"/>
		<path style="fill:#F5D989;" d="M174.317,238.148c-0.039-0.142-0.121-0.283-0.219-0.413c-0.181-0.539-0.406-1.07-0.63-1.585
			c-0.123-0.283-0.251-0.563-0.385-0.841c-0.145-0.303-0.326-0.569-0.518-0.844c-0.296-0.423-0.786-0.629-1.282-0.42
			c-0.457,0.193-0.744,0.718-0.594,1.211c0.089,0.294,0.167,0.587,0.283,0.872c0.12,0.296,0.234,0.594,0.342,0.895
			c0.213,0.592,0.373,1.202,0.59,1.792c0.107,0.289,0.273,0.576,0.559,0.726c0.284,0.15,0.622,0.221,0.937,0.122
			c0.242-0.076,0.435-0.174,0.613-0.359C174.307,238.998,174.431,238.563,174.317,238.148z"/>
		<path style="fill:#F5D989;" d="M165.358,259.152c-0.367-0.184-0.729-0.219-1.128-0.276c-0.387-0.056-0.77-0.089-1.16-0.116
			c-0.312-0.022-0.616-0.026-0.929-0.015c-0.213,0.007-0.421,0.035-0.632,0.066c-0.068,0.01-0.141,0.013-0.208,0.03
			c-0.044,0.017-0.066,0.026-0.097,0.038l-0.03,0.001c-0.405,0.018-0.741,0.294-0.796,0.702c-0.052,0.39,0.188,0.786,0.58,0.889
			c0.035,0.009,0.07,0.018,0.105,0.028c0.107,0.066,0.221,0.114,0.341,0.159c0.152,0.057,0.3,0.106,0.457,0.146
			c0.302,0.076,0.598,0.135,0.907,0.179c0.384,0.055,0.768,0.12,1.156,0.147c0.395,0.027,0.786,0.081,1.177-0.02
			c0.412-0.106,0.712-0.48,0.767-0.891C165.923,259.82,165.738,259.342,165.358,259.152z"/>
		<g>
			<path style="fill:#F5D989;" d="M197.097,240.897c0.041-0.032,0.083-0.062,0.123-0.094c0.04-0.031,0.08-0.063,0.121-0.094
				C197.259,240.772,197.178,240.835,197.097,240.897z"/>
			<path style="fill:#F5D989;" d="M199.489,240.963c0.051-0.288-0.039-0.579-0.291-0.774c-0.246-0.19-0.574-0.212-0.844-0.079
				c-0.148,0.018-0.291,0.065-0.418,0.16c-0.07,0.051-0.14,0.101-0.212,0.149c-0.176,0.117-0.338,0.253-0.503,0.384
				c-0.24,0.187-0.478,0.375-0.718,0.562c0.087-0.067,0.174-0.134,0.261-0.202c-0.193,0.148-0.385,0.299-0.577,0.448
				c-0.137,0.105-0.276,0.208-0.418,0.305c-0.069,0.047-0.139,0.093-0.208,0.141c-0.201,0.14-0.332,0.257-0.461,0.447
				c-0.062,0.067-0.12,0.136-0.188,0.235c-0.083,0.12-0.128,0.255-0.183,0.391c-0.133,0.332,0.002,0.744,0.207,1.009
				c0.239,0.31,0.531,0.413,0.909,0.456c0.188,0.022,0.37-0.027,0.546-0.085c0.442-0.082,0.818-0.382,1.168-0.653
				c0.286-0.221,0.556-0.441,0.801-0.707c0.262-0.286,0.498-0.593,0.709-0.919c0.087-0.134,0.152-0.27,0.216-0.416
				c0.03-0.069,0.06-0.137,0.089-0.206c0.072-0.17,0.129-0.322,0.138-0.509C199.513,241.053,199.496,241.009,199.489,240.963z"/>
		</g>
		<path style="fill:#F5D989;" d="M186.011,270.29c-0.152-0.442-0.33-0.863-0.549-1.275c-0.225-0.424-0.593-0.953-1.117-0.989
			c-0.156-0.079-0.323-0.032-0.419,0.114c-0.567,0.367-0.525,1.293-0.485,1.884c0.021,0.307,0.077,0.634,0.137,0.937
			c-0.081-0.409-0.012-0.063-0.003,0.035c0.009,0.102,0.012,0.204,0.021,0.306c0.033,0.389,0.082,0.769,0.059,1.161
			c-0.017,0.301-0.013,0.596,0.005,0.892c-0.028,0.112-0.052,0.224-0.06,0.339c-0.027,0.092-0.05,0.457-0.049,0.322
			c0.001-0.016,0.005-0.082,0.013-0.097c-0.016,0.03-0.027,0.086-0.035,0.121c-0.017,0.072-0.023,0.145-0.031,0.218
			c-0.003,0.026-0.022,0.088,0.001,0.025c-0.048,0.129,0.033,0.276,0.14,0.344c-0.093-0.11-0.11-0.127-0.049-0.051
			c0.014,0.024,0.031,0.044,0.053,0.06c0.039,0.037,0.107,0.088,0.16,0.117c0.152,0.084,0.328,0.096,0.497,0.099
			c0.211,0.003,0.394-0.037,0.583-0.132c0.006,0,0,0.002,0.008,0.001c0.181-0.027,0.37-0.181,0.498-0.307
			c0.085-0.083,0.174-0.128-0.051-0.003c0.199-0.111,0.333-0.264,0.46-0.448c0.013-0.018,0.026-0.037,0.038-0.055
			c0.055-0.081,0.047-0.077-0.023,0.012c-0.126,0.15-0.082,0.09,0.135-0.182c0.022-0.027,0.039-0.056,0.051-0.088
			c0.229-0.414,0.296-0.873,0.312-1.339C186.337,271.623,186.234,270.94,186.011,270.29z"/>
		<g>
			<path style="fill:#F5D989;" d="M213.843,263.894c-0.062-0.039-0.139-0.056-0.21-0.086c-0.25-0.145-0.532-0.214-0.877-0.206
				c-0.199,0.004-0.398,0.001-0.598,0.007c-0.227,0.007-0.455,0.004-0.682-0.01c-0.113-0.007-0.226-0.019-0.339-0.029
				c-0.142-0.017-0.113-0.012,0.087,0.014c-0.126-0.023-0.254-0.039-0.381-0.049c-0.097-0.008-0.195-0.013-0.292-0.022
				c-0.069-0.006-0.454-0.046-0.102-0.007c-0.281-0.031-0.554-0.072-0.836-0.087c-0.244-0.013-0.484-0.014-0.728,0.019
				c-0.032,0.004-0.076,0.01-0.13,0.017c-0.134,0.04-0.252,0.109-0.352,0.208c-0.099,0.089-0.155,0.151-0.167,0.291
				c-0.032,0.396,0.104,0.71,0.389,0.983c0.18,0.174,0.364,0.334,0.568,0.483c0.402,0.292,0.914,0.512,1.394,0.636
				c0.496,0.128,1.02,0.19,1.529,0.226c0.621,0.044,1.484-0.019,1.899-0.537c0.02-0.019,0.043-0.036,0.061-0.055
				C214.587,265.138,214.481,264.297,213.843,263.894z"/>
			<path style="fill:#F5D989;" d="M208.882,263.439c0.001,0,0.001,0,0.002,0C208.98,263.426,208.98,263.426,208.882,263.439z"/>
		</g>
		<path style="fill:#F5D989;" d="M202.037,294.552c0.097-0.271-0.182-0.571-0.457-0.404c-0.002,0.001-0.002,0.001-0.004,0.002
			c-0.513-0.157-1.093,0.363-1.413,0.709c-0.199,0.215-0.424,0.432-0.572,0.686c-0.162,0.277-0.28,0.59-0.397,0.887
			c-0.206,0.518-0.287,1.064-0.344,1.616c-0.025,0.243-0.045,0.494-0.027,0.738c0.02,0.279,0.063,0.561,0.207,0.807
			c0.063,0.082,0.127,0.164,0.19,0.246c-0.033-0.046-0.067-0.091-0.1-0.137c0.091,0.097,0.157,0.226,0.247,0.326
			c0.35,0.385,0.979,0.384,1.37,0.082c0.117-0.09,0.202-0.194,0.265-0.306c0.001,0.004,0.002,0.009,0.003,0.013
			c0.037-0.063,0.062-0.132,0.09-0.199c0.006-0.004,0.013-0.007,0.031-0.025c0.169-0.161,0.187-0.594,0.191-0.807
			c0.005-0.221,0.002-0.44,0.02-0.66c0.003-0.043,0.008-0.087,0.012-0.13c0.016-0.09,0.029-0.181,0.047-0.271
			c0.044-0.216,0.09-0.433,0.143-0.647c0.051-0.201,0.119-0.396,0.182-0.593c0.066-0.205,0.087-0.424,0.15-0.631
			c0.033-0.108,0.075-0.212,0.109-0.319c0.025-0.077,0.03-0.16,0.044-0.239c0.004-0.008,0.011-0.022,0.02-0.048
			C202.129,295.03,202.134,294.767,202.037,294.552z"/>
		<path style="fill:#F5D989;" d="M230.762,284.884c-0.547-0.329-1.193-0.595-1.81-0.76c-0.599-0.161-1.226-0.249-1.843-0.308
			c-0.325-0.031-0.658,0.036-0.979,0.083c-0.215,0.031-0.478,0.13-0.651,0.298c-0.05,0.019-0.103,0.031-0.153,0.054
			c-0.315,0.146-0.247,0.585,0,0.748c0.118,0.078,0.195,0.199,0.332,0.294c0.098,0.069,0.203,0.12,0.31,0.172
			c0.288,0.14,0.563,0.286,0.864,0.398c0.06,0.022,0.12,0.045,0.18,0.069c0.009,0.004,0.049,0.02,0.083,0.033
			c0.033,0.015,0.084,0.036,0.094,0.04c0.057,0.026,0.114,0.052,0.171,0.078c0.243,0.114,0.476,0.245,0.714,0.369
			c0.454,0.237,0.889,0.498,1.331,0.756c0.638,0.372,1.306,1.023,2.107,0.757c0.538-0.179,0.842-0.605,0.883-1.161
			C232.461,285.878,231.451,285.298,230.762,284.884z"/>
		<g>
			<path style="fill:#F5D989;" d="M253.339,263.23C253.295,263.237,253.304,263.236,253.339,263.23L253.339,263.23z"/>
			<path style="fill:#F5D989;" d="M257.148,258.109c-0.22-0.051-0.433-0.043-0.644-0.007c-0.674,0.006-1.321,0.552-1.809,0.946
				c-0.355,0.286-0.676,0.587-0.98,0.928c-0.348,0.389-0.672,0.793-0.953,1.232c-0.326,0.509-0.669,1.503-0.007,1.905
				c0.222,0.134,0.417,0.139,0.664,0.105c0.091-0.014,0.209-0.034,0.252-0.047c0.224-0.068,0.477-0.199,0.678-0.326
				c0.302-0.191,0.588-0.406,0.878-0.614c0.65-0.466,1.305-0.92,1.94-1.406c0.112-0.082,0.228-0.16,0.324-0.259
				c0.075-0.077,0.115-0.173,0.172-0.261c0.166-0.188,0.318-0.388,0.368-0.641C258.159,259.016,257.853,258.273,257.148,258.109z"/>
			<path style="fill:#F5D989;" d="M257.298,260.729c-0.043,0.033-0.087,0.063-0.13,0.096c-0.057,0.042-0.11,0.089-0.166,0.132
				C257.101,260.882,257.199,260.806,257.298,260.729z"/>
			<path style="fill:#F5D989;" d="M253.428,263.218c-0.003,0.001-0.005,0-0.008,0c-0.032,0.005-0.06,0.009-0.08,0.012
				C253.359,263.228,253.387,263.224,253.428,263.218z"/>
		</g>
		<path style="fill:#F5D989;" d="M277.33,292.795c0.05-0.261,0.038-0.524-0.075-0.791c-0.096-0.229-0.244-0.406-0.402-0.597
			c-0.119-0.145-0.238-0.282-0.37-0.414c-0.262-0.262-0.527-0.517-0.801-0.766c-0.335-0.304-0.677-0.61-1.052-0.864
			c-0.397-0.269-0.897-0.626-1.393-0.577c-0.263,0.026-0.528,0.092-0.716,0.296c-0.192,0.209-0.268,0.435-0.296,0.716
			c-0.05,0.492,0.298,0.973,0.56,1.368c0.255,0.385,0.57,0.736,0.88,1.078c0.242,0.267,0.489,0.525,0.744,0.78
			c0.132,0.132,0.267,0.253,0.411,0.372c0.146,0.12,0.29,0.26,0.455,0.351c0.216,0.119,0.46,0.18,0.704,0.19
			c0.258,0.012,0.494-0.087,0.719-0.198c0.09-0.07,0.181-0.139,0.271-0.209c0.07-0.09,0.139-0.181,0.209-0.271
			c0.059-0.12,0.101-0.241,0.132-0.362C277.318,292.864,277.325,292.83,277.33,292.795z"/>
		<g>
			<path style="fill:#F5D989;" d="M279.583,270.545c-0.002-0.014-0.009-0.024-0.011-0.039
				C279.585,270.574,279.589,270.584,279.583,270.545z"/>
			<path style="fill:#F5D989;" d="M284.649,268.055c-0.019-0.157-0.072-0.306-0.186-0.453c-0.112-0.145-0.241-0.234-0.385-0.292
				c-0.206-0.13-0.425-0.214-0.696-0.214c-0.308,0-0.536,0.099-0.81,0.228c-0.152,0.071-0.29,0.153-0.428,0.248
				c-0.344,0.237-0.674,0.499-1.008,0.751c-0.231,0.174-0.431,0.355-0.638,0.554c-0.076,0.073-0.154,0.143-0.227,0.218
				c-0.091,0.082-0.168,0.176-0.233,0.282c-0.055,0.075-0.057,0.078-0.007,0.009c0.053-0.07,0.048-0.066-0.015,0.011
				c-0.073,0.084-0.142,0.171-0.207,0.262c-0.048,0.079-0.098,0.167-0.142,0.249c-0.076,0.132-0.115,0.274-0.115,0.427
				c0.017,0.111,0.027,0.178,0.031,0.212c0.029,0.183,0.093,0.336,0.263,0.439c0.173,0.104,0.339,0.201,0.552,0.195
				c0.067-0.002,0.137-0.017,0.204-0.024c0.237-0.023,0.477-0.058,0.708-0.125c0.429-0.125,0.895-0.326,1.284-0.532
				c0.33-0.175,0.671-0.339,0.99-0.532C284.241,269.569,284.935,268.901,284.649,268.055z"/>
		</g>
		<path style="fill:#F5D989;" d="M290.787,234.463c0.007-0.018,0.019-0.036,0.024-0.055c0.025-0.089,0.025-0.196,0.031-0.29
			c0.01-0.168-0.159-0.342-0.329-0.329c-0.01,0.001-0.021,0.003-0.032,0.004c-0.12-0.361-0.265-0.709-0.415-1.059
			c-0.124-0.29-0.247-0.584-0.415-0.852c-0.04-0.059-0.082-0.116-0.128-0.171c-0.109-0.142-0.112-0.146-0.01-0.011
			c-0.092-0.073-0.163-0.232-0.239-0.323c-0.174-0.21-0.4-0.348-0.666-0.387c-0.201-0.119-0.55-0.062-0.651,0.173
			c0,0.001-0.033,0.044-0.066,0.091c-0.176,0.191-0.241,0.403-0.276,0.704c-0.018,0.153-0.024,0.326-0.018,0.48
			c0.017,0.395,0.1,0.792,0.182,1.177c0.152,0.711,0.335,1.472,0.686,2.113c0.21,0.383,0.649,0.62,1.08,0.62
			c0.406,0,0.903-0.23,1.081-0.62c0.079-0.174,0.151-0.333,0.176-0.523c0.004-0.029-0.007-0.056-0.005-0.085
			C290.848,234.887,290.855,234.675,290.787,234.463z"/>
		<g>
			<path style="fill:#F5D989;" d="M317.362,239.847c-0.293-1.122-1.619-1.394-2.599-1.621c-0.359-0.084-0.73-0.137-1.094-0.199
				c-0.257-0.044-0.517-0.067-0.778-0.076c-0.135-0.005-0.262,0.019-0.394,0.031c-0.045,0.006-0.106,0.014-0.195,0.026
				c-0.027,0.006-0.045,0.025-0.07,0.033c-0.207,0.028-0.399,0.085-0.551,0.222c-0.236,0.136-0.324,0.425-0.252,0.688
				c0.008,0.11,0.036,0.218,0.101,0.329c0.055,0.093,0.129,0.166,0.205,0.237c0.21,0.327,0.577,0.565,0.892,0.768
				c0.291,0.186,0.613,0.343,0.92,0.502c0.298,0.154,0.614,0.281,0.922,0.416c0.36,0.159,0.751,0.312,1.137,0.4
				c0.503,0.115,1.016,0.005,1.388-0.367C317.358,240.872,317.491,240.341,317.362,239.847z"/>
			<path style="fill:#F5D989;" d="M312.442,237.987c0.019-0.001,0.036-0.004,0.055-0.006
				C312.609,237.966,312.595,237.967,312.442,237.987z"/>
		</g>
		<path style="fill:#F5D989;" d="M310.188,263.438c-0.035-0.439-0.347-0.903-0.839-0.893c-0.802,0.015-1.269,0.92-1.6,1.543
			c-0.17,0.321-0.294,0.666-0.428,1.004c-0.055,0.137-0.105,0.273-0.149,0.414c-0.094,0.302-0.098,0.584-0.007,0.867
			c0.011,0.051,0.008,0.103,0.024,0.153c-0.006-0.047-0.013-0.095-0.019-0.142c0.002,0.006,0.005,0.012,0.008,0.018
			c0.063,0.376,0.229,0.685,0.609,0.845c0.396,0.167,0.797,0.063,1.115-0.211c-0.133,0.097-0.153,0.118-0.063,0.064
			c0.07-0.038,0.121-0.096,0.178-0.148c0.18-0.129,0.325-0.293,0.434-0.525c0.097-0.208,0.185-0.421,0.266-0.636
			c0.108-0.288,0.216-0.569,0.293-0.867c0.092-0.354,0.17-0.707,0.19-1.074C310.207,263.713,310.198,263.572,310.188,263.438z"/>
		<path style="fill:#F5D989;" d="M332.214,270.72c-0.214-0.303-0.44-0.516-0.763-0.694c-0.141-0.078-0.282-0.157-0.423-0.234
			c-0.356-0.194-0.775-0.37-1.156-0.494c-0.39-0.126-0.749-0.209-1.16-0.257c-0.143-0.016-0.286-0.044-0.43-0.055
			c-0.313-0.025-0.62,0.104-0.835,0.328c-0.146,0.046-0.214,0.197-0.184,0.345c-0.071,0.348,0.044,0.697,0.275,0.965
			c0.1,0.116,0.21,0.225,0.313,0.34c0.271,0.302,0.595,0.534,0.918,0.777c0.254,0.192,0.536,0.371,0.822,0.51
			c0.173,0.084,0.347,0.172,0.523,0.254c0.024,0.021,0.041,0.044,0.067,0.064c0.339,0.262,0.685,0.292,1.098,0.225
			c0.422-0.068,0.698-0.389,0.936-0.71C332.476,271.732,332.464,271.074,332.214,270.72z"/>
		<g>
			<path style="fill:#F5D989;" d="M252.69,307.487c-0.109-0.134-0.12-0.152-0.033-0.055c0.056,0.073,0.071,0.084,0.043,0.031
				c-0.008-0.107-0.199-0.256-0.275-0.315c-0.221-0.171-0.536-0.286-0.817-0.202c-0.191,0.057-0.372,0.138-0.516,0.281
				c-0.068,0.072-0.127,0.15-0.177,0.235c-0.004,0.006,0,0-0.003,0.005c-0.035,0.045-0.069,0.09-0.104,0.135
				c-0.047,0.101-0.09,0.204-0.128,0.308c-0.023,0.059-0.05,0.119-0.07,0.18c-0.091,0.283-0.157,0.571-0.259,0.851
				c-0.098,0.269-0.173,0.543-0.268,0.813c-0.111,0.316-0.243,0.676-0.244,1.019c-0.019,0.115-0.034,0.23-0.029,0.345
				c0.006,0.123,0.041,0.225,0.073,0.329c-0.009-0.128-0.002-0.1,0.02,0.086c0-0.001-0.001-0.001-0.001-0.002
				c0.001,0.003,0.001,0.007,0.002,0.01c0.003,0.026,0.005,0.043,0.009,0.075c0.021,0.098,0.062,0.186,0.121,0.263
				c0.009,0.015,0.022,0.025,0.032,0.039l0.055,0.131c-0.022-0.054-0.024-0.05-0.006,0.012c0.048,0.213,0.276,0.305,0.471,0.267
				c0.017-0.003,0.035-0.007,0.052-0.01c0.025-0.001,0.051-0.008,0.076-0.011c0.032,0.004,0.063,0.014,0.093,0.015
				c0.091,0.004,0.207-0.008,0.294-0.032c0.022-0.009,0.043-0.018,0.065-0.027c0.03-0.004,0.06-0.008,0.089-0.012
				c0.091-0.038,0.181-0.076,0.272-0.115c0.104-0.056,0.205-0.143,0.293-0.22c0.008-0.007,0.109-0.101,0.104-0.103
				c-0.052,0.034-0.104,0.067-0.155,0.1c0.087-0.067,0.174-0.134,0.261-0.201c0.426-0.412,0.622-1.055,0.777-1.61
				c0.133-0.478,0.164-1.002,0.169-1.499C252.979,308.219,252.93,307.797,252.69,307.487z"/>
			<path style="fill:#F5D989;" d="M249.888,311.504c0.005,0.008,0.01,0.017,0.015,0.025c-0.01-0.026-0.01-0.057-0.019-0.084
				C249.885,311.465,249.886,311.477,249.888,311.504z"/>
		</g>
		<path style="fill:#F5D989;" d="M219.188,316.354c-0.029-0.209-0.171-0.377-0.378-0.436c-0.03-0.013-0.058-0.032-0.09-0.04
			c-0.035-0.014-0.072-0.02-0.11-0.019c-0.129-0.015-0.123-0.017,0.018-0.007c-0.006-0.024-0.223-0.027-0.264-0.027
			c-0.135,0.001-0.202,0.022-0.308,0.061c-0.246,0.091-0.509,0.147-0.744,0.262c-0.435,0.212-0.86,0.528-1.228,0.835
			c-0.309,0.258-0.636,0.515-0.91,0.81c-0.205,0.221-0.407,0.449-0.583,0.693c-0.116,0.16-0.226,0.337-0.275,0.531
			c-0.032,0.125-0.05,0.273-0.056,0.401c-0.007,0.143,0.026,0.27,0.07,0.393c0.005,0.031,0.006,0.062,0.011,0.092
			c0.092,0.467,0.587,0.775,1.034,0.787c0.019,0.001,0.038-0.006,0.057-0.007c0.402,0.03,0.764-0.114,1.09-0.382
			c0.103-0.085,0.197-0.171,0.287-0.269c0.171-0.186,0.344-0.368,0.505-0.563c0.161-0.195,0.326-0.387,0.493-0.576
			c0.229-0.258,0.437-0.531,0.647-0.805c-0.062,0.081-0.125,0.161-0.187,0.242c0.094-0.122,0.19-0.243,0.286-0.364
			c0.122-0.153,0.23-0.281,0.304-0.457c0.016-0.035,0.029-0.07,0.044-0.106c0.025-0.011,0.075-0.128,0.092-0.156
			c0.07-0.117,0.14-0.224,0.18-0.359c0.046-0.154,0.056-0.319,0.013-0.475c0,0,0-0.001,0-0.001
			C219.26,316.671,219.215,316.46,219.188,316.354z"/>
		<path style="fill:#F5D989;" d="M184.487,341.637c-0.082-0.194-0.177-0.364-0.301-0.534c-0.25-0.343-0.564-0.637-0.868-0.93
			c-0.292-0.281-0.627-0.536-0.965-0.756c-0.141-0.092-0.286-0.157-0.439-0.226c-0.26-0.116-0.535-0.255-0.821-0.235
			c-0.076-0.009-0.151-0.024-0.228-0.027c-0.211-0.009-0.405,0.105-0.529,0.266c-0.139,0.18-0.158,0.367-0.121,0.587
			c0.013,0.075,0.031,0.147,0.049,0.22c0.027,0.171,0.094,0.332,0.187,0.498c0.056,0.099,0.108,0.2,0.163,0.3
			c0.16,0.286,0.392,0.556,0.606,0.799c0.395,0.451,0.807,0.904,1.282,1.27c-0.085-0.066-0.169-0.131-0.254-0.196
			c0.19,0.147,0.373,0.305,0.585,0.422c0.318,0.175,0.632,0.205,0.973,0.133c0.157-0.004,0.307-0.036,0.445-0.143
			c0.167-0.129,0.305-0.345,0.301-0.567c0.009-0.023,0.019-0.047,0.02-0.049C184.66,342.194,184.595,341.893,184.487,341.637z"/>
		<g>
			<path style="fill:#F5D989;" d="M245.163,353.815c-0.059-0.109-0.137-0.206-0.218-0.302c-0.262-0.367-0.503-0.755-0.813-1.083
				c-0.345-0.364-0.73-0.69-1.139-0.981c-0.36-0.256-0.807-0.45-1.239-0.54c-0.282-0.059-0.669-0.066-0.949,0.015
				c-0.046,0.005-0.089,0.021-0.129,0.048c-0.144,0.058-0.139,0.059,0.013,0.004c-0.049,0.033-0.14,0.054-0.191,0.076
				c-0.143,0.06-0.252,0.148-0.339,0.256c-0.046,0.02-0.094,0.036-0.139,0.058c-0.218,0.106-0.316,0.402-0.254,0.625
				c0.059,0.216,0.296,0.434,0.534,0.406c0.02-0.002,0.039-0.001,0.059-0.003c0.059,0.036,0.114,0.074,0.184,0.101
				c0.044,0.017,0.052,0.017,0.063,0.019c0.06,0.033,0.109,0.084,0.176,0.103c-0.132-0.057-0.156-0.066-0.072-0.026
				c0.044,0.026,0.091,0.049,0.135,0.076c0.107,0.066,0.214,0.132,0.319,0.202c0.019,0.013,0.014,0.009,0.026,0.016
				c0.044,0.038,0.088,0.075,0.13,0.115c0.205,0.191,0.402,0.39,0.581,0.605c0.009,0.012,0.022,0.029,0.033,0.045
				c-0.016-0.024-0.023-0.033-0.049-0.071c0.041,0.059,0.086,0.116,0.128,0.174c0.142,0.198,0.28,0.394,0.431,0.587
				c-0.066-0.086-0.132-0.171-0.198-0.256c0.156,0.203,0.306,0.41,0.45,0.621c0.319,0.469,0.791,1.005,1.432,0.919
				c0.217-0.001,0.419-0.055,0.607-0.164c0.181-0.107,0.325-0.251,0.431-0.431C245.386,354.648,245.369,354.197,245.163,353.815z"/>
			<path style="fill:#F5D989;" d="M241.932,353.651C242.031,353.792,241.986,353.723,241.932,353.651L241.932,353.651z"/>
		</g>
		<path style="fill:#F5D989;" d="M290.747,315.428c0.087-0.316,0.038-0.709-0.138-0.987c-0.155-0.243-0.402-0.396-0.673-0.477
			c-0.311-0.093-0.605-0.031-0.886,0.087c-0.252,0.062-0.488,0.156-0.721,0.326c-0.23,0.168-0.455,0.341-0.675,0.523
			c-0.315,0.26-0.632,0.514-0.94,0.782c-0.304,0.264-0.603,0.538-0.891,0.819c-0.083,0.07-0.147,0.157-0.207,0.249
			c-0.103,0.122-0.323,0.388-0.287,0.33c-0.129,0.206-0.201,0.427-0.241,0.664c-0.068,0.401,0.102,0.767,0.509,0.896
			c0.698,0.223,1.339-0.041,1.966-0.344c0.477-0.23,0.946-0.483,1.368-0.805c0.526-0.402,1.199-0.832,1.553-1.411
			c0.035-0.077,0.068-0.154,0.1-0.232c0.082-0.175,0.095-0.213,0.039-0.112c-0.04,0.072-0.039,0.065,0.004-0.022
			C290.667,315.618,290.707,315.523,290.747,315.428z"/>
		<path style="fill:#F5D989;" d="M282.89,355.752c-0.091-0.241-0.196-0.469-0.326-0.69c-0.212-0.362-0.484-0.679-0.795-0.96
			c-0.344-0.31-0.776-0.613-1.225-0.754c-0.209-0.065-0.398-0.13-0.624-0.126c-0.129,0.003-0.259-0.001-0.383,0.039
			c-0.148,0.048-0.28,0.129-0.384,0.247c-0.039,0.044-0.112,0.11-0.122,0.171c-0.03,0.18-0.068,0.357-0.015,0.538
			c0.033,0.112,0.096,0.216,0.149,0.32l-0.088-0.209c0.083,0.211,0.147,0.327,0.289,0.498c0.042,0.051,0.084,0.103,0.124,0.155
			c0.089,0.116,0.178,0.232,0.268,0.347c-0.057-0.074-0.115-0.148-0.172-0.222c0.161,0.211,0.318,0.426,0.481,0.635l-0.185-0.239
			c0.193,0.252,0.361,0.523,0.534,0.787c0.086,0.131,0.16,0.268,0.242,0.4c0.152,0.243,0.401,0.561,0.673,0.686
			c0.325,0.149,0.623,0.197,0.96,0.054c0.134-0.043,0.25-0.118,0.347-0.223c0.134-0.135,0.226-0.294,0.277-0.476
			C283.023,356.472,282.986,356.006,282.89,355.752z"/>
		<path style="fill:#F5D989;" d="M210.799,358.512c0.06-0.289-0.261-0.471-0.483-0.281c-0.061,0.052-0.122,0.103-0.184,0.155
			c-0.048,0.013-0.095,0.03-0.141,0.047c-0.105,0.03-0.196,0.082-0.273,0.159c-0.016,0.013-0.007,0.009-0.016,0.017
			c-0.041,0.017-0.084,0.031-0.124,0.05c-0.082,0.037-0.154,0.088-0.218,0.154c-0.072,0.057-0.145,0.113-0.216,0.171
			c-0.057,0.046-0.143,0.154-0.212,0.177c0.112-0.08,0.125-0.093,0.038-0.039c-0.094,0.06-0.18,0.129-0.257,0.209
			c-0.126,0.118-0.248,0.24-0.375,0.357c-0.264,0.245-0.505,0.506-0.755,0.766c-0.187,0.194-0.35,0.397-0.514,0.612
			c-0.056,0.074-0.107,0.145-0.15,0.228c-0.167,0.322-0.172,0.588-0.112,0.939c0.039,0.231,0.224,0.444,0.4,0.58
			c0.211,0.163,0.41,0.21,0.676,0.24c0.614,0.069,1.125-0.488,1.469-0.927c0.282-0.36,0.549-0.705,0.766-1.106
			c0.205-0.379,0.373-0.763,0.507-1.173c0.027-0.083,0.056-0.168,0.076-0.253c0.016-0.09,0.027-0.18,0.033-0.271
			c0-0.034-0.001-0.046-0.004-0.051c0.008-0.026,0.015-0.051,0.023-0.077c0.03-0.109,0.03-0.219,0-0.329
			c-0.004-0.032-0.008-0.057-0.012-0.085C210.76,358.691,210.78,358.601,210.799,358.512z"/>
		<path style="fill:#F5D989;" d="M186.932,376.892c-0.09-0.508-0.326-1.07-0.622-1.494c-0.355-0.509-0.727-0.925-1.299-1.181
			c-0.256-0.114-0.527-0.132-0.76,0.054c-0.205,0.163-0.332,0.456-0.245,0.719c0.077,0.231,0.125,0.464,0.228,0.687
			c0.031,0.067,0.063,0.134,0.095,0.201c-0.002,0.001,0.067,0.169,0.078,0.2c0.131,0.377,0.254,0.747,0.338,1.137
			c0.041,0.188,0.093,0.373,0.127,0.564c0.005,0.028,0.009,0.056,0.014,0.084c0.001,0.006,0,0.002,0.001,0.009
			c0.013,0.172,0.038,0.343,0.067,0.513c0.033,0.194,0.059,0.388,0.112,0.579c0.015,0.078,0.048,0.151,0.083,0.223
			c0.006,0.054,0.025,0.105,0.042,0.157c0.008,0.246,0.038,0.446,0.214,0.654c0.116,0.137,0.346,0.187,0.514,0.136
			c0.186-0.057,0.344-0.171,0.448-0.338c0.026-0.042,0.041-0.09,0.068-0.132c-0.069,0.109,0.094-0.111,0.08-0.092
			c0.051-0.067,0.093-0.129,0.124-0.208c-0.018,0.023-0.037,0.045-0.055,0.067c0.047-0.06,0.094-0.121,0.141-0.182
			c0.088-0.148,0.159-0.332,0.21-0.495C187.12,378.151,187.04,377.499,186.932,376.892z"/>
		<path style="fill:#F5D989;" d="M231.83,378.794c-0.032-0.513-0.332-0.945-0.834-1.095c-0.32-0.096-0.581-0.047-0.848,0.048
			c-0.522,0.078-0.941,0.392-1.379,0.687c-0.354,0.239-0.706,0.483-1.066,0.713c-0.359,0.23-0.736,0.429-1.087,0.671
			c-0.472,0.326-1.229,0.781-1.159,1.454c0.002-0.004,0.003-0.009,0.005-0.013c-0.023,0.275,0.086,0.53,0.337,0.663
			c0.462,0.371,1.162,0.271,1.723,0.15c0.526-0.114,1.022-0.346,1.512-0.564c0.406-0.18,0.798-0.375,1.174-0.611
			c0.517-0.326,1.065-0.697,1.331-1.257C231.718,379.395,231.851,379.14,231.83,378.794z"/>
		<path style="fill:#F5D989;" d="M269.546,383.33c-0.084-0.238-0.19-0.487-0.303-0.709c-0.178-0.349-0.392-0.68-0.6-1.012
			c-0.242-0.385-0.489-0.75-0.768-1.11c-0.235-0.303-0.434-0.582-0.733-0.781c-0.203-0.187-0.421-0.377-0.693-0.416
			c-0.097-0.027-0.196-0.045-0.31-0.051c-0.151-0.009-0.308,0.09-0.381,0.219c-0.055,0.096-0.09,0.184-0.116,0.275
			c-0.114,0.239-0.075,0.522-0.025,0.789c0.001,0.372,0.135,0.718,0.262,1.079c0.151,0.429,0.341,0.838,0.534,1.25
			c0.161,0.343,0.322,0.685,0.505,1.017c0.234,0.423,0.589,0.952,1.07,1.126c0.301,0.213,0.782,0.165,1.081-0.01
			c0.323-0.189,0.553-0.561,0.54-0.942c-0.001-0.022-0.004-0.042-0.005-0.063C269.637,383.778,269.626,383.556,269.546,383.33z"/>
		<path style="fill:#F5D989;" d="M301.285,387.292c-0.267-0.245-0.582-0.382-0.95-0.393c-0.51-0.016-0.911,0.286-1.257,0.62
			c-0.119,0.115-0.254,0.213-0.37,0.33c-0.11,0.111-0.219,0.222-0.337,0.324c-0.121,0.105-0.221,0.214-0.315,0.329
			c-0.042,0.045-0.086,0.088-0.127,0.133c-0.138,0.151-0.25,0.352-0.293,0.561c-0.081,0.191-0.066,0.422,0.011,0.605
			c0.066,0.157,0.177,0.262,0.308,0.347c0.195,0.179,0.44,0.285,0.724,0.296c0.073,0.003,0.147-0.004,0.219,0.003
			c-0.103-0.014-0.205-0.028-0.308-0.041c0.335,0.094,0.715,0.043,1.039-0.075c0.254-0.092,0.511-0.194,0.751-0.318
			c0.071-0.036,0.132-0.086,0.196-0.134c0.157-0.12,0.317-0.24,0.467-0.369c0.346-0.298,0.683-0.795,0.637-1.269
			C301.644,387.894,301.555,387.541,301.285,387.292z"/>
		<path style="fill:#F5D989;" d="M285.386,406.547c-0.039-0.433-0.109-0.88-0.193-1.308c-0.064-0.324-0.143-0.666-0.25-0.978
			c-0.055-0.159-0.123-0.315-0.185-0.473c-0.102-0.26-0.195-0.536-0.423-0.703c-0.023-0.026-0.051-0.051-0.076-0.075
			c-0.003-0.006-0.006-0.012-0.009-0.017c-0.224-0.441-0.901-0.311-1.026,0.134l-0.001,0.006c-0.025,0.037-0.056,0.071-0.078,0.111
			c-0.11,0.141-0.177,0.3-0.214,0.505c-0.03,0.171-0.064,0.341-0.091,0.512c-0.066,0.414-0.089,0.847-0.093,1.267
			c-0.003,0.352,0.01,0.713,0.048,1.062c0.057,0.527,0.056,1.091,0.313,1.564c0.238,0.438,0.767,0.66,1.243,0.596
			c0.497-0.067,0.888-0.414,1.037-0.894C285.518,407.436,285.425,406.976,285.386,406.547z"/>
		<g>
			<path style="fill:#F5D989;" d="M246.835,406.058c-0.046,0-0.081-0.016-0.125-0.02c-0.015-0.002-0.03,0-0.045-0.002
				L246.835,406.058z"/>
			<path style="fill:#F5D989;" d="M247.862,404.413c-0.053-0.202-0.151-0.389-0.241-0.577c-0.142-0.298-0.354-0.591-0.561-0.845
				c-0.145-0.178-0.285-0.38-0.459-0.53c-0.241-0.207-0.508-0.469-0.823-0.558c-0.1-0.055-0.197-0.115-0.309-0.149
				c-0.316-0.095-0.692,0.114-0.77,0.437c-0.03,0.124-0.037,0.248-0.04,0.372c-0.067,0.306,0.027,0.648,0.076,0.952
				c0.038,0.237,0.145,0.471,0.23,0.695c0.115,0.3,0.261,0.617,0.435,0.889c0.319,0.496,0.706,0.886,1.309,0.939
				c0.464,0.065,0.914-0.191,1.075-0.638c-0.021,0.05-0.042,0.1-0.063,0.15C247.938,405.18,247.968,404.822,247.862,404.413z"/>
			<path style="fill:#F5D989;" d="M246.603,406.032c0.021,0.005,0.041,0,0.062,0.004c-0.035-0.005-0.069-0.009-0.104-0.014
				C246.575,406.025,246.589,406.028,246.603,406.032z"/>
		</g>
		<path style="fill:#F5D989;" d="M204.071,401.385c-0.202-0.261-0.471-0.384-0.8-0.401c-0.166-0.009-0.323,0.027-0.48,0.075
			c0.098-0.013,0.196-0.026,0.294-0.039c-0.544,0.007-0.975,0.324-1.404,0.617c-0.36,0.245-0.706,0.501-1.043,0.778
			c-0.271,0.223-0.567,0.433-0.821,0.675c-0.121,0.115-0.238,0.248-0.347,0.376c-0.062,0.079-0.124,0.159-0.185,0.24
			c-0.101,0.245-0.119,0.286-0.055,0.123c-0.045,0.076-0.081,0.156-0.109,0.24c-0.172,0.222-0.166,0.551,0.002,0.769
			c0.176,0.228,0.442,0.28,0.7,0.205c0.448,0.043,0.944-0.157,1.322-0.351c0.33-0.169,0.654-0.353,0.981-0.529
			c0.328-0.177,0.634-0.385,0.945-0.591c0.229-0.151,0.454-0.31,0.66-0.491c0.041-0.027,0.076-0.061,0.105-0.101
			c0.216-0.264,0.243-0.307,0.08-0.127c0.176-0.141,0.267-0.376,0.338-0.58C204.359,401.971,204.258,401.626,204.071,401.385z"/>
		<path style="fill:#F5D989;" d="M179.336,415.331c0.008-0.2-0.005-0.406-0.028-0.604c-0.01-0.076-0.02-0.151-0.031-0.227
			c-0.032-0.082-0.066-0.163-0.102-0.244c0.004,0.01,0.008,0.021,0.012,0.032c-0.041-0.109-0.08-0.213-0.151-0.306
			c-0.079-0.103-0.175-0.162-0.281-0.212c-0.11-0.076-0.239-0.124-0.363-0.108c-0.108,0.015-0.194,0.058-0.264,0.121
			c-0.063,0.032-0.123,0.07-0.178,0.125c-0.071,0.066-0.121,0.144-0.15,0.234c0.001-0.003,0.001-0.002,0.002-0.004
			c-0.014,0.024-0.016,0.031-0.014,0.033c-0.021,0.051-0.021,0.05,0,0c0.009,0.01,0.185-0.22,0.015,0.001
			c-0.078,0.1-0.133,0.206-0.173,0.328c-0.06,0.182-0.1,0.371-0.162,0.554c-0.061,0.176-0.1,0.358-0.16,0.534
			c-0.078,0.231-0.103,0.542-0.048,0.81c0,0.01-0.001,0.02-0.001,0.03c-0.001,0.043,0.004,0.087,0.014,0.129
			c0.001,0.021,0.016,0.039,0.019,0.06c0,0.007,0,0.014-0.001,0.021c-0.017,0.109,0.048,0.276,0.109,0.369
			c0.176,0.266,0.423,0.335,0.723,0.294c0.103-0.014,0.186-0.065,0.265-0.127c0.031-0.02,0.06-0.044,0.087-0.07
			c0.012-0.011-0.003-0.002,0.003-0.008c0.046-0.029,0.101-0.044,0.141-0.082c0.053-0.05,0.153-0.134-0.047,0.005
			c-0.07,0.029-0.14,0.059-0.21,0.089C179.089,416.871,179.31,416.015,179.336,415.331z"/>
		<path style="fill:#F5D989;" d="M220.919,426.099c0.008-0.193-0.037-0.376-0.119-0.561c-0.022-0.07-0.06-0.135-0.101-0.197
			c-0.05-0.18-0.207-0.339-0.408-0.3c-0.036-0.009-0.076-0.013-0.14-0.013c-0.044-0.005-0.087-0.001-0.13,0.011
			c-0.047,0.005-0.077,0.009-0.094,0.013c-0.119,0.003-0.231,0.023-0.343,0.063c-0.472,0.08-0.85,0.426-1.175,0.769
			c-0.227,0.24-0.437,0.493-0.661,0.736c-0.217,0.234-0.421,0.474-0.633,0.712c-0.217,0.242-0.508,0.552-0.609,0.89
			c-0.07,0.074-0.136,0.151-0.178,0.245c-0.12,0.27-0.043,0.628,0.288,0.707c0.132,0.031,0.26,0.025,0.388,0.008
			c0.09,0.029,0.184,0.046,0.277,0.041c0.061-0.003,0.128-0.017,0.186-0.025c0.001,0,0.276-0.06,0.102-0.013
			c-0.081,0.008-0.087,0.012-0.016,0.012c0.084-0.011,0.167-0.023,0.251-0.034c0.037-0.008,0.071-0.019,0.107-0.031
			c0.078-0.027,0.156-0.058,0.233-0.088c0.389-0.154,0.747-0.309,1.088-0.549c0.339-0.238,0.678-0.483,0.955-0.792
			C220.582,427.265,220.995,426.708,220.919,426.099z"/>
		<path style="fill:#F5D989;" d="M273.308,427.316c-0.044-0.12-0.1-0.223-0.155-0.332c-0.08-0.185-0.186-0.365-0.333-0.49
			c-0.093-0.079-0.189-0.155-0.281-0.236c-0.087-0.076-0.171-0.154-0.255-0.234c-0.154-0.148-0.326-0.274-0.496-0.404
			c0.083,0.064,0.165,0.128,0.248,0.192c-0.172-0.133-0.34-0.272-0.502-0.419c-0.213-0.193-0.469-0.401-0.749-0.514
			c-0.072-0.035-0.144-0.07-0.215-0.108c-0.307-0.162-0.666-0.149-0.945,0.066c-0.12,0.093-0.203,0.201-0.262,0.34
			c-0.079,0.188-0.077,0.352-0.043,0.554c0.02,0.12,0.042,0.239,0.067,0.358v-0.029c0.054,0.28,0.182,0.555,0.346,0.775
			c0.195,0.26,0.394,0.517,0.61,0.76c0.136,0.153,0.316,0.271,0.477,0.394c0.091,0.07,0.184,0.138,0.277,0.205
			c0.094,0.066,0.188,0.134,0.287,0.193c0.118,0.07,0.265,0.133,0.402,0.161c0.096,0.019,0.247,0.05,0.344,0.043
			c0.017-0.001,0.033-0.001,0.048-0.002c0.05,0.006,0.101,0.013,0.151,0.009c0.328-0.025,0.591-0.135,0.795-0.399
			C273.31,427.96,273.416,427.613,273.308,427.316z"/>
		<path style="fill:#F5D989;" d="M306.479,413.892c-0.001-0.021-0.002-0.042-0.003-0.063c-0.014-0.289-0.169-0.539-0.439-0.653
			c-0.243-0.103-0.6-0.071-0.781,0.148c-0.023,0.028-0.046,0.056-0.069,0.083c-0.26,0.173-0.432,0.496-0.565,0.759
			c-0.156,0.307-0.307,0.611-0.44,0.929c-0.107,0.256-0.2,0.508-0.279,0.774c-0.053,0.179-0.093,0.374-0.162,0.548
			c-0.09,0.245-0.117,0.499-0.007,0.758c0.195,0.462,0.729,0.694,1.21,0.569c0.356-0.093,0.634-0.362,0.841-0.652
			c0.136-0.191,0.203-0.439,0.285-0.658c0.141-0.379,0.239-0.76,0.31-1.158C306.458,414.838,306.609,414.325,306.479,413.892z"/>
		<path style="fill:#E19F3D;" d="M315.849,420.419c-1.251,0.247-2.107,0.605-3.167,1.318c-1.103,0.741-2.219,1.463-3.348,2.165
			c-2.069,1.287-4.18,2.505-6.326,3.659c-4.348,2.34-8.844,4.398-13.463,6.142c-9.169,3.46-18.8,5.781-28.556,6.748
			c-10.96,1.086-22.166,0.868-33.156,0.347c-10.801-0.512-21.561-1.852-31.943-4.964c-5.326-1.596-10.524-3.607-15.528-6.031
			c-2.568-1.244-5.094-2.572-7.561-4.006c-2.467-1.434-4.809-3.064-7.369-4.33c-1.266-0.626-2.698,0.971-1.575,2.041
			c3.675,3.501,8.507,5.988,12.991,8.299c4.596,2.368,9.39,4.386,14.278,6.069c10.333,3.56,21.141,5.332,32.019,6.116
			c11.324,0.816,22.881,1.039,34.215,0.302c10.215-0.664,20.335-2.648,30.026-5.954c5.388-1.838,10.654-4.066,15.722-6.66
			c2.498-1.279,4.947-2.651,7.341-4.114c1.26-0.77,2.505-1.565,3.734-2.383c0.602-0.401,1.317-0.785,1.842-1.284
			c0.503-0.478,0.827-1.134,1.173-1.724C317.755,421.224,316.841,420.224,315.849,420.419z"/>
		<path style="fill:#2A1214;" d="M217.244,144.279c-0.45-1.953-2.881-2.831-4.641-3.234c-1.674-0.383-3.35-0.381-5.026-0.015
			c-1.557,0.34-3.037,1.057-4.267,2.063c-1.256,1.027-2.545,2.429-2.553,4.126c-0.006,1.21,1.27,2.318,2.488,1.895
			c0.329-0.114,0.681-0.227,0.983-0.4c0.363-0.209,0.652-0.551,0.966-0.825c0.014-0.013,0.068-0.059,0.119-0.103
			c0.06-0.045,0.147-0.113,0.168-0.127c0.241-0.168,0.49-0.325,0.746-0.469c0.229-0.129,0.465-0.246,0.697-0.37
			c0.116-0.062,0.232-0.124,0.35-0.183c0.015-0.007,0.237-0.1,0.319-0.137c0.025-0.009,0.047-0.017,0.057-0.02
			c0.124-0.044,0.249-0.084,0.374-0.122c0.285-0.086,0.572-0.148,0.862-0.213c0.071-0.016,0.107-0.027,0.131-0.036
			c0.076-0.001,0.151,0.001,0.185-0.002c0.277-0.019,0.554-0.024,0.832-0.017c0.291,0.007,0.579,0.041,0.869,0.06
			c0.126,0.028,0.255,0.047,0.381,0.075c0.305,0.067,0.607,0.15,0.903,0.248c0.036,0.012,0.139,0.036,0.232,0.064
			c0.024,0.013,0.056,0.03,0.1,0.052c0.353,0.172,0.694,0.363,1.055,0.516c0.669,0.282,1.306,0.243,2.004,0.109
			C216.881,146.963,217.515,145.455,217.244,144.279z"/>
		<path style="fill:#2A1214;" d="M261.624,145.391c-0.124-0.942-0.346-1.639-0.984-2.363c-0.356-0.403-0.847-0.741-1.267-1.061
			c-0.582-0.443-1.189-0.838-1.845-1.162c-1.671-0.824-3.405-1.306-5.267-1.431c-1.63-0.109-3.364,0.144-4.898,0.702
			c-1.774,0.645-3.816,1.678-4.653,3.452c-0.382,0.81-0.414,1.702,0.172,2.438c0.539,0.677,1.446,1.037,2.307,0.787
			c0.742-0.216,1.363-0.525,2.038-0.892c0.139-0.076,0.281-0.145,0.421-0.217c0.056-0.029,0.086-0.045,0.121-0.064
			c0.006-0.002,0.006-0.002,0.013-0.004c0.295-0.11,0.586-0.228,0.885-0.327c0.3-0.099,0.603-0.185,0.911-0.257
			c0.154-0.036,0.308-0.069,0.464-0.098c0.028-0.005,0.16-0.024,0.25-0.038c0.085-0.007,0.182-0.015,0.205-0.017
			c0.157-0.011,0.314-0.018,0.472-0.022c0.356-0.008,0.709,0.01,1.064,0.031c0.039,0.002,0.053,0.004,0.079,0.005
			c0.109,0.019,0.218,0.036,0.327,0.058c0.3,0.061,0.598,0.135,0.892,0.222c0.269,0.08,0.529,0.179,0.792,0.274
			c0.016,0.008,0.021,0.01,0.04,0.019c0.137,0.069,0.275,0.134,0.411,0.206c0.271,0.144,0.536,0.299,0.794,0.466
			c0.148,0.096,0.29,0.202,0.436,0.301c0.002,0.001,0.001,0.001,0.003,0.003c0.681,0.651,1.452,1.414,2.406,1.589
			c0.875,0.16,1.634,0.071,2.35-0.483C261.162,147.044,261.73,146.202,261.624,145.391z"/>
		<path style="fill:#2A1214;" d="M216.888,160.158c-0.175-0.902-0.533-1.75-0.913-2.583c-2.494-5.459-8.448-3.107-9.995,1.681
			c-0.575,1.778-0.545,3.844-0.052,5.637c0.243,0.881,0.61,1.764,1.092,2.541c0.307,0.495,0.665,1,1.082,1.403
			c0.91,0.879,1.89,1.325,3.175,1.401c1.395,0.083,2.807-0.433,3.775-1.458c0.816-0.863,1.31-1.909,1.654-3.036
			C217.263,163.926,217.246,162.009,216.888,160.158z"/>
		<path style="fill:#2A1214;" d="M255.967,160.394c-0.174-0.902-0.533-1.75-0.913-2.583c-2.494-5.458-8.448-3.107-9.995,1.681
			c-0.575,1.778-0.545,3.844-0.052,5.637c0.243,0.881,0.61,1.764,1.093,2.54c0.307,0.495,0.665,1,1.082,1.403
			c0.91,0.879,1.89,1.325,3.175,1.401c1.395,0.083,2.807-0.433,3.775-1.458c0.816-0.863,1.31-1.909,1.654-3.036
			C256.342,164.161,256.325,162.244,255.967,160.394z"/>
		<g>
			<path style="fill:#8C4732;" d="M231.713,177.134c0.005-0.002,0.009-0.004,0.014-0.006c-0.009,0.004-0.018,0.007-0.026,0.01
				c0.003-0.001,0.007-0.002,0.01-0.003C231.711,177.134,231.712,177.134,231.713,177.134z"/>
			<path style="fill:#8C4732;" d="M236.273,174.904c-0.542-0.331-1.182-0.167-1.703,0.129c-0.191,0.109-0.377,0.255-0.55,0.388
				c0.046-0.036-0.406,0.283-0.263,0.197c-0.25,0.168-0.473,0.355-0.682,0.57c-0.051,0.053-0.449,0.374-0.498,0.453
				c-0.064,0.043-0.127,0.088-0.193,0.129c-0.158,0.101-0.321,0.194-0.488,0.279c-0.02,0.01-0.103,0.047-0.169,0.077
				c0.105-0.039,0.242-0.074-0.014,0.006c-0.038,0.018-0.07,0.033-0.07,0.037c0.001-0.008,0.026-0.02,0.057-0.033
				c-0.2,0.063-0.396,0.129-0.6,0.176c-0.09,0.021-0.182,0.035-0.272,0.055c-0.01,0-0.014,0-0.026,0.001
				c-0.246,0.012-0.49,0.022-0.737,0.01c-0.03-0.001-0.134-0.003-0.21-0.008c-0.026-0.007-0.059-0.014-0.102-0.023
				c-0.218-0.041-0.433-0.094-0.645-0.159c-0.094-0.029-0.186-0.063-0.28-0.093c-0.02-0.007-0.028-0.009-0.043-0.013
				c-0.001,0-0.001,0-0.001-0.001c-0.196-0.104-0.396-0.196-0.586-0.312c-0.413-0.252-0.845-0.469-1.24-0.75
				c-0.539-0.384-1.458-0.231-1.895,0.245c-0.466,0.508-0.615,1.284-0.245,1.895c0.549,0.906,1.257,1.601,2.205,2.081
				c0.927,0.47,1.868,0.729,2.895,0.849c1.796,0.21,3.691-0.348,5.13-1.429c0.936-0.703,1.696-1.528,1.897-2.731
				C237.068,176.181,236.988,175.341,236.273,174.904z"/>
		</g>
		<path style="fill:#8C4732;" d="M241.473,192.942c-0.477-1.621-2.078-2.591-3.569-3.306c-1.688-0.809-3.509-1.63-5.36-1.968
			c-1.845-0.337-3.823-0.292-5.509,0.622c-0.838,0.454-1.723,1.172-2.066,2.079c-0.362,0.955-0.251,2.07,0.811,2.478
			c0.527,0.202,1.057-0.031,1.532-0.24c-0.292,0.128,0.316-0.134,0.447-0.216c0.144-0.09,0.277-0.197,0.425-0.282
			c0.39-0.225,0.387-0.201,0.88-0.351c0.169-0.052,0.341-0.095,0.514-0.131c0.06-0.012,0.203-0.029,0.266-0.037
			c1.666-0.103,3.214,0.579,4.712,1.302c0.734,0.354,1.478,0.703,2.187,1.105c0.726,0.411,1.369,0.904,2.154,1.209
			c0.102,0.04,0.154,0.059,0.186,0.07c0.01,0.007,0.042,0.025,0.127,0.066c0.217,0.107,0.461,0.256,0.69,0.318
			c0.426,0.117,0.918,0.062,1.272-0.207C241.99,194.832,241.811,193.786,241.473,192.942z"/>
		<path style="fill:#FFFFFF;" d="M216.381,155.929c-0.131-0.465-0.366-0.869-0.706-1.212l-0.556-0.43
			c-0.429-0.248-0.891-0.374-1.386-0.375c-0.378-0.014-0.731,0.065-1.058,0.237c-0.341,0.111-0.635,0.3-0.884,0.568
			c-0.268,0.249-0.457,0.543-0.568,0.884c-0.172,0.327-0.251,0.68-0.237,1.058c0.033,0.243,0.065,0.487,0.098,0.73
			c0.131,0.465,0.366,0.869,0.706,1.212c0.185,0.143,0.371,0.286,0.556,0.43c0.428,0.249,0.891,0.374,1.386,0.375
			c0.378,0.014,0.731-0.065,1.058-0.237c0.34-0.111,0.635-0.3,0.884-0.568c0.268-0.249,0.457-0.543,0.568-0.884
			c0.172-0.327,0.251-0.68,0.237-1.058C216.447,156.416,216.414,156.173,216.381,155.929z"/>
		<path style="fill:#FFFFFF;" d="M255.21,156.154c-0.111-0.397-0.312-0.741-0.602-1.033c-0.158-0.122-0.316-0.244-0.474-0.366
			c-0.365-0.212-0.759-0.318-1.182-0.32c-0.322-0.012-0.623,0.055-0.902,0.202c-0.29,0.094-0.542,0.256-0.754,0.484
			c-0.228,0.212-0.39,0.463-0.484,0.754c-0.147,0.279-0.214,0.58-0.202,0.902c0.028,0.208,0.056,0.415,0.084,0.622
			c0.111,0.397,0.312,0.741,0.602,1.033c0.158,0.122,0.316,0.244,0.474,0.366c0.365,0.212,0.759,0.318,1.182,0.32
			c0.322,0.012,0.623-0.055,0.902-0.202c0.29-0.094,0.541-0.256,0.754-0.484c0.228-0.212,0.39-0.463,0.484-0.754
			c0.147-0.279,0.214-0.58,0.202-0.902C255.266,156.569,255.238,156.361,255.21,156.154z"/>
		<path style="fill:#CA5451;" d="M209.352,175.871c-0.386-2.465-1.746-4.693-4.197-5.728c-0.85-0.359-1.504-0.505-2.47-0.568
			c-0.68-0.045-1.393,0.071-2.052,0.214c-0.654,0.141-1.314,0.448-1.897,0.742c-1.238,0.625-2.171,1.628-2.972,2.729
			c-0.197,0.27-0.366,0.552-0.505,0.857c-0.284,0.62-0.584,1.266-0.727,1.939c-0.3,1.407-0.29,2.605-0.03,4.011
			c0.246,1.331,0.973,2.463,1.835,3.474c0.823,0.966,1.931,1.523,3.079,1.986c1.242,0.501,2.601,0.517,3.9,0.29
			C207.804,185.034,210.014,180.104,209.352,175.871z"/>
		<path style="fill:#CA5451;" d="M271.149,174.459c-0.386-2.465-1.746-4.693-4.197-5.728c-0.85-0.359-1.504-0.505-2.47-0.568
			c-0.68-0.045-1.393,0.071-2.052,0.214c-0.654,0.141-1.314,0.448-1.897,0.742c-1.238,0.625-2.171,1.628-2.972,2.729
			c-0.197,0.27-0.366,0.552-0.505,0.857c-0.284,0.62-0.584,1.266-0.727,1.939c-0.3,1.407-0.29,2.605-0.03,4.012
			c0.246,1.331,0.973,2.463,1.835,3.474c0.823,0.966,1.931,1.523,3.08,1.986c1.242,0.501,2.6,0.517,3.9,0.29
			C269.601,183.621,271.811,178.691,271.149,174.459z"/>
	</g>
	<path style="fill:#F8EBF3;" d="M418.052,351.954c4.572-4.304,9.946-8.025,16.084-9.349c6.138-1.324,13.132,0.128,17.322,4.804
		c5.701,6.363,4.686,16.169,2.505,24.43c-4.782,18.112-13.702,35.357-27.077,48.473c-13.375,13.115-31.387,21.85-50.109,22.456
		c-6.009,0.195-12.265-0.503-17.417-3.603c-5.151-3.1-8.918-9.051-8.019-14.995c2.05-13.558,26.014-20.926,34.695-30.545
		C397.805,380.583,405.167,364.082,418.052,351.954z"/>
	<path style="fill:#F8EBF3;" d="M99.241,124.102c-7.036,4.817-16.314,7.214-24.223,4.027c-11.654-4.696-15.987-20.05-12.171-32.021
		c3.817-11.97,13.582-21.022,23.607-28.596c6.599-4.985,14.474-9.818,22.596-8.261c5.436,1.042,9.914,4.799,13.901,8.639
		c10.209,9.829,12.651,20.628,2.241,31.32C117.364,107.252,108.491,117.769,99.241,124.102z"/>
	<path style="fill:#F8EBF3;" d="M38.529,164.848c-0.168,6.17,0.613,12.917,4.95,17.31c3.609,3.654,9.256,4.945,14.254,3.765
		c4.999-1.18,9.305-4.623,12.082-8.943c5.741-8.931,4.432-21.977-3.472-29.065c-2.748-2.464-6.477-4.24-10.094-3.454
		C44.649,146.998,38.871,152.347,38.529,164.848z"/>
</g>
</svg>
